<svg xmlns="http://www.w3.org/2000/svg" xmlns:xlink="http://www.w3.org/1999/xlink" width="377.9" height="241.99999999999997" viewBox="90 220.8 377.9 242"><title></title><style type="text/css">
#g1 circle.pindot {fill: none;stroke: none;pointer-events: fill;}#g1 rect, #g1 circle, #g1 ellipse, #g1 polyline, #g1 line, #g1 polygon, #g1 path {shape-rendering: crispEdges;}path, polyline, polygon {stroke-linejoin:round;}
path, polyline, polygon, line {stroke-linecap:round;}
rect, circle, ellipse, polyline, line, polygon, path {shape-rendering:crispEdges;}
</style>
<rect x="90" y="220.8" width="377.9" height="242" fill="#FFFFFF" stroke="none"/><g id="g1" c_spiceCmd="null" c_para="" importFlag="0" c_portOfADImportHack="" c_transformList="" xmlns="http://www.w3.org/2000/svg"><g c_origin="250,350" c_para="package`WLCSP-9`" c_partid="part_import_rep18" id="rep18" c_shapetype="group" c_etype="pinpart" ><g c_partid="part_annotation" id="rep3" display="none"><text c_note="note_name" x="250" y="350" fill="#000000" font-family="Verdana" font-size="7pt" font-weight="" font-style="" dominant-baseline="" text-anchor="start"  >TS4231</text></g><g c_partid="part_annotation" id="rep4" ><text c_note="note_pre" x="199" y="288" fill="#000000" font-family="Verdana" font-size="7" font-weight=" " font-style=" " dominant-baseline=" " text-anchor="start"  >TS4231</text></g><polyline points="300 290 200 290" stroke="#8D2323" id="rep5" stroke-width="1"   fill="none" stroke-linecap="round" /><polyline points="200 290 200 410" stroke="#8D2323" id="rep6" stroke-width="1"   fill="none" stroke-linecap="round" /><polyline points="200 410 300 410" stroke="#8D2323" id="rep7" stroke-width="1"   fill="none" stroke-linecap="round" /><polyline points="300 410 300 290" stroke="#8D2323" id="rep8" stroke-width="1"   fill="none" stroke-linecap="round" /><g c_partid="part_pin" c_etype="pinpart"  c_show="show"  c_elec="1" c_spicepin="A3" c_origin="180,330" id="rep9" c_rotation="180"><circle c_pindot="true" class="pindot" cx="180" cy="330" r="2" fill="#4F4F4F" stroke="none" /><path d="M 180 330 h 20" fill="none" stroke="#8D2323" stroke-width="1"/><text x="203" y="333" font-family="Verdana" font-size="7pt" fill="#8D2323" text-anchor="start"   >IIN-</text><text x="194" y="329" font-family="Verdana" font-size="7pt" fill="#8D2323" text-anchor="end" display="none"  >A3</text><circle cx="197" cy="330" r="3" stroke="#8D2323" fill="none" stroke-width="1" display="none" /><path d="M 200 333 L 203 330 L 200 327" fill="none" stroke="#8D2323" stroke-width="1"  display="none" /></g><g c_partid="part_pin" c_etype="pinpart"  c_show="show"  c_elec="1" c_spicepin="A2" c_origin="180,350" id="rep10" c_rotation="180"><circle c_pindot="true" class="pindot" cx="180" cy="350" r="2" fill="#4F4F4F" stroke="none" /><path d="M 180 350 h 20" fill="none" stroke="#8D2323" stroke-width="1"/><text x="203" y="353" font-family="Verdana" font-size="7pt" fill="#8D2323" text-anchor="start"   >IIN+</text><text x="194" y="349" font-family="Verdana" font-size="7pt" fill="#8D2323" text-anchor="end"   >A2</text><circle cx="197" cy="350" r="3" stroke="#8D2323" fill="none" stroke-width="1" display="none" /><path d="M 200 353 L 203 350 L 200 347" fill="none" stroke="#8D2323" stroke-width="1"  display="none" /></g><g c_partid="part_pin" c_etype="pinpart"  c_show="show"  c_elec="1" c_spicepin="B1" c_origin="180,370" id="rep11" c_rotation="180"><circle c_pindot="true" class="pindot" cx="180" cy="370" r="2" fill="#4F4F4F" stroke="none" /><path d="M 180 370 h 20" fill="none" stroke="#8D2323" stroke-width="1"/><text x="203" y="373" font-family="Verdana" font-size="7pt" fill="#8D2323" text-anchor="start"   >RBIAS</text><text x="194" y="369" font-family="Verdana" font-size="7pt" fill="#8D2323" text-anchor="end"   >B1</text><circle cx="197" cy="370" r="3" stroke="#8D2323" fill="none" stroke-width="1" display="none" /><path d="M 200 373 L 203 370 L 200 367" fill="none" stroke="#8D2323" stroke-width="1"  display="none" /></g><g c_partid="part_pin" c_etype="pinpart"  c_show="show"  c_elec="4" c_spicepin="B3" c_origin="260,430" id="rep12" c_rotation="270"><circle c_pindot="true" class="pindot" cx="260" cy="430" r="2" fill="#4F4F4F" stroke="none" /><path d="M 260 430 v -20" fill="none" stroke="#8D2323" stroke-width="1"/><text x="263" y="407" font-family="Verdana" font-size="7pt" fill="#8D2323" text-anchor="start"  transform="rotate(270,263,407)" >AVSS2</text><text x="259" y="416" font-family="Verdana" font-size="7pt" fill="#8D2323" text-anchor="end"  transform="rotate(270,259,416)" >B3</text><circle cx="260" cy="413" r="3" stroke="#8D2323" fill="none" stroke-width="1" display="none" /><path d="M 263 410 L 260 407 L 257 410" fill="none" stroke="#8D2323" stroke-width="1"  display="none" /></g><g c_partid="part_pin" c_etype="pinpart"  c_show="show"  c_elec="4" c_spicepin="B2" c_origin="240,430" id="rep13" c_rotation="270"><circle c_pindot="true" class="pindot" cx="240" cy="430" r="2" fill="#4F4F4F" stroke="none" /><path d="M 240 430 v -20" fill="none" stroke="#8D2323" stroke-width="1"/><text x="243" y="407" font-family="Verdana" font-size="7pt" fill="#8D2323" text-anchor="start"  transform="rotate(270,243,407)" >AVSS</text><text x="239" y="416" font-family="Verdana" font-size="7pt" fill="#8D2323" text-anchor="end"  transform="rotate(270,239,416)" >B2</text><circle cx="240" cy="413" r="3" stroke="#8D2323" fill="none" stroke-width="1" display="none" /><path d="M 243 410 L 240 407 L 237 410" fill="none" stroke="#8D2323" stroke-width="1"  display="none" /></g><g c_partid="part_pin" c_etype="pinpart"  c_show="show"  c_elec="4" c_spicepin="A1" c_origin="240,270" id="rep14" c_rotation="90"><circle c_pindot="true" class="pindot" cx="240" cy="270" r="2" fill="#4F4F4F" stroke="none" /><path d="M 240 270 v 20" fill="none" stroke="#8D2323" stroke-width="1"/><text x="243" y="293" font-family="Verdana" font-size="7pt" fill="#8D2323" text-anchor="end"  transform="rotate(270,243,293)" >AVDD</text><text x="239" y="284" font-family="Verdana" font-size="7pt" fill="#8D2323" text-anchor="start"  transform="rotate(270,239,284)" >A1</text><circle cx="240" cy="287" r="3" stroke="#8D2323" fill="none" stroke-width="1" display="none" /><path d="M 237 290 L 240 293 L 243 290" fill="none" stroke="#8D2323" stroke-width="1"  display="none" /></g><g c_partid="part_pin" c_etype="pinpart"  c_show="show"  c_elec="4" c_spicepin="C3" c_origin="260,270" id="rep15" c_rotation="90"><circle c_pindot="true" class="pindot" cx="260" cy="270" r="2" fill="#4F4F4F" stroke="none" /><path d="M 260 270 v 20" fill="none" stroke="#8D2323" stroke-width="1"/><text x="263" y="293" font-family="Verdana" font-size="7pt" fill="#8D2323" text-anchor="end"  transform="rotate(270,263,293)" >DVDD</text><text x="259" y="284" font-family="Verdana" font-size="7pt" fill="#8D2323" text-anchor="start"  transform="rotate(270,259,284)" >C3</text><circle cx="260" cy="287" r="3" stroke="#8D2323" fill="none" stroke-width="1" display="none" /><path d="M 257 290 L 260 293 L 263 290" fill="none" stroke="#8D2323" stroke-width="1"  display="none" /></g><g c_partid="part_pin" c_etype="pinpart"  c_show="show"  c_elec="0" c_spicepin="C2" c_origin="320,340" id="rep16" c_rotation="0"><circle c_pindot="true" class="pindot" cx="320" cy="340" r="2" fill="#4F4F4F" stroke="none" /><path d="M 320 340 h -20" fill="none" stroke="#8D2323" stroke-width="1"/><text x="297" y="343" font-family="Verdana" font-size="7pt" fill="#8D2323" text-anchor="end"   >ECFGCLK</text><text x="306" y="339" font-family="Verdana" font-size="7pt" fill="#8D2323" text-anchor="start"   >C2</text><circle cx="303" cy="340" r="3" stroke="#8D2323" fill="none" stroke-width="1" display="none" /><path d="M 300 337 L 297 340 L 300 343" fill="none" stroke="#8D2323" stroke-width="1"  display="none" /></g><g c_partid="part_pin" c_etype="pinpart"  c_show="show"  c_elec="0" c_spicepin="C1" c_origin="320,360" id="rep17" c_rotation="0"><circle c_pindot="true" class="pindot" cx="320" cy="360" r="2" fill="#4F4F4F" stroke="none" /><path d="M 320 360 h -20" fill="none" stroke="#8D2323" stroke-width="1"/><text x="297" y="363" font-family="Verdana" font-size="7pt" fill="#8D2323" text-anchor="end"   >DCFGDATA</text><text x="306" y="359" font-family="Verdana" font-size="7pt" fill="#8D2323" text-anchor="start"   >C1</text><circle cx="303" cy="360" r="3" stroke="#8D2323" fill="none" stroke-width="1" display="none" /><path d="M 300 357 L 297 360 L 300 363" fill="none" stroke="#8D2323" stroke-width="1"  display="none" /></g></g><g c_origin="135,305" c_para="package`PHODET_BPW34`" c_partid="part_import_gge19" id="gge19" c_shapetype="group" c_etype="pinpart" c_rotation="90"><g c_partid="part_annotation" id="rep20" ><text c_note="note_name" x="100" y="320" fill="#000000" font-family="Verdana" font-size="7" font-weight=" " font-style=" " dominant-baseline=" " text-anchor="start"  >BPW34</text></g><g c_partid="part_annotation" id="rep21" ><text c_note="note_pre" x="100" y="295" fill="#000000" font-family="Verdana" font-size="7" font-weight=" " font-style=" " dominant-baseline=" " text-anchor="start"  >LED</text></g><polyline points="142 310 135 300" stroke="#8D2323" id="rep22" stroke-width="1"   fill="none" stroke-linecap="round" /><polyline points="135 300 128 310" stroke="#8D2323" id="rep23" stroke-width="1"   fill="none" stroke-linecap="round" /><polyline points="128 310 142 310" stroke="#8D2323" id="rep24" stroke-width="1"   fill="none" stroke-linecap="round" /><polyline points="128 300 135 300" stroke="#8D2323" id="rep25" stroke-width="1"   fill="none" stroke-linecap="round" /><polyline points="135 300 142 300" stroke="#8D2323" id="rep26" stroke-width="1"   fill="none" stroke-linecap="round" /><polyline points="121 301 117 297" stroke="#8D2323" id="rep27" stroke-width="1"   fill="none" stroke-linecap="round" /><polyline points="124 298 120 294" stroke="#8D2323" id="rep28" stroke-width="1"   fill="none" stroke-linecap="round" /><polyline points="135 300 135 284" stroke="#8D2323" id="rep29" stroke-width="1"   fill="none" stroke-linecap="round" /><polyline points="135 310 135 326" stroke="#8D2323" id="rep30" stroke-width="1"   fill="none" stroke-linecap="round" /><polygon points="119 301 121 299 122 302" stroke="#8D2323" id="rep31" stroke-width="1"   fill="#8D2323" stroke-linecap="round" /><polygon points="122 298 124 296 125 299" stroke="#8D2323" id="rep32" stroke-width="1"   fill="#8D2323" stroke-linecap="round" /><g c_partid="part_pin" c_etype="pinpart"  c_show="show"  c_elec="0" c_spicepin="A" c_origin="135,335" id="rep33" c_rotation="270"><circle c_pindot="true" class="pindot" cx="135" cy="335" r="2" fill="#4F4F4F" stroke="none" /><path d="M 135 335 v -10" fill="none" stroke="#8D2323" stroke-width="1"/><text x="138" y="322" font-family="Verdana" font-size="7pt" fill="#8D2323" text-anchor="start"  transform="rotate(270,138,322)" >A</text><text x="134" y="331" font-family="Verdana" font-size="7pt" fill="#8D2323" text-anchor="end"  transform="rotate(270,134,331)" >A</text><circle cx="135" cy="328" r="3" stroke="#8D2323" fill="none" stroke-width="1" display="none" /><path d="M 138 325 L 135 322 L 132 325" fill="none" stroke="#8D2323" stroke-width="1"  display="none" /></g><g c_partid="part_pin" c_etype="pinpart"  c_show="show"  c_elec="0" c_spicepin="C" c_origin="135,275" id="rep34" c_rotation="90"><circle c_pindot="true" class="pindot" cx="135" cy="275" r="2" fill="#4F4F4F" stroke="none" /><path d="M 135 275 v 10" fill="none" stroke="#8D2323" stroke-width="1"/><text x="138" y="288" font-family="Verdana" font-size="7pt" fill="#8D2323" text-anchor="end"  transform="rotate(270,138,288)" >C</text><text x="134" y="279" font-family="Verdana" font-size="7pt" fill="#8D2323" text-anchor="start"  transform="rotate(270,134,279)" >C</text><circle cx="135" cy="282" r="3" stroke="#8D2323" fill="none" stroke-width="1" display="none" /><path d="M 132 285 L 135 288 L 138 285" fill="none" stroke="#8D2323" stroke-width="1"  display="none" /></g></g><g c_origin="135,390" c_para="package`R0402`" c_partid="part_import_gge35" id="gge35" c_shapetype="group" c_etype="pinpart" c_rotation="90"><g c_partid="part_annotation" id="rep36" ><text c_note="note_name" x="120" y="403" fill="#000000" font-family="Verdana" font-size="7" font-weight=" " font-style=" " dominant-baseline=" " text-anchor="start"  >15k</text></g><g c_partid="part_annotation" id="rep37" ><text c_note="note_pre" x="120" y="384" fill="#000000" font-family="Verdana" font-size="7" font-weight=" " font-style=" " dominant-baseline=" " text-anchor="start"  >R1</text></g><polyline points="138 400 138 380" stroke="#8D2323" id="rep38" stroke-width="1"   fill="none" stroke-linecap="round" /><polyline points="132 380 132 400" stroke="#8D2323" id="rep39" stroke-width="1"   fill="none" stroke-linecap="round" /><polyline points="138 380 132 380" stroke="#8D2323" id="rep40" stroke-width="1"   fill="none" stroke-linecap="round" /><polyline points="138 400 132 400" stroke="#8D2323" id="rep41" stroke-width="1"   fill="none" stroke-linecap="round" /><g c_partid="part_pin" c_etype="pinpart"  c_show="show"  c_elec="0" c_spicepin="1" c_origin="135,410" id="rep42" c_rotation="270"><circle c_pindot="true" class="pindot" cx="135" cy="410" r="2" fill="#4F4F4F" stroke="none" /><path d="M 135 410 v -10" fill="none" stroke="#8D2323" stroke-width="1"/><text x="138" y="397" font-family="Verdana" font-size="7pt" fill="#8D2323" text-anchor="start" display="none" transform="rotate(270,138,397)" >1</text><text x="134" y="406" font-family="Verdana" font-size="7pt" fill="#8D2323" text-anchor="end" display="none" transform="rotate(270,134,406)" >1</text><circle cx="135" cy="403" r="3" stroke="#8D2323" fill="none" stroke-width="1" display="none" /><path d="M 138 400 L 135 397 L 132 400" fill="none" stroke="#8D2323" stroke-width="1"  display="none" /></g><g c_partid="part_pin" c_etype="pinpart"  c_show="show"  c_elec="0" c_spicepin="2" c_origin="135,370" id="rep43" c_rotation="90"><circle c_pindot="true" class="pindot" cx="135" cy="370" r="2" fill="#4F4F4F" stroke="none" /><path d="M 135 370 v 10" fill="none" stroke="#8D2323" stroke-width="1"/><text x="138" y="383" font-family="Verdana" font-size="7pt" fill="#8D2323" text-anchor="end" display="none" transform="rotate(270,138,383)" >2</text><text x="134" y="374" font-family="Verdana" font-size="7pt" fill="#8D2323" text-anchor="start" display="none" transform="rotate(270,134,374)" >2</text><circle cx="135" cy="377" r="3" stroke="#8D2323" fill="none" stroke-width="1" display="none" /><path d="M 132 380 L 135 383 L 138 380" fill="none" stroke="#8D2323" stroke-width="1"  display="none" /></g><g c_partid="part_annotation" id="rep44" c_origin="135.015,409.999" c_shapetype="group" c_etype="pinpart"><text x="135.015" y="409.999" fill="#000000" font-family="Verdana" font-size="2" font-weight=" " font-style=" " dominant-baseline=" " text-anchor="start" type="comment" transform="rotate(270,135.015,409.999)" >SpiceOrder 1</text></g><g c_partid="part_annotation" id="rep45" c_origin="135.015,369.999" c_shapetype="group" c_etype="pinpart"><text x="135.015" y="369.999" fill="#000000" font-family="Verdana" font-size="2" font-weight=" " font-style=" " dominant-baseline=" " text-anchor="start" type="comment" transform="rotate(270,135.015,369.999)" >SpiceOrder 2</text></g></g><g c_origin="180,250" c_para="package`C0402`" c_partid="part_import_rep56" id="rep56" c_shapetype="group" c_etype="pinpart" ><g c_partid="part_annotation" id="rep46" ><text c_note="note_name" x="186" y="268" fill="#000000" font-family="Verdana" font-size="7" font-weight=" " font-style=" " dominant-baseline=" " text-anchor="start"  >1.0&#x788c;F</text></g><g c_partid="part_annotation" id="rep47" ><text c_note="note_pre" x="186" y="249" fill="#000000" font-family="Verdana" font-size="7" font-weight=" " font-style=" " dominant-baseline=" " text-anchor="start"  >C1</text></g><rect id="rep48" x="172" y="256"   width="16" height="2" stroke="#8D2323" stroke-width="1" fill="#8d2323"   /><rect id="rep49" x="172" y="252"   width="16" height="2" stroke="#8D2323" stroke-width="1" fill="#8d2323"   /><polyline points="180 250 180 252" stroke="#8D2323" id="rep50" stroke-width="1"   fill="none" stroke-linecap="round" /><polyline points="180 260 180 258" stroke="#8D2323" id="rep51" stroke-width="1"   fill="none" stroke-linecap="round" /><g c_partid="part_pin" c_etype="pinpart"  c_show="show"  c_elec="0" c_spicepin="1" c_origin="180,240" id="rep52" c_rotation="90"><circle c_pindot="true" class="pindot" cx="180" cy="240" r="2" fill="#4F4F4F" stroke="none" /><path d="M 180 240 v 10" fill="none" stroke="#8D2323" stroke-width="1"/><text x="183" y="253" font-family="Verdana" font-size="7pt" fill="#8D2323" text-anchor="end" display="none" transform="rotate(270,183,253)" >1</text><text x="179" y="244" font-family="Verdana" font-size="7pt" fill="#8D2323" text-anchor="start" display="none" transform="rotate(270,179,244)" >1</text><circle cx="180" cy="247" r="3" stroke="#8D2323" fill="none" stroke-width="1" display="none" /><path d="M 177 250 L 180 253 L 183 250" fill="none" stroke="#8D2323" stroke-width="1"  display="none" /></g><g c_partid="part_pin" c_etype="pinpart"  c_show="show"  c_elec="0" c_spicepin="2" c_origin="180,270" id="rep53" c_rotation="270"><circle c_pindot="true" class="pindot" cx="180" cy="270" r="2" fill="#4F4F4F" stroke="none" /><path d="M 180 270 v -10" fill="none" stroke="#8D2323" stroke-width="1"/><text x="183" y="257" font-family="Verdana" font-size="7pt" fill="#8D2323" text-anchor="start" display="none" transform="rotate(270,183,257)" >2</text><text x="179" y="266" font-family="Verdana" font-size="7pt" fill="#8D2323" text-anchor="end" display="none" transform="rotate(270,179,266)" >2</text><circle cx="180" cy="263" r="3" stroke="#8D2323" fill="none" stroke-width="1" display="none" /><path d="M 183 260 L 180 257 L 177 260" fill="none" stroke="#8D2323" stroke-width="1"  display="none" /></g><g c_partid="part_annotation" id="rep54" c_origin="180,240" c_shapetype="group" c_etype="pinpart"><text x="180" y="240" fill="#000000" font-family="Verdana" font-size="2" font-weight=" " font-style=" " dominant-baseline=" " text-anchor="start" type="comment"  >SpiceOrder 1</text></g><g c_partid="part_annotation" id="rep55" c_origin="180,270" c_shapetype="group" c_etype="pinpart"><text x="180" y="270" fill="#000000" font-family="Verdana" font-size="2" font-weight=" " font-style=" " dominant-baseline=" " text-anchor="start" type="comment"  >SpiceOrder 2</text></g></g><g c_origin="320,250" c_para="package`C0402`" c_partid="part_import_rep67" id="rep67" c_shapetype="group" c_etype="pinpart" ><g c_partid="part_annotation" id="rep57" ><text c_note="note_name" x="326" y="268" fill="#000000" font-family="Verdana" font-size="7" font-weight=" " font-style=" " dominant-baseline=" " text-anchor="start"  >0.1&#x788c;F</text></g><g c_partid="part_annotation" id="rep58" ><text c_note="note_pre" x="326" y="249" fill="#000000" font-family="Verdana" font-size="7" font-weight=" " font-style=" " dominant-baseline=" " text-anchor="start"  >C2</text></g><rect id="rep59" x="312" y="256"   width="16" height="2" stroke="#8D2323" stroke-width="1" fill="#8d2323"   /><rect id="rep60" x="312" y="252"   width="16" height="2" stroke="#8D2323" stroke-width="1" fill="#8d2323"   /><polyline points="320 250 320 252" stroke="#8D2323" id="rep61" stroke-width="1"   fill="none" stroke-linecap="round" /><polyline points="320 260 320 258" stroke="#8D2323" id="rep62" stroke-width="1"   fill="none" stroke-linecap="round" /><g c_partid="part_pin" c_etype="pinpart"  c_show="show"  c_elec="0" c_spicepin="1" c_origin="320,240" id="rep63" c_rotation="90"><circle c_pindot="true" class="pindot" cx="320" cy="240" r="2" fill="#4F4F4F" stroke="none" /><path d="M 320 240 v 10" fill="none" stroke="#8D2323" stroke-width="1"/><text x="323" y="253" font-family="Verdana" font-size="7pt" fill="#8D2323" text-anchor="end" display="none" transform="rotate(270,323,253)" >1</text><text x="319" y="244" font-family="Verdana" font-size="7pt" fill="#8D2323" text-anchor="start" display="none" transform="rotate(270,319,244)" >1</text><circle cx="320" cy="247" r="3" stroke="#8D2323" fill="none" stroke-width="1" display="none" /><path d="M 317 250 L 320 253 L 323 250" fill="none" stroke="#8D2323" stroke-width="1"  display="none" /></g><g c_partid="part_pin" c_etype="pinpart"  c_show="show"  c_elec="0" c_spicepin="2" c_origin="320,270" id="rep64" c_rotation="270"><circle c_pindot="true" class="pindot" cx="320" cy="270" r="2" fill="#4F4F4F" stroke="none" /><path d="M 320 270 v -10" fill="none" stroke="#8D2323" stroke-width="1"/><text x="323" y="257" font-family="Verdana" font-size="7pt" fill="#8D2323" text-anchor="start" display="none" transform="rotate(270,323,257)" >2</text><text x="319" y="266" font-family="Verdana" font-size="7pt" fill="#8D2323" text-anchor="end" display="none" transform="rotate(270,319,266)" >2</text><circle cx="320" cy="263" r="3" stroke="#8D2323" fill="none" stroke-width="1" display="none" /><path d="M 323 260 L 320 257 L 317 260" fill="none" stroke="#8D2323" stroke-width="1"  display="none" /></g><g c_partid="part_annotation" id="rep65" c_origin="320,240" c_shapetype="group" c_etype="pinpart"><text x="320" y="240" fill="#000000" font-family="Verdana" font-size="2" font-weight=" " font-style=" " dominant-baseline=" " text-anchor="start" type="comment"  >SpiceOrder 1</text></g><g c_partid="part_annotation" id="rep66" c_origin="320,270" c_shapetype="group" c_etype="pinpart"><text x="320" y="270" fill="#000000" font-family="Verdana" font-size="2" font-weight=" " font-style=" " dominant-baseline=" " text-anchor="start" type="comment"  >SpiceOrder 2</text></g></g><g c_origin="435,360" c_para="package`MA04-1`" c_partid="part_import_gge68" id="gge68" c_shapetype="group" c_etype="pinpart" c_rotation="180"><g c_partid="part_annotation" id="rep69" ><text c_note="note_name" x="430" y="400" fill="#000000" font-family="Verdana" font-size="7" font-weight=" " font-style=" " dominant-baseline=" " text-anchor="start"  >IR_CON</text></g><g c_partid="part_annotation" id="rep70" ><text c_note="note_pre" x="430" y="337" fill="#000000" font-family="Verdana" font-size="7" font-weight=" " font-style=" " dominant-baseline=" " text-anchor="start"  >IR_CON</text></g><polyline points="420 330 440 330" stroke="#8D2323" id="rep71" stroke-width="2"   fill="none" stroke-linecap="round" /><polyline points="430 360 425 360" stroke="#8D2323" id="rep72" stroke-width="2"   fill="none" stroke-linecap="round" /><polyline points="430 350 425 350" stroke="#8D2323" id="rep73" stroke-width="2"   fill="none" stroke-linecap="round" /><polyline points="430 340 425 340" stroke="#8D2323" id="rep74" stroke-width="2"   fill="none" stroke-linecap="round" /><polyline points="440 380 440 330" stroke="#8D2323" id="rep75" stroke-width="2"   fill="none" stroke-linecap="round" /><polyline points="420 330 420 380" stroke="#8D2323" id="rep76" stroke-width="2"   fill="none" stroke-linecap="round" /><polyline points="440 380 420 380" stroke="#8D2323" id="rep77" stroke-width="2"   fill="none" stroke-linecap="round" /><polyline points="430 370 425 370" stroke="#8D2323" id="rep78" stroke-width="2"   fill="none" stroke-linecap="round" /><g c_partid="part_pin" c_etype="pinpart"  c_show="show"  c_elec="0" c_spicepin="1" c_origin="405,340" id="rep79" c_rotation="180"><circle c_pindot="true" class="pindot" cx="405" cy="340" r="2" fill="#4F4F4F" stroke="none" /><path d="M 405 340 h 20" fill="none" stroke="#8D2323" stroke-width="1"/><text x="428" y="343" font-family="Verdana" font-size="7pt" fill="#8D2323" text-anchor="start" display="none"  >1</text><text x="419" y="339" font-family="Verdana" font-size="7pt" fill="#8D2323" text-anchor="end"   >1</text><circle cx="422" cy="340" r="3" stroke="#8D2323" fill="none" stroke-width="1" display="none" /><path d="M 425 343 L 428 340 L 425 337" fill="none" stroke="#8D2323" stroke-width="1"  display="none" /></g><g c_partid="part_pin" c_etype="pinpart"  c_show="show"  c_elec="0" c_spicepin="2" c_origin="405,350" id="rep80" c_rotation="180"><circle c_pindot="true" class="pindot" cx="405" cy="350" r="2" fill="#4F4F4F" stroke="none" /><path d="M 405 350 h 20" fill="none" stroke="#8D2323" stroke-width="1"/><text x="428" y="353" font-family="Verdana" font-size="7pt" fill="#8D2323" text-anchor="start" display="none"  >2</text><text x="419" y="349" font-family="Verdana" font-size="7pt" fill="#8D2323" text-anchor="end"   >2</text><circle cx="422" cy="350" r="3" stroke="#8D2323" fill="none" stroke-width="1" display="none" /><path d="M 425 353 L 428 350 L 425 347" fill="none" stroke="#8D2323" stroke-width="1"  display="none" /></g><g c_partid="part_pin" c_etype="pinpart"  c_show="show"  c_elec="0" c_spicepin="3" c_origin="405,360" id="rep81" c_rotation="180"><circle c_pindot="true" class="pindot" cx="405" cy="360" r="2" fill="#4F4F4F" stroke="none" /><path d="M 405 360 h 20" fill="none" stroke="#8D2323" stroke-width="1"/><text x="428" y="363" font-family="Verdana" font-size="7pt" fill="#8D2323" text-anchor="start" display="none"  >3</text><text x="419" y="359" font-family="Verdana" font-size="7pt" fill="#8D2323" text-anchor="end"   >3</text><circle cx="422" cy="360" r="3" stroke="#8D2323" fill="none" stroke-width="1" display="none" /><path d="M 425 363 L 428 360 L 425 357" fill="none" stroke="#8D2323" stroke-width="1"  display="none" /></g><g c_partid="part_pin" c_etype="pinpart"  c_show="show"  c_elec="0" c_spicepin="4" c_origin="405,370" id="rep82" c_rotation="180"><circle c_pindot="true" class="pindot" cx="405" cy="370" r="2" fill="#4F4F4F" stroke="none" /><path d="M 405 370 h 20" fill="none" stroke="#8D2323" stroke-width="1"/><text x="428" y="373" font-family="Verdana" font-size="7pt" fill="#8D2323" text-anchor="start" display="none"  >4</text><text x="419" y="369" font-family="Verdana" font-size="7pt" fill="#8D2323" text-anchor="end"   >4</text><circle cx="422" cy="370" r="3" stroke="#8D2323" fill="none" stroke-width="1" display="none" /><path d="M 425 373 L 428 370 L 425 367" fill="none" stroke="#8D2323" stroke-width="1"  display="none" /></g></g><polyline c_etype="wire" c_shapetype="line" points="135 275 155 275 155 330 180 330" stroke="#238D23" id="rep83" stroke-width="1"   fill="none" stroke-linecap="round" /><g c_partid="part_netLabel_text" c_etype="pinpart" c_origin="155,330" id="rep86" c_shapetype="group"><circle c_pindot="true" class="pindot" cx="155" cy="330" r="1" fill="#000000" /><text x="155" y="330" font-family="Verdana" font-size="7pt" fill="#000000" text-anchor="start"  >IIN-</text></g><polyline c_etype="wire" c_shapetype="line" points="180 350 135 350 135 335" stroke="#238D23" id="rep87" stroke-width="1"   fill="none" stroke-linecap="round" /><g c_partid="part_netLabel_text" c_etype="pinpart" c_origin="155,350" id="rep89" c_shapetype="group"><circle c_pindot="true" class="pindot" cx="155" cy="350" r="1" fill="#000000" /><text x="155" y="350" font-family="Verdana" font-size="7pt" fill="#000000" text-anchor="start"  >IIN+</text></g><polyline c_etype="wire" c_shapetype="line" points="135 370 180 370" stroke="#238D23" id="rep90" stroke-width="1"   fill="none" stroke-linecap="round" /><g c_partid="part_netLabel_text" c_etype="pinpart" c_origin="145,370" id="rep91" c_shapetype="group"><circle c_pindot="true" class="pindot" cx="145" cy="370" r="1" fill="#000000" /><text x="145" y="370" font-family="Verdana" font-size="7pt" fill="#000000" text-anchor="start"  >RBIAS</text></g><polyline c_etype="wire" c_shapetype="line" points="135 410 135 450" stroke="#238D23" id="rep92" stroke-width="1"   fill="none" stroke-linecap="round" /><g c_partid="part_netLabel_text" c_etype="pinpart" c_origin="135,450" id="rep93" c_shapetype="group"><circle c_pindot="true" class="pindot" cx="135" cy="450" r="1" fill="#000000" /><text x="135" y="450" font-family="Verdana" font-size="7pt" fill="#000000" text-anchor="end" transform="rotate(90,135,450)" >GND</text></g><polyline c_etype="wire" c_shapetype="line" points="240 430 240 450" stroke="#238D23" id="rep94" stroke-width="1"   fill="none" stroke-linecap="round" /><g c_partid="part_netLabel_text" c_etype="pinpart" c_origin="240,450" id="rep95" c_shapetype="group"><circle c_pindot="true" class="pindot" cx="240" cy="450" r="1" fill="#000000" /><text x="240" y="450" font-family="Verdana" font-size="7pt" fill="#000000" text-anchor="end" transform="rotate(90,240,450)" >GND</text></g><polyline c_etype="wire" c_shapetype="line" points="260 430 260 450" stroke="#238D23" id="rep96" stroke-width="1"   fill="none" stroke-linecap="round" /><g c_partid="part_netLabel_text" c_etype="pinpart" c_origin="260,450" id="rep97" c_shapetype="group"><circle c_pindot="true" class="pindot" cx="260" cy="450" r="1" fill="#000000" /><text x="260" y="450" font-family="Verdana" font-size="7pt" fill="#000000" text-anchor="end" transform="rotate(90,260,450)" >GND</text></g><polyline c_etype="wire" c_shapetype="line" points="180 270 180 295" stroke="#238D23" id="rep98" stroke-width="1"   fill="none" stroke-linecap="round" /><g c_partid="part_netLabel_text" c_etype="pinpart" c_origin="180,295" id="rep99" c_shapetype="group"><circle c_pindot="true" class="pindot" cx="180" cy="295" r="1" fill="#000000" /><text x="180" y="295" font-family="Verdana" font-size="7pt" fill="#000000" text-anchor="end" transform="rotate(90,180,295)" >GND</text></g><polyline c_etype="wire" c_shapetype="line" points="320 270 320 295" stroke="#238D23" id="rep100" stroke-width="1"   fill="none" stroke-linecap="round" /><g c_partid="part_netLabel_text" c_etype="pinpart" c_origin="320,295" id="rep101" c_shapetype="group"><circle c_pindot="true" class="pindot" cx="320" cy="295" r="1" fill="#000000" /><text x="320" y="295" font-family="Verdana" font-size="7pt" fill="#000000" text-anchor="end" transform="rotate(90,320,295)" >GND</text></g><g c_partid="part_netLabel_text" c_etype="pinpart" c_origin="375,390" id="rep102" c_shapetype="group"><circle c_pindot="true" class="pindot" cx="375" cy="390" r="1" fill="#000000" /><text x="375" y="390" font-family="Verdana" font-size="7pt" fill="#000000" text-anchor="end" transform="rotate(90,375,390)" >GND</text></g><polyline c_etype="wire" c_shapetype="line" points="405 370 375 370 375 390" stroke="#238D23" id="rep103" stroke-width="1"   fill="none" stroke-linecap="round" /><polyline c_etype="wire" c_shapetype="line" points="240 270 240 240 180 240" stroke="#238D23" id="rep105" stroke-width="1"   fill="none" stroke-linecap="round" /><g c_partid="part_netLabel_text" c_etype="pinpart" c_origin="215,240" id="rep107" c_shapetype="group"><circle c_pindot="true" class="pindot" cx="215" cy="240" r="1" fill="#000000" /><text x="215" y="240" font-family="Verdana" font-size="7pt" fill="#000000" text-anchor="start"  >AVDD</text></g><polyline c_etype="wire" c_shapetype="line" points="320 340 365 340 365 350 405 350" stroke="#238D23" id="rep108" stroke-width="1"   fill="none" stroke-linecap="round" /><g c_partid="part_netLabel_text" c_etype="pinpart" c_origin="325,340" id="rep111" c_shapetype="group"><circle c_pindot="true" class="pindot" cx="325" cy="340" r="1" fill="#000000" /><text x="325" y="340" font-family="Verdana" font-size="7pt" fill="#000000" text-anchor="start"  >E</text></g><polyline c_etype="wire" c_shapetype="line" points="320 360 405 360" stroke="#238D23" id="rep112" stroke-width="1"   fill="none" stroke-linecap="round" /><g c_partid="part_netLabel_text" c_etype="pinpart" c_origin="325,360" id="rep113" c_shapetype="group"><circle c_pindot="true" class="pindot" cx="325" cy="360" r="1" fill="#000000" /><text x="325" y="360" font-family="Verdana" font-size="7pt" fill="#000000" text-anchor="start"  >D</text></g><g c_partid="part_netLabel_text" c_etype="pinpart" c_origin="375,330" id="rep114" c_shapetype="group"><circle c_pindot="true" class="pindot" cx="375" cy="330" r="1" fill="#000000" /><text x="375" y="330" font-family="Verdana" font-size="7pt" fill="#000000" text-anchor="end" transform="rotate(90,375,330)" >DVDD</text></g><polyline c_etype="wire" c_shapetype="line" points="405 340 375 340 375 335 375 330 375 300" stroke="#238D23" id="rep115" stroke-width="1"   fill="none" stroke-linecap="round" /><polyline c_etype="wire" c_shapetype="line" points="260 270 260 240 320 240" stroke="#238D23" id="rep119" stroke-width="1"   fill="none" stroke-linecap="round" /><polyline c_etype="wire" c_shapetype="line" points="320 240 380 240" stroke="#238D23" id="rep121" stroke-width="1"   fill="none" stroke-linecap="round" /><g c_partid="part_junction" c_etype="pinpart" c_origin="320,240" id="rep122" c_shapetype="group"><circle c_pindot="true" class="pindot" cx="320" cy="240" r="2" fill="#4F4F4F" stroke="none"/><circle cx="320" cy="240" r="3" fill="#238D23" stroke-width="1"/></g><g c_partid="part_netLabel_text" c_etype="pinpart" c_origin="355,240" id="rep123" c_shapetype="group"><circle c_pindot="true" class="pindot" cx="355" cy="240" r="1" fill="#000000" /><text x="355" y="240" font-family="Verdana" font-size="7pt" fill="#000000" text-anchor="start"  >DVDD</text></g></g></svg>