G04 ---------------------------- Layer name :BOTTOM LAYER*
G04 easyEDA 0.1*
G04 Scale: 100 percent, Rotated: No, Reflected: No *
G04 Dimensions in inches *
G04 leading zeros omitted , absolute positions ,2 integer and 4 * 
%FSLAX24Y24*%
%MOIN*%
G90*
G70D02*

%ADD11C,0.006000*%
%ADD12C,0.032000*%
%ADD13C,0.024000*%
%ADD14C,0.074000*%
%ADD16R,0.065000X0.065000*%
%ADD17C,0.065000*%
%ADD19C,0.060000*%
%ADD21C,0.125984*%
%ADD23C,0.055118*%

%LPD*%
G36*
G01X-584252Y668504D02*
G01X-584527Y668506D01*
G01X-584801Y668513D01*
G01X-585076Y668526D01*
G01X-585350Y668542D01*
G01X-585625Y668564D01*
G01X-585898Y668590D01*
G01X-586171Y668621D01*
G01X-586443Y668657D01*
G01X-586715Y668698D01*
G01X-586986Y668743D01*
G01X-587257Y668793D01*
G01X-587526Y668848D01*
G01X-587795Y668907D01*
G01X-588062Y668972D01*
G01X-588328Y669041D01*
G01X-588592Y669114D01*
G01X-588856Y669192D01*
G01X-589118Y669275D01*
G01X-589379Y669362D01*
G01X-589638Y669453D01*
G01X-589896Y669550D01*
G01X-590151Y669651D01*
G01X-590405Y669756D01*
G01X-590657Y669865D01*
G01X-590907Y669980D01*
G01X-591155Y670098D01*
G01X-591401Y670220D01*
G01X-591645Y670347D01*
G01X-591887Y670478D01*
G01X-592126Y670613D01*
G01X-592363Y670753D01*
G01X-592597Y670897D01*
G01X-592829Y671045D01*
G01X-593058Y671196D01*
G01X-593285Y671352D01*
G01X-593508Y671511D01*
G01X-593729Y671675D01*
G01X-593947Y671842D01*
G01X-594162Y672013D01*
G01X-594375Y672188D01*
G01X-594583Y672367D01*
G01X-594790Y672549D01*
G01X-594992Y672735D01*
G01X-595191Y672923D01*
G01X-595387Y673116D01*
G01X-595580Y673312D01*
G01X-595769Y673512D01*
G01X-595955Y673715D01*
G01X-596137Y673920D01*
G01X-596316Y674129D01*
G01X-596490Y674341D01*
G01X-596661Y674556D01*
G01X-596829Y674775D01*
G01X-596992Y674996D01*
G01X-597152Y675219D01*
G01X-597307Y675446D01*
G01X-597459Y675675D01*
G01X-597607Y675907D01*
G01X-597751Y676141D01*
G01X-597890Y676378D01*
G01X-598025Y676617D01*
G01X-598157Y676858D01*
G01X-598283Y677102D01*
G01X-598406Y677348D01*
G01X-598525Y677596D01*
G01X-598638Y677847D01*
G01X-598748Y678098D01*
G01X-598853Y678352D01*
G01X-598954Y678608D01*
G01X-599050Y678866D01*
G01X-599142Y679125D01*
G01X-599229Y679386D01*
G01X-599312Y679647D01*
G01X-599390Y679911D01*
G01X-599463Y680176D01*
G01X-599532Y680442D01*
G01X-599596Y680710D01*
G01X-599656Y680978D01*
G01X-599711Y681247D01*
G01X-599761Y681517D01*
G01X-599806Y681788D01*
G01X-599847Y682060D01*
G01X-599882Y682333D01*
G01X-599913Y682606D01*
G01X-599940Y682880D01*
G01X-599961Y683153D01*
G01X-599978Y683428D01*
G01X-599990Y683702D01*
G01X-599997Y683977D01*
G01X-600000Y684252D01*
G01X-599997Y684527D01*
G01X-599990Y684801D01*
G01X-599978Y685076D01*
G01X-599961Y685350D01*
G01X-599940Y685625D01*
G01X-599913Y685898D01*
G01X-599882Y686171D01*
G01X-599847Y686443D01*
G01X-599806Y686715D01*
G01X-599761Y686986D01*
G01X-599711Y687257D01*
G01X-599656Y687526D01*
G01X-599596Y687795D01*
G01X-599532Y688062D01*
G01X-599463Y688328D01*
G01X-599390Y688592D01*
G01X-599312Y688856D01*
G01X-599229Y689118D01*
G01X-599142Y689379D01*
G01X-599050Y689638D01*
G01X-598954Y689896D01*
G01X-598853Y690151D01*
G01X-598748Y690405D01*
G01X-598638Y690657D01*
G01X-598525Y690907D01*
G01X-598406Y691155D01*
G01X-598283Y691401D01*
G01X-598157Y691645D01*
G01X-598025Y691887D01*
G01X-597890Y692126D01*
G01X-597751Y692363D01*
G01X-597607Y692597D01*
G01X-597459Y692829D01*
G01X-597307Y693058D01*
G01X-597152Y693285D01*
G01X-596992Y693508D01*
G01X-596829Y693729D01*
G01X-596661Y693947D01*
G01X-596490Y694162D01*
G01X-596316Y694375D01*
G01X-596137Y694583D01*
G01X-595955Y694790D01*
G01X-595769Y694992D01*
G01X-595580Y695191D01*
G01X-595387Y695387D01*
G01X-595191Y695580D01*
G01X-594992Y695769D01*
G01X-594790Y695955D01*
G01X-594583Y696137D01*
G01X-594375Y696316D01*
G01X-594162Y696490D01*
G01X-593947Y696661D01*
G01X-593729Y696829D01*
G01X-593508Y696992D01*
G01X-593285Y697152D01*
G01X-593058Y697307D01*
G01X-592829Y697459D01*
G01X-592597Y697607D01*
G01X-592363Y697751D01*
G01X-592126Y697890D01*
G01X-591887Y698025D01*
G01X-591645Y698157D01*
G01X-591401Y698283D01*
G01X-591155Y698406D01*
G01X-590907Y698525D01*
G01X-590657Y698638D01*
G01X-590405Y698748D01*
G01X-590151Y698853D01*
G01X-589896Y698954D01*
G01X-589638Y699050D01*
G01X-589379Y699142D01*
G01X-589118Y699229D01*
G01X-588856Y699312D01*
G01X-588592Y699390D01*
G01X-588328Y699463D01*
G01X-588062Y699532D01*
G01X-587795Y699596D01*
G01X-587526Y699656D01*
G01X-587257Y699711D01*
G01X-586986Y699761D01*
G01X-586715Y699806D01*
G01X-586443Y699847D01*
G01X-586171Y699882D01*
G01X-585898Y699913D01*
G01X-585625Y699940D01*
G01X-585350Y699961D01*
G01X-585076Y699978D01*
G01X-584801Y699990D01*
G01X-584527Y699997D01*
G01X-584252Y700000D01*
G01X-583977Y699997D01*
G01X-583702Y699990D01*
G01X-583428Y699978D01*
G01X-583153Y699961D01*
G01X-582880Y699940D01*
G01X-582606Y699913D01*
G01X-582333Y699882D01*
G01X-582060Y699847D01*
G01X-581788Y699806D01*
G01X-581517Y699761D01*
G01X-581247Y699711D01*
G01X-580978Y699656D01*
G01X-580710Y699596D01*
G01X-580442Y699532D01*
G01X-580176Y699463D01*
G01X-579911Y699390D01*
G01X-579647Y699312D01*
G01X-579386Y699229D01*
G01X-579125Y699142D01*
G01X-578866Y699050D01*
G01X-578608Y698954D01*
G01X-578352Y698853D01*
G01X-578098Y698748D01*
G01X-577847Y698638D01*
G01X-577596Y698525D01*
G01X-577348Y698406D01*
G01X-577102Y698283D01*
G01X-576858Y698157D01*
G01X-576617Y698025D01*
G01X-576378Y697890D01*
G01X-576141Y697751D01*
G01X-575907Y697607D01*
G01X-575675Y697459D01*
G01X-575446Y697307D01*
G01X-575219Y697152D01*
G01X-574996Y696992D01*
G01X-574775Y696829D01*
G01X-574556Y696661D01*
G01X-574341Y696490D01*
G01X-574129Y696316D01*
G01X-573920Y696137D01*
G01X-573715Y695955D01*
G01X-573512Y695769D01*
G01X-573312Y695580D01*
G01X-573116Y695387D01*
G01X-572923Y695191D01*
G01X-572735Y694992D01*
G01X-572549Y694790D01*
G01X-572367Y694583D01*
G01X-572188Y694375D01*
G01X-572013Y694162D01*
G01X-571842Y693947D01*
G01X-571675Y693729D01*
G01X-571511Y693508D01*
G01X-571352Y693285D01*
G01X-571196Y693058D01*
G01X-571045Y692829D01*
G01X-570897Y692597D01*
G01X-570753Y692363D01*
G01X-570613Y692126D01*
G01X-570478Y691887D01*
G01X-570347Y691645D01*
G01X-570220Y691401D01*
G01X-570098Y691155D01*
G01X-569980Y690907D01*
G01X-569865Y690657D01*
G01X-569756Y690405D01*
G01X-569651Y690151D01*
G01X-569550Y689896D01*
G01X-569453Y689638D01*
G01X-569362Y689379D01*
G01X-569275Y689118D01*
G01X-569192Y688856D01*
G01X-569114Y688592D01*
G01X-569041Y688328D01*
G01X-568972Y688062D01*
G01X-568907Y687795D01*
G01X-568848Y687526D01*
G01X-568793Y687257D01*
G01X-568743Y686986D01*
G01X-568698Y686715D01*
G01X-568657Y686443D01*
G01X-568621Y686171D01*
G01X-568590Y685898D01*
G01X-568564Y685625D01*
G01X-568542Y685350D01*
G01X-568526Y685076D01*
G01X-568513Y684801D01*
G01X-568506Y684527D01*
G01X-568504Y684252D01*
G01X-568506Y683977D01*
G01X-568513Y683702D01*
G01X-568526Y683428D01*
G01X-568542Y683153D01*
G01X-568564Y682880D01*
G01X-568590Y682606D01*
G01X-568621Y682333D01*
G01X-568657Y682060D01*
G01X-568698Y681788D01*
G01X-568743Y681517D01*
G01X-568793Y681247D01*
G01X-568848Y680978D01*
G01X-568907Y680710D01*
G01X-568972Y680442D01*
G01X-569041Y680176D01*
G01X-569114Y679911D01*
G01X-569192Y679647D01*
G01X-569275Y679386D01*
G01X-569362Y679125D01*
G01X-569453Y678866D01*
G01X-569550Y678608D01*
G01X-569651Y678352D01*
G01X-569756Y678098D01*
G01X-569865Y677847D01*
G01X-569980Y677596D01*
G01X-570098Y677348D01*
G01X-570220Y677102D01*
G01X-570347Y676858D01*
G01X-570478Y676617D01*
G01X-570613Y676378D01*
G01X-570753Y676141D01*
G01X-570897Y675907D01*
G01X-571045Y675675D01*
G01X-571196Y675446D01*
G01X-571352Y675219D01*
G01X-571511Y674996D01*
G01X-571675Y674775D01*
G01X-571842Y674556D01*
G01X-572013Y674341D01*
G01X-572188Y674129D01*
G01X-572367Y673920D01*
G01X-572549Y673715D01*
G01X-572735Y673512D01*
G01X-572923Y673312D01*
G01X-573116Y673116D01*
G01X-573312Y672923D01*
G01X-573512Y672735D01*
G01X-573715Y672549D01*
G01X-573920Y672367D01*
G01X-574129Y672188D01*
G01X-574341Y672013D01*
G01X-574556Y671842D01*
G01X-574775Y671675D01*
G01X-574996Y671511D01*
G01X-575219Y671352D01*
G01X-575446Y671196D01*
G01X-575675Y671045D01*
G01X-575907Y670897D01*
G01X-576141Y670753D01*
G01X-576378Y670613D01*
G01X-576617Y670478D01*
G01X-576858Y670347D01*
G01X-577102Y670220D01*
G01X-577348Y670098D01*
G01X-577596Y669980D01*
G01X-577847Y669865D01*
G01X-578098Y669756D01*
G01X-578352Y669651D01*
G01X-578608Y669550D01*
G01X-578866Y669453D01*
G01X-579125Y669362D01*
G01X-579386Y669275D01*
G01X-579647Y669192D01*
G01X-579911Y669114D01*
G01X-580176Y669041D01*
G01X-580442Y668972D01*
G01X-580710Y668907D01*
G01X-580978Y668848D01*
G01X-581247Y668793D01*
G01X-581517Y668743D01*
G01X-581788Y668698D01*
G01X-582060Y668657D01*
G01X-582333Y668621D01*
G01X-582606Y668590D01*
G01X-582880Y668564D01*
G01X-583153Y668542D01*
G01X-583428Y668526D01*
G01X-583702Y668513D01*
G01X-583977Y668506D01*
G01X-584252Y668504D01*
G37*

%LPC*%
G36*
G01X-586177Y698981D02*
G01X-585914Y698981D01*
G01X-585914Y699244D01*
G01X-586077Y699244D01*
G01X-586108Y699239D01*
G01X-586136Y699225D01*
G01X-586158Y699203D01*
G01X-586172Y699175D01*
G01X-586177Y699144D01*
G01X-586177Y698981D01*
G37*
G36*
G01X-583077Y669260D02*
G01X-582914Y669260D01*
G01X-582914Y669522D01*
G01X-583177Y669522D01*
G01X-583177Y669360D01*
G01X-583172Y669328D01*
G01X-583158Y669301D01*
G01X-583136Y669278D01*
G01X-583108Y669265D01*
G01X-583077Y669260D01*
G37*
G36*
G01X-585783Y669261D02*
G01X-585720Y669261D01*
G01X-585657Y669270D01*
G01X-585597Y669289D01*
G01X-585540Y669316D01*
G01X-585487Y669352D01*
G01X-585440Y669396D01*
G01X-585401Y669445D01*
G01X-585369Y669500D01*
G01X-585346Y669560D01*
G01X-585332Y669621D01*
G01X-585327Y669685D01*
G01X-585332Y669748D01*
G01X-585346Y669810D01*
G01X-585369Y669869D01*
G01X-585375Y669878D01*
G01X-584722Y670531D01*
G01X-584709Y670547D01*
G01X-584698Y670564D01*
G01X-584690Y670583D01*
G01X-584686Y670602D01*
G01X-584684Y670623D01*
G01X-584684Y671853D01*
G01X-584667Y671866D01*
G01X-584636Y671900D01*
G01X-584613Y671940D01*
G01X-584599Y671983D01*
G01X-584594Y672029D01*
G01X-584599Y672075D01*
G01X-584613Y672118D01*
G01X-584636Y672158D01*
G01X-584667Y672192D01*
G01X-584704Y672220D01*
G01X-584746Y672238D01*
G01X-584781Y672246D01*
G01X-587182Y674647D01*
G01X-587182Y676642D01*
G01X-587165Y676655D01*
G01X-587134Y676688D01*
G01X-587111Y676728D01*
G01X-587097Y676772D01*
G01X-587092Y676818D01*
G01X-587097Y676863D01*
G01X-587111Y676907D01*
G01X-587134Y676947D01*
G01X-587165Y676981D01*
G01X-587202Y677008D01*
G01X-587244Y677027D01*
G01X-587263Y677031D01*
G01X-587263Y681558D01*
G01X-587246Y681571D01*
G01X-587215Y681605D01*
G01X-587192Y681645D01*
G01X-587178Y681688D01*
G01X-587173Y681734D01*
G01X-587178Y681780D01*
G01X-587192Y681823D01*
G01X-587215Y681863D01*
G01X-587246Y681897D01*
G01X-587249Y681900D01*
G01X-587249Y682793D01*
G01X-587232Y682806D01*
G01X-587201Y682840D01*
G01X-587178Y682880D01*
G01X-587164Y682924D01*
G01X-587159Y682970D01*
G01X-587164Y683015D01*
G01X-587178Y683059D01*
G01X-587201Y683099D01*
G01X-587232Y683133D01*
G01X-587269Y683160D01*
G01X-587311Y683179D01*
G01X-587356Y683188D01*
G01X-587402Y683188D01*
G01X-587447Y683179D01*
G01X-587489Y683160D01*
G01X-587526Y683133D01*
G01X-587557Y683099D01*
G01X-587580Y683059D01*
G01X-587594Y683015D01*
G01X-587599Y682970D01*
G01X-587594Y682924D01*
G01X-587580Y682880D01*
G01X-587557Y682840D01*
G01X-587526Y682806D01*
G01X-587509Y682793D01*
G01X-587509Y681920D01*
G01X-587540Y681897D01*
G01X-587571Y681863D01*
G01X-587594Y681823D01*
G01X-587608Y681780D01*
G01X-587613Y681734D01*
G01X-587608Y681688D01*
G01X-587594Y681645D01*
G01X-587571Y681605D01*
G01X-587540Y681571D01*
G01X-587523Y681558D01*
G01X-587523Y676899D01*
G01X-587521Y676881D01*
G01X-587527Y676863D01*
G01X-587532Y676818D01*
G01X-587527Y676772D01*
G01X-587513Y676728D01*
G01X-587490Y676688D01*
G01X-587459Y676655D01*
G01X-587442Y676642D01*
G01X-587442Y674610D01*
G01X-587783Y674952D01*
G01X-587783Y688619D01*
G01X-587785Y688640D01*
G01X-587789Y688659D01*
G01X-587797Y688678D01*
G01X-587808Y688696D01*
G01X-587821Y688711D01*
G01X-593821Y694710D01*
G01X-593815Y694720D01*
G01X-593792Y694779D01*
G01X-593778Y694841D01*
G01X-593773Y694904D01*
G01X-593778Y694967D01*
G01X-593792Y695029D01*
G01X-593815Y695088D01*
G01X-593847Y695143D01*
G01X-593886Y695193D01*
G01X-593933Y695236D01*
G01X-593986Y695272D01*
G01X-594043Y695300D01*
G01X-594103Y695318D01*
G01X-594166Y695328D01*
G01X-594230Y695328D01*
G01X-594232Y695327D01*
G01X-594078Y695481D01*
G01X-593895Y695481D01*
G01X-593873Y695426D01*
G01X-593842Y695371D01*
G01X-593802Y695322D01*
G01X-593756Y695278D01*
G01X-593703Y695242D01*
G01X-593646Y695215D01*
G01X-593585Y695196D01*
G01X-593522Y695187D01*
G01X-593459Y695187D01*
G01X-593396Y695196D01*
G01X-593336Y695215D01*
G01X-593278Y695242D01*
G01X-593226Y695278D01*
G01X-593179Y695322D01*
G01X-593140Y695371D01*
G01X-593108Y695426D01*
G01X-593085Y695486D01*
G01X-593071Y695547D01*
G01X-593066Y695611D01*
G01X-593071Y695674D01*
G01X-593085Y695736D01*
G01X-593108Y695795D01*
G01X-593140Y695850D01*
G01X-593179Y695900D01*
G01X-593226Y695943D01*
G01X-593278Y695979D01*
G01X-593336Y696006D01*
G01X-593396Y696025D01*
G01X-593459Y696035D01*
G01X-593522Y696035D01*
G01X-593585Y696025D01*
G01X-593646Y696006D01*
G01X-593703Y695979D01*
G01X-593756Y695943D01*
G01X-593802Y695900D01*
G01X-593842Y695850D01*
G01X-593873Y695795D01*
G01X-593895Y695741D01*
G01X-594132Y695741D01*
G01X-594152Y695739D01*
G01X-594172Y695735D01*
G01X-594191Y695726D01*
G01X-594208Y695716D01*
G01X-594223Y695702D01*
G01X-597016Y692910D01*
G01X-597030Y692895D01*
G01X-597040Y692877D01*
G01X-597048Y692858D01*
G01X-597053Y692838D01*
G01X-597055Y692818D01*
G01X-597055Y687699D01*
G01X-598625Y686129D01*
G01X-598664Y686147D01*
G01X-598725Y686166D01*
G01X-598787Y686176D01*
G01X-598851Y686176D01*
G01X-598913Y686166D01*
G01X-598974Y686147D01*
G01X-599031Y686120D01*
G01X-599084Y686084D01*
G01X-599131Y686041D01*
G01X-599170Y685991D01*
G01X-599202Y685936D01*
G01X-599225Y685877D01*
G01X-599239Y685815D01*
G01X-599244Y685752D01*
G01X-599239Y685688D01*
G01X-599225Y685627D01*
G01X-599202Y685567D01*
G01X-599170Y685512D01*
G01X-599131Y685463D01*
G01X-599084Y685420D01*
G01X-599031Y685383D01*
G01X-598974Y685356D01*
G01X-598913Y685337D01*
G01X-598851Y685328D01*
G01X-598787Y685328D01*
G01X-598725Y685337D01*
G01X-598664Y685356D01*
G01X-598625Y685375D01*
G01X-598434Y685183D01*
G01X-598434Y684931D01*
G01X-598436Y684936D01*
G01X-598468Y684991D01*
G01X-598507Y685041D01*
G01X-598554Y685084D01*
G01X-598607Y685120D01*
G01X-598664Y685147D01*
G01X-598725Y685166D01*
G01X-598787Y685176D01*
G01X-598851Y685176D01*
G01X-598913Y685166D01*
G01X-598974Y685147D01*
G01X-599031Y685120D01*
G01X-599084Y685084D01*
G01X-599131Y685041D01*
G01X-599170Y684991D01*
G01X-599202Y684936D01*
G01X-599225Y684877D01*
G01X-599239Y684815D01*
G01X-599244Y684752D01*
G01X-599239Y684688D01*
G01X-599225Y684627D01*
G01X-599202Y684567D01*
G01X-599170Y684512D01*
G01X-599131Y684463D01*
G01X-599084Y684420D01*
G01X-599031Y684383D01*
G01X-598974Y684356D01*
G01X-598913Y684337D01*
G01X-598851Y684328D01*
G01X-598787Y684328D01*
G01X-598725Y684337D01*
G01X-598664Y684356D01*
G01X-598607Y684383D01*
G01X-598554Y684420D01*
G01X-598507Y684463D01*
G01X-598468Y684512D01*
G01X-598436Y684567D01*
G01X-598434Y684573D01*
G01X-598434Y683931D01*
G01X-598436Y683936D01*
G01X-598468Y683991D01*
G01X-598507Y684041D01*
G01X-598554Y684084D01*
G01X-598607Y684120D01*
G01X-598664Y684147D01*
G01X-598725Y684166D01*
G01X-598787Y684176D01*
G01X-598851Y684176D01*
G01X-598913Y684166D01*
G01X-598974Y684147D01*
G01X-599031Y684120D01*
G01X-599084Y684084D01*
G01X-599131Y684041D01*
G01X-599170Y683991D01*
G01X-599202Y683936D01*
G01X-599225Y683877D01*
G01X-599239Y683815D01*
G01X-599244Y683752D01*
G01X-599239Y683688D01*
G01X-599225Y683627D01*
G01X-599202Y683567D01*
G01X-599170Y683512D01*
G01X-599131Y683463D01*
G01X-599084Y683420D01*
G01X-599031Y683383D01*
G01X-598974Y683356D01*
G01X-598913Y683337D01*
G01X-598851Y683328D01*
G01X-598787Y683328D01*
G01X-598725Y683337D01*
G01X-598664Y683356D01*
G01X-598607Y683383D01*
G01X-598554Y683420D01*
G01X-598507Y683463D01*
G01X-598468Y683512D01*
G01X-598436Y683567D01*
G01X-598434Y683573D01*
G01X-598434Y683157D01*
G01X-598435Y683158D01*
G01X-598463Y683172D01*
G01X-598494Y683177D01*
G01X-598657Y683177D01*
G01X-598657Y682914D01*
G01X-598434Y682914D01*
G01X-598434Y682590D01*
G01X-598657Y682590D01*
G01X-598657Y682327D01*
G01X-598494Y682327D01*
G01X-598463Y682332D01*
G01X-598435Y682346D01*
G01X-598434Y682347D01*
G01X-598434Y677706D01*
G01X-598432Y677685D01*
G01X-598428Y677666D01*
G01X-598420Y677647D01*
G01X-598409Y677629D01*
G01X-598396Y677614D01*
G01X-595988Y675207D01*
G01X-595993Y675197D01*
G01X-596017Y675138D01*
G01X-596031Y675076D01*
G01X-596036Y675013D01*
G01X-596031Y674950D01*
G01X-596017Y674888D01*
G01X-595993Y674828D01*
G01X-595962Y674773D01*
G01X-595922Y674724D01*
G01X-595876Y674681D01*
G01X-595823Y674645D01*
G01X-595766Y674617D01*
G01X-595705Y674598D01*
G01X-595642Y674589D01*
G01X-595579Y674589D01*
G01X-595516Y674598D01*
G01X-595456Y674617D01*
G01X-595398Y674645D01*
G01X-595346Y674681D01*
G01X-595299Y674724D01*
G01X-595260Y674773D01*
G01X-595228Y674828D01*
G01X-595205Y674888D01*
G01X-595191Y674950D01*
G01X-595186Y675013D01*
G01X-595191Y675076D01*
G01X-595205Y675138D01*
G01X-595228Y675197D01*
G01X-595260Y675252D01*
G01X-595299Y675302D01*
G01X-595346Y675345D01*
G01X-595398Y675381D01*
G01X-595456Y675408D01*
G01X-595516Y675427D01*
G01X-595579Y675437D01*
G01X-595642Y675437D01*
G01X-595705Y675427D01*
G01X-595766Y675408D01*
G01X-595805Y675390D01*
G01X-598174Y677759D01*
G01X-598174Y685237D01*
G01X-598176Y685257D01*
G01X-598180Y685277D01*
G01X-598188Y685296D01*
G01X-598199Y685313D01*
G01X-598212Y685328D01*
G01X-598442Y685558D01*
G01X-598436Y685567D01*
G01X-598413Y685627D01*
G01X-598399Y685688D01*
G01X-598394Y685752D01*
G01X-598399Y685815D01*
G01X-598413Y685877D01*
G01X-598436Y685936D01*
G01X-598442Y685946D01*
G01X-596833Y687554D01*
G01X-596820Y687569D01*
G01X-596809Y687587D01*
G01X-596801Y687606D01*
G01X-596796Y687625D01*
G01X-596795Y687646D01*
G01X-596795Y692765D01*
G01X-596141Y693418D01*
G01X-596027Y693304D01*
G01X-596027Y693305D01*
G01X-595841Y693490D01*
G01X-595955Y693603D01*
G01X-595726Y693833D01*
G01X-595612Y693719D01*
G01X-595426Y693905D01*
G01X-595540Y694019D01*
G01X-595327Y694232D01*
G01X-595330Y694197D01*
G01X-595325Y694133D01*
G01X-595311Y694072D01*
G01X-595287Y694012D01*
G01X-595256Y693957D01*
G01X-595216Y693908D01*
G01X-595170Y693865D01*
G01X-595117Y693828D01*
G01X-595060Y693801D01*
G01X-594999Y693782D01*
G01X-594936Y693773D01*
G01X-594873Y693773D01*
G01X-594810Y693782D01*
G01X-594750Y693801D01*
G01X-594711Y693820D01*
G01X-590665Y689773D01*
G01X-590665Y674931D01*
G01X-590682Y674918D01*
G01X-590712Y674884D01*
G01X-590736Y674844D01*
G01X-590750Y674800D01*
G01X-590755Y674755D01*
G01X-590750Y674709D01*
G01X-590736Y674665D01*
G01X-590712Y674625D01*
G01X-590682Y674591D01*
G01X-590645Y674564D01*
G01X-590602Y674545D01*
G01X-590557Y674536D01*
G01X-590512Y674536D01*
G01X-590467Y674545D01*
G01X-590425Y674564D01*
G01X-590387Y674591D01*
G01X-590357Y674625D01*
G01X-590333Y674665D01*
G01X-590320Y674709D01*
G01X-590315Y674755D01*
G01X-590320Y674800D01*
G01X-590333Y674844D01*
G01X-590357Y674884D01*
G01X-590387Y674918D01*
G01X-590405Y674931D01*
G01X-590405Y689827D01*
G01X-590406Y689847D01*
G01X-590411Y689867D01*
G01X-590419Y689886D01*
G01X-590430Y689903D01*
G01X-590443Y689918D01*
G01X-594527Y694003D01*
G01X-594522Y694012D01*
G01X-594498Y694072D01*
G01X-594485Y694133D01*
G01X-594480Y694197D01*
G01X-594485Y694260D01*
G01X-594498Y694322D01*
G01X-594522Y694381D01*
G01X-594553Y694436D01*
G01X-594593Y694486D01*
G01X-594640Y694529D01*
G01X-594692Y694565D01*
G01X-594750Y694592D01*
G01X-594810Y694611D01*
G01X-594873Y694621D01*
G01X-594936Y694621D01*
G01X-594939Y694620D01*
G01X-594620Y694939D01*
G01X-594623Y694904D01*
G01X-594618Y694841D01*
G01X-594604Y694779D01*
G01X-594581Y694720D01*
G01X-594549Y694665D01*
G01X-594510Y694615D01*
G01X-594463Y694572D01*
G01X-594410Y694536D01*
G01X-594353Y694508D01*
G01X-594292Y694490D01*
G01X-594230Y694480D01*
G01X-594166Y694480D01*
G01X-594103Y694490D01*
G01X-594043Y694508D01*
G01X-594004Y694527D01*
G01X-588043Y688566D01*
G01X-588043Y674898D01*
G01X-588041Y674877D01*
G01X-588037Y674858D01*
G01X-588029Y674839D01*
G01X-588018Y674822D01*
G01X-588005Y674806D01*
G01X-586771Y673571D01*
G01X-586774Y673538D01*
G01X-586769Y673492D01*
G01X-586755Y673448D01*
G01X-586732Y673408D01*
G01X-586701Y673375D01*
G01X-586664Y673347D01*
G01X-586622Y673328D01*
G01X-586577Y673319D01*
G01X-586531Y673319D01*
G01X-586486Y673328D01*
G01X-586444Y673347D01*
G01X-586407Y673375D01*
G01X-586376Y673408D01*
G01X-586353Y673448D01*
G01X-586352Y673451D01*
G01X-585016Y672115D01*
G01X-585029Y672075D01*
G01X-585034Y672029D01*
G01X-585029Y671983D01*
G01X-585015Y671940D01*
G01X-584992Y671900D01*
G01X-584961Y671866D01*
G01X-584944Y671853D01*
G01X-584944Y670677D01*
G01X-585558Y670062D01*
G01X-585597Y670080D01*
G01X-585657Y670099D01*
G01X-585720Y670108D01*
G01X-585783Y670108D01*
G01X-585846Y670099D01*
G01X-585907Y670080D01*
G01X-585964Y670053D01*
G01X-586017Y670017D01*
G01X-586063Y669973D01*
G01X-586103Y669924D01*
G01X-586135Y669869D01*
G01X-586158Y669810D01*
G01X-586172Y669748D01*
G01X-586177Y669685D01*
G01X-586172Y669621D01*
G01X-586158Y669560D01*
G01X-586135Y669500D01*
G01X-586103Y669445D01*
G01X-586063Y669396D01*
G01X-586017Y669352D01*
G01X-585964Y669316D01*
G01X-585907Y669289D01*
G01X-585846Y669270D01*
G01X-585783Y669261D01*
G37*
G36*
G01X-584783Y669261D02*
G01X-584720Y669261D01*
G01X-584657Y669270D01*
G01X-584597Y669289D01*
G01X-584540Y669316D01*
G01X-584487Y669352D01*
G01X-584440Y669396D01*
G01X-584401Y669445D01*
G01X-584369Y669500D01*
G01X-584346Y669560D01*
G01X-584332Y669621D01*
G01X-584327Y669685D01*
G01X-584332Y669748D01*
G01X-584346Y669810D01*
G01X-584369Y669869D01*
G01X-584401Y669924D01*
G01X-584440Y669973D01*
G01X-584487Y670017D01*
G01X-584540Y670053D01*
G01X-584597Y670080D01*
G01X-584657Y670099D01*
G01X-584720Y670108D01*
G01X-584783Y670108D01*
G01X-584846Y670099D01*
G01X-584907Y670080D01*
G01X-584964Y670053D01*
G01X-585017Y670017D01*
G01X-585063Y669973D01*
G01X-585103Y669924D01*
G01X-585135Y669869D01*
G01X-585158Y669810D01*
G01X-585172Y669748D01*
G01X-585177Y669685D01*
G01X-585172Y669621D01*
G01X-585158Y669560D01*
G01X-585135Y669500D01*
G01X-585103Y669445D01*
G01X-585063Y669396D01*
G01X-585017Y669352D01*
G01X-584964Y669316D01*
G01X-584907Y669289D01*
G01X-584846Y669270D01*
G01X-584783Y669261D01*
G37*
G36*
G01X-583783Y669261D02*
G01X-583720Y669261D01*
G01X-583657Y669270D01*
G01X-583597Y669289D01*
G01X-583540Y669316D01*
G01X-583487Y669352D01*
G01X-583440Y669396D01*
G01X-583401Y669445D01*
G01X-583369Y669500D01*
G01X-583346Y669560D01*
G01X-583332Y669621D01*
G01X-583327Y669685D01*
G01X-583332Y669748D01*
G01X-583346Y669810D01*
G01X-583369Y669869D01*
G01X-583401Y669924D01*
G01X-583440Y669973D01*
G01X-583487Y670017D01*
G01X-583540Y670053D01*
G01X-583597Y670080D01*
G01X-583657Y670099D01*
G01X-583720Y670108D01*
G01X-583783Y670108D01*
G01X-583846Y670099D01*
G01X-583907Y670080D01*
G01X-583964Y670053D01*
G01X-584017Y670017D01*
G01X-584063Y669973D01*
G01X-584103Y669924D01*
G01X-584135Y669869D01*
G01X-584158Y669810D01*
G01X-584172Y669748D01*
G01X-584177Y669685D01*
G01X-584172Y669621D01*
G01X-584158Y669560D01*
G01X-584135Y669500D01*
G01X-584103Y669445D01*
G01X-584063Y669396D01*
G01X-584017Y669352D01*
G01X-583964Y669316D01*
G01X-583907Y669289D01*
G01X-583846Y669270D01*
G01X-583783Y669261D01*
G37*
G36*
G01X-582590Y669847D02*
G01X-582327Y669847D01*
G01X-582327Y670010D01*
G01X-582332Y670041D01*
G01X-582346Y670068D01*
G01X-582368Y670091D01*
G01X-582396Y670105D01*
G01X-582427Y670110D01*
G01X-582590Y670110D01*
G01X-582590Y669847D01*
G37*
G36*
G01X-583177Y669847D02*
G01X-582914Y669847D01*
G01X-582914Y670110D01*
G01X-583077Y670110D01*
G01X-583108Y670105D01*
G01X-583136Y670091D01*
G01X-583158Y670068D01*
G01X-583172Y670041D01*
G01X-583177Y670010D01*
G01X-583177Y669847D01*
G37*
G36*
G01X-585590Y698981D02*
G01X-585327Y698981D01*
G01X-585327Y699144D01*
G01X-585332Y699175D01*
G01X-585346Y699203D01*
G01X-585368Y699225D01*
G01X-585396Y699239D01*
G01X-585427Y699244D01*
G01X-585590Y699244D01*
G01X-585590Y698981D01*
G37*
G36*
G01X-580700Y670530D02*
G01X-580633Y670535D01*
G01X-580567Y670548D01*
G01X-580505Y670572D01*
G01X-580446Y670604D01*
G01X-580392Y670645D01*
G01X-580345Y670692D01*
G01X-580304Y670746D01*
G01X-580272Y670805D01*
G01X-580248Y670867D01*
G01X-580235Y670933D01*
G01X-580230Y671000D01*
G01X-580235Y671066D01*
G01X-580248Y671132D01*
G01X-580272Y671195D01*
G01X-580304Y671253D01*
G01X-580345Y671307D01*
G01X-580392Y671355D01*
G01X-580446Y671395D01*
G01X-580505Y671427D01*
G01X-580567Y671451D01*
G01X-580633Y671465D01*
G01X-580700Y671470D01*
G01X-580766Y671465D01*
G01X-580832Y671451D01*
G01X-580895Y671427D01*
G01X-580953Y671395D01*
G01X-581007Y671355D01*
G01X-581055Y671307D01*
G01X-581095Y671253D01*
G01X-581127Y671195D01*
G01X-581151Y671132D01*
G01X-581165Y671066D01*
G01X-581170Y671000D01*
G01X-581165Y670933D01*
G01X-581151Y670867D01*
G01X-581127Y670805D01*
G01X-581095Y670746D01*
G01X-581055Y670692D01*
G01X-581007Y670645D01*
G01X-580953Y670604D01*
G01X-580895Y670572D01*
G01X-580832Y670548D01*
G01X-580766Y670535D01*
G01X-580700Y670530D01*
G37*
G36*
G01X-579992Y671237D02*
G01X-579925Y671242D01*
G01X-579860Y671256D01*
G01X-579817Y671271D01*
G01X-579992Y671446D01*
G01X-580166Y671271D01*
G01X-580124Y671256D01*
G01X-580058Y671242D01*
G01X-579992Y671237D01*
G37*
G36*
G01X-579556Y671532D02*
G01X-579541Y671575D01*
G01X-579527Y671640D01*
G01X-579522Y671707D01*
G01X-579527Y671773D01*
G01X-579541Y671839D01*
G01X-579556Y671881D01*
G01X-579731Y671707D01*
G01X-579556Y671532D01*
G37*
G36*
G01X-580427Y671532D02*
G01X-580253Y671707D01*
G01X-580427Y671881D01*
G01X-580443Y671839D01*
G01X-580457Y671773D01*
G01X-580462Y671707D01*
G01X-580457Y671640D01*
G01X-580443Y671575D01*
G01X-580427Y671532D01*
G37*
G36*
G01X-579285Y671945D02*
G01X-579218Y671950D01*
G01X-579153Y671963D01*
G01X-579090Y671987D01*
G01X-579031Y672019D01*
G01X-578977Y672060D01*
G01X-578930Y672107D01*
G01X-578890Y672161D01*
G01X-578857Y672220D01*
G01X-578834Y672282D01*
G01X-578820Y672348D01*
G01X-578815Y672415D01*
G01X-578820Y672481D01*
G01X-578826Y672507D01*
G01X-578817Y672506D01*
G01X-578797Y672504D01*
G01X-577137Y672504D01*
G01X-577116Y672506D01*
G01X-577097Y672510D01*
G01X-577078Y672518D01*
G01X-577060Y672529D01*
G01X-577045Y672542D01*
G01X-574946Y674642D01*
G01X-573860Y674642D01*
G01X-573864Y674639D01*
G01X-573911Y674596D01*
G01X-573950Y674546D01*
G01X-573982Y674491D01*
G01X-574005Y674432D01*
G01X-574019Y674370D01*
G01X-574024Y674307D01*
G01X-574019Y674243D01*
G01X-574005Y674182D01*
G01X-573982Y674122D01*
G01X-573950Y674067D01*
G01X-573911Y674018D01*
G01X-573864Y673975D01*
G01X-573811Y673938D01*
G01X-573754Y673911D01*
G01X-573693Y673892D01*
G01X-573631Y673883D01*
G01X-573567Y673883D01*
G01X-573505Y673892D01*
G01X-573444Y673911D01*
G01X-573387Y673938D01*
G01X-573334Y673975D01*
G01X-573287Y674018D01*
G01X-573248Y674067D01*
G01X-573216Y674122D01*
G01X-573193Y674182D01*
G01X-573179Y674243D01*
G01X-573174Y674307D01*
G01X-573179Y674370D01*
G01X-573181Y674378D01*
G01X-573137Y674335D01*
G01X-573122Y674322D01*
G01X-573105Y674311D01*
G01X-573086Y674303D01*
G01X-573066Y674298D01*
G01X-573046Y674297D01*
G01X-572868Y674297D01*
G01X-572847Y674298D01*
G01X-572828Y674303D01*
G01X-572809Y674311D01*
G01X-572791Y674322D01*
G01X-572776Y674335D01*
G01X-572196Y674915D01*
G01X-572183Y674930D01*
G01X-572172Y674948D01*
G01X-572164Y674967D01*
G01X-572160Y674986D01*
G01X-572158Y675007D01*
G01X-572158Y677275D01*
G01X-569160Y680273D01*
G01X-569147Y680288D01*
G01X-569136Y680306D01*
G01X-569128Y680325D01*
G01X-569123Y680344D01*
G01X-569122Y680365D01*
G01X-569122Y684319D01*
G01X-569123Y684340D01*
G01X-569128Y684359D01*
G01X-569136Y684378D01*
G01X-569147Y684396D01*
G01X-569160Y684411D01*
G01X-569307Y684558D01*
G01X-569302Y684567D01*
G01X-569279Y684627D01*
G01X-569265Y684688D01*
G01X-569260Y684752D01*
G01X-569265Y684815D01*
G01X-569279Y684877D01*
G01X-569302Y684936D01*
G01X-569334Y684991D01*
G01X-569373Y685041D01*
G01X-569420Y685084D01*
G01X-569473Y685120D01*
G01X-569530Y685147D01*
G01X-569591Y685166D01*
G01X-569653Y685176D01*
G01X-569717Y685176D01*
G01X-569780Y685166D01*
G01X-569840Y685147D01*
G01X-569897Y685120D01*
G01X-569950Y685084D01*
G01X-569997Y685041D01*
G01X-570036Y684991D01*
G01X-570068Y684936D01*
G01X-570091Y684877D01*
G01X-570105Y684815D01*
G01X-570110Y684752D01*
G01X-570105Y684688D01*
G01X-570091Y684627D01*
G01X-570068Y684567D01*
G01X-570036Y684512D01*
G01X-569997Y684463D01*
G01X-569950Y684420D01*
G01X-569897Y684383D01*
G01X-569840Y684356D01*
G01X-569780Y684337D01*
G01X-569717Y684328D01*
G01X-569653Y684328D01*
G01X-569591Y684337D01*
G01X-569530Y684356D01*
G01X-569491Y684375D01*
G01X-569382Y684265D01*
G01X-569382Y684048D01*
G01X-569420Y684084D01*
G01X-569473Y684120D01*
G01X-569530Y684147D01*
G01X-569591Y684166D01*
G01X-569653Y684176D01*
G01X-569717Y684176D01*
G01X-569780Y684166D01*
G01X-569840Y684147D01*
G01X-569897Y684120D01*
G01X-569950Y684084D01*
G01X-569997Y684041D01*
G01X-570036Y683991D01*
G01X-570068Y683936D01*
G01X-570091Y683877D01*
G01X-570105Y683815D01*
G01X-570110Y683752D01*
G01X-570105Y683688D01*
G01X-570091Y683627D01*
G01X-570068Y683567D01*
G01X-570036Y683512D01*
G01X-569997Y683463D01*
G01X-569950Y683420D01*
G01X-569897Y683383D01*
G01X-569840Y683356D01*
G01X-569780Y683337D01*
G01X-569717Y683328D01*
G01X-569653Y683328D01*
G01X-569591Y683337D01*
G01X-569530Y683356D01*
G01X-569473Y683383D01*
G01X-569420Y683420D01*
G01X-569382Y683455D01*
G01X-569382Y683048D01*
G01X-569420Y683084D01*
G01X-569473Y683120D01*
G01X-569530Y683147D01*
G01X-569591Y683166D01*
G01X-569653Y683176D01*
G01X-569717Y683176D01*
G01X-569780Y683166D01*
G01X-569840Y683147D01*
G01X-569879Y683129D01*
G01X-572763Y686013D01*
G01X-572763Y693087D01*
G01X-572738Y693095D01*
G01X-572681Y693122D01*
G01X-572628Y693158D01*
G01X-572581Y693202D01*
G01X-572542Y693251D01*
G01X-572510Y693306D01*
G01X-572487Y693366D01*
G01X-572473Y693427D01*
G01X-572468Y693491D01*
G01X-572473Y693554D01*
G01X-572487Y693616D01*
G01X-572510Y693675D01*
G01X-572542Y693730D01*
G01X-572581Y693780D01*
G01X-572628Y693823D01*
G01X-572681Y693859D01*
G01X-572738Y693886D01*
G01X-572798Y693905D01*
G01X-572861Y693915D01*
G01X-572925Y693915D01*
G01X-572987Y693905D01*
G01X-573048Y693886D01*
G01X-573105Y693859D01*
G01X-573158Y693823D01*
G01X-573205Y693780D01*
G01X-573244Y693730D01*
G01X-573276Y693675D01*
G01X-573299Y693616D01*
G01X-573313Y693554D01*
G01X-573318Y693491D01*
G01X-573313Y693427D01*
G01X-573299Y693366D01*
G01X-573276Y693306D01*
G01X-573244Y693251D01*
G01X-573205Y693202D01*
G01X-573158Y693158D01*
G01X-573105Y693122D01*
G01X-573048Y693095D01*
G01X-573023Y693087D01*
G01X-573023Y685960D01*
G01X-573021Y685939D01*
G01X-573017Y685920D01*
G01X-573008Y685901D01*
G01X-572998Y685883D01*
G01X-572985Y685868D01*
G01X-570062Y682946D01*
G01X-570068Y682936D01*
G01X-570091Y682877D01*
G01X-570105Y682815D01*
G01X-570110Y682752D01*
G01X-570105Y682688D01*
G01X-570091Y682627D01*
G01X-570068Y682567D01*
G01X-570062Y682558D01*
G01X-572716Y679905D01*
G01X-572729Y679890D01*
G01X-572740Y679872D01*
G01X-572748Y679853D01*
G01X-572752Y679833D01*
G01X-572754Y679813D01*
G01X-572754Y677966D01*
G01X-572771Y677953D01*
G01X-572802Y677919D01*
G01X-572825Y677879D01*
G01X-572839Y677835D01*
G01X-572844Y677790D01*
G01X-572839Y677744D01*
G01X-572825Y677700D01*
G01X-572802Y677660D01*
G01X-572771Y677626D01*
G01X-572734Y677599D01*
G01X-572692Y677580D01*
G01X-572647Y677571D01*
G01X-572601Y677571D01*
G01X-572556Y677580D01*
G01X-572514Y677599D01*
G01X-572477Y677626D01*
G01X-572446Y677660D01*
G01X-572423Y677700D01*
G01X-572409Y677744D01*
G01X-572404Y677790D01*
G01X-572409Y677835D01*
G01X-572423Y677879D01*
G01X-572446Y677919D01*
G01X-572477Y677953D01*
G01X-572494Y677966D01*
G01X-572494Y679760D01*
G01X-569879Y682375D01*
G01X-569840Y682356D01*
G01X-569780Y682337D01*
G01X-569717Y682328D01*
G01X-569653Y682328D01*
G01X-569591Y682337D01*
G01X-569530Y682356D01*
G01X-569473Y682383D01*
G01X-569420Y682420D01*
G01X-569382Y682455D01*
G01X-569382Y680418D01*
G01X-572380Y677420D01*
G01X-572393Y677405D01*
G01X-572404Y677387D01*
G01X-572412Y677368D01*
G01X-572416Y677348D01*
G01X-572418Y677328D01*
G01X-572418Y675141D01*
G01X-572477Y675200D01*
G01X-572663Y675014D01*
G01X-572563Y674915D01*
G01X-572792Y674686D01*
G01X-572892Y674785D01*
G01X-573056Y674621D01*
G01X-573285Y674850D01*
G01X-573121Y675014D01*
G01X-573306Y675200D01*
G01X-573422Y675084D01*
G01X-573440Y675059D01*
G01X-573450Y675029D01*
G01X-573450Y674998D01*
G01X-573440Y674968D01*
G01X-573422Y674943D01*
G01X-573380Y674901D01*
G01X-573391Y674902D01*
G01X-574999Y674902D01*
G01X-575020Y674900D01*
G01X-575039Y674896D01*
G01X-575058Y674887D01*
G01X-575076Y674877D01*
G01X-575091Y674863D01*
G01X-577190Y672764D01*
G01X-578274Y672764D01*
G01X-578270Y672767D01*
G01X-578223Y672814D01*
G01X-578182Y672868D01*
G01X-578150Y672927D01*
G01X-578127Y672990D01*
G01X-578113Y673055D01*
G01X-578108Y673122D01*
G01X-578113Y673188D01*
G01X-578127Y673254D01*
G01X-578150Y673317D01*
G01X-578182Y673376D01*
G01X-578223Y673430D01*
G01X-578270Y673477D01*
G01X-578324Y673517D01*
G01X-578383Y673550D01*
G01X-578446Y673573D01*
G01X-578511Y673587D01*
G01X-578578Y673592D01*
G01X-578645Y673587D01*
G01X-578710Y673573D01*
G01X-578773Y673550D01*
G01X-578832Y673517D01*
G01X-578886Y673477D01*
G01X-578933Y673430D01*
G01X-578973Y673376D01*
G01X-579006Y673317D01*
G01X-579029Y673254D01*
G01X-579043Y673188D01*
G01X-579048Y673122D01*
G01X-579043Y673055D01*
G01X-579032Y673004D01*
G01X-579038Y673005D01*
G01X-579602Y673005D01*
G01X-579622Y673003D01*
G01X-579642Y672998D01*
G01X-579661Y672990D01*
G01X-579678Y672980D01*
G01X-579693Y672966D01*
G01X-579848Y672811D01*
G01X-579859Y672813D01*
G01X-579905Y672813D01*
G01X-579950Y672804D01*
G01X-579992Y672785D01*
G01X-580029Y672758D01*
G01X-580060Y672724D01*
G01X-580083Y672684D01*
G01X-580097Y672640D01*
G01X-580102Y672595D01*
G01X-580097Y672549D01*
G01X-580083Y672505D01*
G01X-580060Y672465D01*
G01X-580029Y672431D01*
G01X-579992Y672404D01*
G01X-579950Y672385D01*
G01X-579905Y672376D01*
G01X-579859Y672376D01*
G01X-579814Y672385D01*
G01X-579772Y672404D01*
G01X-579755Y672416D01*
G01X-579755Y672415D01*
G01X-579750Y672348D01*
G01X-579736Y672282D01*
G01X-579713Y672220D01*
G01X-579681Y672161D01*
G01X-579640Y672107D01*
G01X-579593Y672060D01*
G01X-579539Y672019D01*
G01X-579480Y671987D01*
G01X-579417Y671963D01*
G01X-579352Y671950D01*
G01X-579285Y671945D01*
G37*
G36*
G01X-579992Y671968D02*
G01X-579817Y672142D01*
G01X-579860Y672158D01*
G01X-579925Y672172D01*
G01X-579992Y672177D01*
G01X-580058Y672172D01*
G01X-580124Y672158D01*
G01X-580166Y672142D01*
G01X-579992Y671968D01*
G37*
G36*
G01X-580752Y672166D02*
G01X-580706Y672166D01*
G01X-580661Y672175D01*
G01X-580619Y672194D01*
G01X-580582Y672221D01*
G01X-580551Y672255D01*
G01X-580528Y672295D01*
G01X-580514Y672339D01*
G01X-580509Y672385D01*
G01X-580514Y672430D01*
G01X-580528Y672474D01*
G01X-580551Y672514D01*
G01X-580582Y672548D01*
G01X-580599Y672561D01*
G01X-580599Y676424D01*
G01X-579968Y677054D01*
G01X-579958Y677052D01*
G01X-579913Y677052D01*
G01X-579868Y677061D01*
G01X-579826Y677080D01*
G01X-579788Y677107D01*
G01X-579758Y677141D01*
G01X-579735Y677181D01*
G01X-579721Y677225D01*
G01X-579716Y677271D01*
G01X-579721Y677316D01*
G01X-579735Y677360D01*
G01X-579758Y677400D01*
G01X-579788Y677434D01*
G01X-579826Y677461D01*
G01X-579868Y677480D01*
G01X-579913Y677490D01*
G01X-579958Y677490D01*
G01X-580003Y677480D01*
G01X-580046Y677461D01*
G01X-580083Y677434D01*
G01X-580113Y677400D01*
G01X-580137Y677360D01*
G01X-580151Y677316D01*
G01X-580156Y677271D01*
G01X-580152Y677238D01*
G01X-580821Y676570D01*
G01X-580834Y676555D01*
G01X-580845Y676537D01*
G01X-580845Y685016D01*
G01X-573508Y692352D01*
G01X-573495Y692367D01*
G01X-573484Y692385D01*
G01X-573476Y692404D01*
G01X-573471Y692423D01*
G01X-573470Y692444D01*
G01X-573470Y693795D01*
G01X-573445Y693802D01*
G01X-573387Y693830D01*
G01X-573335Y693866D01*
G01X-573288Y693909D01*
G01X-573248Y693958D01*
G01X-573217Y694013D01*
G01X-573193Y694073D01*
G01X-573180Y694135D01*
G01X-573175Y694198D01*
G01X-573180Y694261D01*
G01X-573193Y694323D01*
G01X-573217Y694382D01*
G01X-573248Y694437D01*
G01X-573288Y694487D01*
G01X-573335Y694530D01*
G01X-573387Y694566D01*
G01X-573445Y694593D01*
G01X-573505Y694612D01*
G01X-573568Y694622D01*
G01X-573631Y694622D01*
G01X-573694Y694612D01*
G01X-573755Y694593D01*
G01X-573812Y694566D01*
G01X-573865Y694530D01*
G01X-573911Y694487D01*
G01X-573951Y694437D01*
G01X-573982Y694382D01*
G01X-574006Y694323D01*
G01X-574020Y694261D01*
G01X-574025Y694198D01*
G01X-574020Y694135D01*
G01X-574006Y694073D01*
G01X-573982Y694013D01*
G01X-573951Y693958D01*
G01X-573911Y693909D01*
G01X-573865Y693866D01*
G01X-573812Y693830D01*
G01X-573755Y693802D01*
G01X-573730Y693795D01*
G01X-573730Y692497D01*
G01X-580965Y685262D01*
G01X-580965Y685457D01*
G01X-574215Y692207D01*
G01X-574202Y692222D01*
G01X-574191Y692240D01*
G01X-574183Y692259D01*
G01X-574178Y692278D01*
G01X-574177Y692299D01*
G01X-574177Y694501D01*
G01X-574152Y694509D01*
G01X-574095Y694536D01*
G01X-574042Y694572D01*
G01X-573995Y694616D01*
G01X-573956Y694665D01*
G01X-573924Y694720D01*
G01X-573901Y694780D01*
G01X-573887Y694841D01*
G01X-573882Y694905D01*
G01X-573887Y694968D01*
G01X-573901Y695030D01*
G01X-573924Y695089D01*
G01X-573956Y695144D01*
G01X-573995Y695193D01*
G01X-574042Y695237D01*
G01X-574095Y695273D01*
G01X-574152Y695300D01*
G01X-574212Y695319D01*
G01X-574275Y695328D01*
G01X-574338Y695328D01*
G01X-574401Y695319D01*
G01X-574462Y695300D01*
G01X-574519Y695273D01*
G01X-574572Y695237D01*
G01X-574618Y695193D01*
G01X-574658Y695144D01*
G01X-574690Y695089D01*
G01X-574713Y695030D01*
G01X-574727Y694968D01*
G01X-574732Y694905D01*
G01X-574727Y694841D01*
G01X-574713Y694780D01*
G01X-574690Y694720D01*
G01X-574658Y694665D01*
G01X-574618Y694616D01*
G01X-574572Y694572D01*
G01X-574519Y694536D01*
G01X-574462Y694509D01*
G01X-574437Y694501D01*
G01X-574437Y692352D01*
G01X-581186Y685602D01*
G01X-581200Y685587D01*
G01X-581210Y685570D01*
G01X-581218Y685551D01*
G01X-581223Y685531D01*
G01X-581225Y685511D01*
G01X-581225Y674687D01*
G01X-582682Y673230D01*
G01X-582693Y673232D01*
G01X-582738Y673232D01*
G01X-582783Y673222D01*
G01X-582826Y673203D01*
G01X-582863Y673176D01*
G01X-582893Y673142D01*
G01X-582917Y673102D01*
G01X-582931Y673058D01*
G01X-582936Y673013D01*
G01X-582931Y672967D01*
G01X-582917Y672923D01*
G01X-582893Y672883D01*
G01X-582863Y672850D01*
G01X-582826Y672822D01*
G01X-582783Y672803D01*
G01X-582738Y672794D01*
G01X-582693Y672794D01*
G01X-582648Y672803D01*
G01X-582606Y672822D01*
G01X-582568Y672850D01*
G01X-582538Y672883D01*
G01X-582515Y672923D01*
G01X-582501Y672967D01*
G01X-582496Y673013D01*
G01X-582500Y673046D01*
G01X-581105Y674441D01*
G01X-581105Y673465D01*
G01X-581122Y673452D01*
G01X-581152Y673418D01*
G01X-581176Y673378D01*
G01X-581190Y673335D01*
G01X-581195Y673289D01*
G01X-581190Y673243D01*
G01X-581176Y673200D01*
G01X-581152Y673160D01*
G01X-581122Y673126D01*
G01X-581085Y673098D01*
G01X-581042Y673080D01*
G01X-580997Y673070D01*
G01X-580952Y673070D01*
G01X-580907Y673080D01*
G01X-580865Y673098D01*
G01X-580859Y673102D01*
G01X-580859Y672561D01*
G01X-580876Y672548D01*
G01X-580907Y672514D01*
G01X-580930Y672474D01*
G01X-580944Y672430D01*
G01X-580949Y672385D01*
G01X-580944Y672339D01*
G01X-580930Y672295D01*
G01X-580907Y672255D01*
G01X-580876Y672221D01*
G01X-580839Y672194D01*
G01X-580797Y672175D01*
G01X-580752Y672166D01*
G37*
G36*
G01X-593505Y672333D02*
G01X-593474Y672333D01*
G01X-593444Y672343D01*
G01X-593419Y672362D01*
G01X-593304Y672477D01*
G01X-593305Y672477D01*
G01X-593490Y672662D01*
G01X-593675Y672477D01*
G01X-593560Y672362D01*
G01X-593535Y672343D01*
G01X-593505Y672333D01*
G37*
G36*
G01X-586077Y698394D02*
G01X-585914Y698394D01*
G01X-585914Y698657D01*
G01X-586177Y698657D01*
G01X-586177Y698494D01*
G01X-586172Y698463D01*
G01X-586158Y698435D01*
G01X-586136Y698413D01*
G01X-586108Y698399D01*
G01X-586077Y698394D01*
G37*
G36*
G01X-575045Y672468D02*
G01X-574981Y672468D01*
G01X-574918Y672477D01*
G01X-574858Y672496D01*
G01X-574801Y672523D01*
G01X-574748Y672560D01*
G01X-574701Y672603D01*
G01X-574662Y672652D01*
G01X-574630Y672707D01*
G01X-574607Y672767D01*
G01X-574593Y672828D01*
G01X-574588Y672892D01*
G01X-574593Y672955D01*
G01X-574607Y673017D01*
G01X-574630Y673076D01*
G01X-574662Y673131D01*
G01X-574701Y673181D01*
G01X-574748Y673224D01*
G01X-574801Y673260D01*
G01X-574858Y673287D01*
G01X-574918Y673306D01*
G01X-574981Y673316D01*
G01X-575045Y673316D01*
G01X-575107Y673306D01*
G01X-575168Y673287D01*
G01X-575225Y673260D01*
G01X-575278Y673224D01*
G01X-575325Y673181D01*
G01X-575364Y673131D01*
G01X-575396Y673076D01*
G01X-575419Y673017D01*
G01X-575433Y672955D01*
G01X-575438Y672892D01*
G01X-575433Y672828D01*
G01X-575419Y672767D01*
G01X-575396Y672707D01*
G01X-575364Y672652D01*
G01X-575325Y672603D01*
G01X-575278Y672560D01*
G01X-575225Y672523D01*
G01X-575168Y672496D01*
G01X-575107Y672477D01*
G01X-575045Y672468D01*
G37*
G36*
G01X-585590Y698394D02*
G01X-585427Y698394D01*
G01X-585396Y698399D01*
G01X-585368Y698413D01*
G01X-585346Y698435D01*
G01X-585332Y698463D01*
G01X-585327Y698494D01*
G01X-585327Y698657D01*
G01X-585590Y698657D01*
G01X-585590Y698394D01*
G37*
G36*
G01X-593075Y672706D02*
G01X-592960Y672821D01*
G01X-592941Y672846D01*
G01X-592931Y672876D01*
G01X-592931Y672907D01*
G01X-592941Y672937D01*
G01X-592960Y672962D01*
G01X-593075Y673077D01*
G01X-593261Y672892D01*
G01X-593075Y672706D01*
G37*
G36*
G01X-593905Y672706D02*
G01X-593719Y672892D01*
G01X-593905Y673077D01*
G01X-594020Y672962D01*
G01X-594038Y672937D01*
G01X-594048Y672907D01*
G01X-594048Y672876D01*
G01X-594038Y672846D01*
G01X-594020Y672821D01*
G01X-593905Y672706D01*
G37*
G36*
G01X-587381Y696380D02*
G01X-587160Y696380D01*
G01X-587160Y696600D01*
G01X-587174Y696595D01*
G01X-587227Y696565D01*
G01X-587276Y696528D01*
G01X-587318Y696484D01*
G01X-587354Y696434D01*
G01X-587381Y696380D01*
G37*
G36*
G01X-586860Y696380D02*
G01X-586641Y696380D01*
G01X-586652Y696407D01*
G01X-586683Y696460D01*
G01X-586722Y696507D01*
G01X-586768Y696548D01*
G01X-586819Y696581D01*
G01X-586860Y696600D01*
G01X-586860Y696380D01*
G37*
G36*
G01X-587160Y695860D02*
G01X-587160Y696080D01*
G01X-587381Y696080D01*
G01X-587354Y696025D01*
G01X-587318Y695975D01*
G01X-587276Y695931D01*
G01X-587227Y695894D01*
G01X-587174Y695865D01*
G01X-587160Y695860D01*
G37*
G36*
G01X-586860Y695860D02*
G01X-586819Y695878D01*
G01X-586768Y695911D01*
G01X-586722Y695952D01*
G01X-586683Y696000D01*
G01X-586652Y696052D01*
G01X-586641Y696080D01*
G01X-586860Y696080D01*
G01X-586860Y695860D01*
G37*
G36*
G01X-575014Y695841D02*
G01X-574828Y696027D01*
G01X-574943Y696142D01*
G01X-574968Y696161D01*
G01X-574998Y696171D01*
G01X-575030Y696171D01*
G01X-575060Y696161D01*
G01X-575085Y696142D01*
G01X-575200Y696027D01*
G01X-575014Y695841D01*
G37*
G36*
G01X-593490Y673121D02*
G01X-593305Y673307D01*
G01X-593304Y673307D01*
G01X-593419Y673422D01*
G01X-593444Y673440D01*
G01X-593474Y673450D01*
G01X-593505Y673450D01*
G01X-593535Y673440D01*
G01X-593560Y673422D01*
G01X-593675Y673307D01*
G01X-593490Y673121D01*
G37*
G36*
G01X-574337Y673175D02*
G01X-574274Y673175D01*
G01X-574211Y673185D01*
G01X-574151Y673203D01*
G01X-574093Y673231D01*
G01X-574041Y673267D01*
G01X-573994Y673310D01*
G01X-573955Y673360D01*
G01X-573923Y673415D01*
G01X-573900Y673474D01*
G01X-573886Y673536D01*
G01X-573881Y673599D01*
G01X-573886Y673662D01*
G01X-573900Y673724D01*
G01X-573923Y673783D01*
G01X-573955Y673838D01*
G01X-573994Y673888D01*
G01X-574041Y673931D01*
G01X-574093Y673967D01*
G01X-574151Y673995D01*
G01X-574211Y674013D01*
G01X-574274Y674023D01*
G01X-574337Y674023D01*
G01X-574400Y674013D01*
G01X-574461Y673995D01*
G01X-574518Y673967D01*
G01X-574571Y673931D01*
G01X-574617Y673888D01*
G01X-574657Y673838D01*
G01X-574688Y673783D01*
G01X-574712Y673724D01*
G01X-574726Y673662D01*
G01X-574731Y673599D01*
G01X-574726Y673536D01*
G01X-574712Y673474D01*
G01X-574688Y673415D01*
G01X-574657Y673360D01*
G01X-574617Y673310D01*
G01X-574571Y673267D01*
G01X-574518Y673231D01*
G01X-574461Y673203D01*
G01X-574400Y673185D01*
G01X-574337Y673175D01*
G37*
G36*
G01X-594228Y673175D02*
G01X-594165Y673175D01*
G01X-594102Y673185D01*
G01X-594042Y673203D01*
G01X-593985Y673231D01*
G01X-593932Y673267D01*
G01X-593885Y673310D01*
G01X-593846Y673360D01*
G01X-593814Y673415D01*
G01X-593791Y673474D01*
G01X-593777Y673536D01*
G01X-593772Y673599D01*
G01X-593777Y673662D01*
G01X-593791Y673724D01*
G01X-593814Y673783D01*
G01X-593846Y673838D01*
G01X-593885Y673888D01*
G01X-593932Y673931D01*
G01X-593985Y673967D01*
G01X-594042Y673995D01*
G01X-594102Y674013D01*
G01X-594165Y674023D01*
G01X-594228Y674023D01*
G01X-594291Y674013D01*
G01X-594352Y673995D01*
G01X-594409Y673967D01*
G01X-594462Y673931D01*
G01X-594508Y673888D01*
G01X-594548Y673838D01*
G01X-594580Y673783D01*
G01X-594603Y673724D01*
G01X-594617Y673662D01*
G01X-594622Y673599D01*
G01X-594617Y673536D01*
G01X-594603Y673474D01*
G01X-594580Y673415D01*
G01X-594548Y673360D01*
G01X-594508Y673310D01*
G01X-594462Y673267D01*
G01X-594409Y673231D01*
G01X-594352Y673203D01*
G01X-594291Y673185D01*
G01X-594228Y673175D01*
G37*
G36*
G01X-575428Y695426D02*
G01X-575243Y695612D01*
G01X-575429Y695798D01*
G01X-575544Y695682D01*
G01X-575562Y695657D01*
G01X-575572Y695627D01*
G01X-575572Y695596D01*
G01X-575562Y695566D01*
G01X-575544Y695541D01*
G01X-575428Y695426D01*
G37*
G36*
G01X-574599Y695426D02*
G01X-574483Y695541D01*
G01X-574465Y695566D01*
G01X-574455Y695596D01*
G01X-574455Y695627D01*
G01X-574465Y695657D01*
G01X-574483Y695682D01*
G01X-574599Y695798D01*
G01X-574785Y695612D01*
G01X-574599Y695426D01*
G37*
G36*
G01X-577871Y673359D02*
G01X-577804Y673364D01*
G01X-577738Y673378D01*
G01X-577676Y673401D01*
G01X-577617Y673433D01*
G01X-577563Y673474D01*
G01X-577516Y673521D01*
G01X-577475Y673575D01*
G01X-577443Y673634D01*
G01X-577420Y673697D01*
G01X-577406Y673762D01*
G01X-577401Y673829D01*
G01X-577406Y673896D01*
G01X-577420Y673961D01*
G01X-577443Y674024D01*
G01X-577475Y674083D01*
G01X-577516Y674137D01*
G01X-577563Y674184D01*
G01X-577617Y674225D01*
G01X-577676Y674257D01*
G01X-577738Y674280D01*
G01X-577804Y674294D01*
G01X-577871Y674299D01*
G01X-577937Y674294D01*
G01X-578003Y674280D01*
G01X-578066Y674257D01*
G01X-578125Y674225D01*
G01X-578178Y674184D01*
G01X-578226Y674137D01*
G01X-578266Y674083D01*
G01X-578298Y674024D01*
G01X-578322Y673961D01*
G01X-578336Y673896D01*
G01X-578341Y673829D01*
G01X-578336Y673762D01*
G01X-578322Y673697D01*
G01X-578298Y673634D01*
G01X-578266Y673575D01*
G01X-578226Y673521D01*
G01X-578178Y673474D01*
G01X-578125Y673433D01*
G01X-578066Y673401D01*
G01X-578003Y673378D01*
G01X-577937Y673364D01*
G01X-577871Y673359D01*
G37*
G36*
G01X-594936Y673882D02*
G01X-594872Y673882D01*
G01X-594810Y673891D01*
G01X-594749Y673910D01*
G01X-594692Y673937D01*
G01X-594639Y673973D01*
G01X-594592Y674017D01*
G01X-594553Y674066D01*
G01X-594521Y674121D01*
G01X-594498Y674181D01*
G01X-594484Y674242D01*
G01X-594479Y674306D01*
G01X-594484Y674369D01*
G01X-594498Y674431D01*
G01X-594521Y674490D01*
G01X-594553Y674545D01*
G01X-594592Y674595D01*
G01X-594639Y674638D01*
G01X-594692Y674674D01*
G01X-594749Y674701D01*
G01X-594810Y674720D01*
G01X-594872Y674730D01*
G01X-594936Y674730D01*
G01X-594998Y674720D01*
G01X-595059Y674701D01*
G01X-595116Y674674D01*
G01X-595169Y674638D01*
G01X-595216Y674595D01*
G01X-595255Y674545D01*
G01X-595287Y674490D01*
G01X-595310Y674431D01*
G01X-595324Y674369D01*
G01X-595329Y674306D01*
G01X-595324Y674242D01*
G01X-595310Y674181D01*
G01X-595287Y674121D01*
G01X-595255Y674066D01*
G01X-595216Y674017D01*
G01X-595169Y673973D01*
G01X-595116Y673937D01*
G01X-595059Y673910D01*
G01X-594998Y673891D01*
G01X-594936Y673882D01*
G37*
G36*
G01X-575030Y695053D02*
G01X-574998Y695053D01*
G01X-574968Y695063D01*
G01X-574943Y695082D01*
G01X-574828Y695197D01*
G01X-575014Y695383D01*
G01X-575200Y695197D01*
G01X-575085Y695082D01*
G01X-575060Y695063D01*
G01X-575030Y695053D01*
G37*
G36*
G01X-585510Y674093D02*
G01X-584820Y674093D01*
G01X-584799Y674095D01*
G01X-584780Y674099D01*
G01X-584761Y674107D01*
G01X-584743Y674118D01*
G01X-584728Y674131D01*
G01X-581948Y676911D01*
G01X-581935Y676926D01*
G01X-581924Y676944D01*
G01X-581916Y676963D01*
G01X-581911Y676982D01*
G01X-581910Y677003D01*
G01X-581910Y678958D01*
G01X-581892Y678971D01*
G01X-581862Y679005D01*
G01X-581838Y679045D01*
G01X-581825Y679088D01*
G01X-581820Y679134D01*
G01X-581825Y679180D01*
G01X-581838Y679223D01*
G01X-581862Y679263D01*
G01X-581892Y679297D01*
G01X-581930Y679325D01*
G01X-581972Y679343D01*
G01X-582017Y679353D01*
G01X-582062Y679353D01*
G01X-582107Y679343D01*
G01X-582150Y679325D01*
G01X-582187Y679297D01*
G01X-582217Y679263D01*
G01X-582241Y679223D01*
G01X-582255Y679180D01*
G01X-582260Y679134D01*
G01X-582255Y679088D01*
G01X-582241Y679045D01*
G01X-582217Y679005D01*
G01X-582187Y678971D01*
G01X-582170Y678958D01*
G01X-582170Y677056D01*
G01X-584588Y674637D01*
G01X-584590Y674641D01*
G01X-584613Y674681D01*
G01X-584643Y674715D01*
G01X-584681Y674742D01*
G01X-584723Y674761D01*
G01X-584768Y674771D01*
G01X-584813Y674771D01*
G01X-584824Y674768D01*
G01X-586193Y676138D01*
G01X-586193Y683539D01*
G01X-586115Y683355D01*
G01X-586017Y683173D01*
G01X-585901Y683003D01*
G01X-585768Y682845D01*
G01X-585620Y682701D01*
G01X-585459Y682572D01*
G01X-585286Y682461D01*
G01X-585102Y682366D01*
G01X-584911Y682291D01*
G01X-584712Y682235D01*
G01X-584509Y682200D01*
G01X-584303Y682184D01*
G01X-584097Y682189D01*
G01X-583893Y682215D01*
G01X-583692Y682261D01*
G01X-583496Y682326D01*
G01X-583308Y682411D01*
G01X-583130Y682515D01*
G01X-582962Y682635D01*
G01X-582807Y682771D01*
G01X-582667Y682922D01*
G01X-582543Y683087D01*
G01X-582435Y683262D01*
G01X-582346Y683448D01*
G01X-582275Y683642D01*
G01X-582225Y683842D01*
G01X-582194Y684046D01*
G01X-582183Y684252D01*
G01X-582194Y684458D01*
G01X-582225Y684662D01*
G01X-582275Y684861D01*
G01X-582346Y685055D01*
G01X-582435Y685241D01*
G01X-582543Y685417D01*
G01X-582667Y685581D01*
G01X-582807Y685732D01*
G01X-582962Y685869D01*
G01X-583130Y685989D01*
G01X-583308Y686092D01*
G01X-583496Y686177D01*
G01X-583692Y686243D01*
G01X-583893Y686288D01*
G01X-584097Y686315D01*
G01X-584303Y686320D01*
G01X-584509Y686304D01*
G01X-584712Y686268D01*
G01X-584911Y686212D01*
G01X-585102Y686137D01*
G01X-585286Y686043D01*
G01X-585459Y685931D01*
G01X-585620Y685802D01*
G01X-585768Y685658D01*
G01X-585901Y685501D01*
G01X-586017Y685330D01*
G01X-586115Y685149D01*
G01X-586193Y684964D01*
G01X-586193Y686637D01*
G01X-585743Y687088D01*
G01X-585730Y687103D01*
G01X-585719Y687121D01*
G01X-585711Y687140D01*
G01X-585707Y687159D01*
G01X-585705Y687180D01*
G01X-585705Y687270D01*
G01X-585657Y687234D01*
G01X-585603Y687205D01*
G01X-585546Y687184D01*
G01X-585486Y687172D01*
G01X-585424Y687170D01*
G01X-585363Y687177D01*
G01X-585305Y687193D01*
G01X-585248Y687218D01*
G01X-585197Y687251D01*
G01X-585151Y687292D01*
G01X-585112Y687340D01*
G01X-585081Y687392D01*
G01X-585058Y687449D01*
G01X-585044Y687508D01*
G01X-585044Y687510D01*
G01X-585039Y687478D01*
G01X-585021Y687420D01*
G01X-584993Y687365D01*
G01X-584958Y687315D01*
G01X-584916Y687271D01*
G01X-584867Y687234D01*
G01X-584813Y687205D01*
G01X-584756Y687184D01*
G01X-584696Y687172D01*
G01X-584634Y687170D01*
G01X-584573Y687177D01*
G01X-584515Y687193D01*
G01X-584458Y687218D01*
G01X-584407Y687251D01*
G01X-584361Y687292D01*
G01X-584322Y687340D01*
G01X-584291Y687392D01*
G01X-584268Y687449D01*
G01X-584254Y687508D01*
G01X-584250Y687478D01*
G01X-584231Y687420D01*
G01X-584204Y687365D01*
G01X-584168Y687315D01*
G01X-584126Y687271D01*
G01X-584077Y687234D01*
G01X-584024Y687205D01*
G01X-583966Y687184D01*
G01X-583906Y687172D01*
G01X-583845Y687170D01*
G01X-583784Y687177D01*
G01X-583725Y687193D01*
G01X-583669Y687218D01*
G01X-583618Y687251D01*
G01X-583572Y687292D01*
G01X-583533Y687340D01*
G01X-583502Y687392D01*
G01X-583479Y687449D01*
G01X-583470Y687486D01*
G01X-583469Y687478D01*
G01X-583451Y687420D01*
G01X-583423Y687365D01*
G01X-583388Y687315D01*
G01X-583346Y687271D01*
G01X-583297Y687234D01*
G01X-583243Y687205D01*
G01X-583186Y687184D01*
G01X-583126Y687172D01*
G01X-583064Y687170D01*
G01X-583003Y687177D01*
G01X-582945Y687193D01*
G01X-582888Y687218D01*
G01X-582837Y687251D01*
G01X-582815Y687271D01*
G01X-582815Y686318D01*
G01X-582832Y686305D01*
G01X-582863Y686271D01*
G01X-582886Y686231D01*
G01X-582900Y686187D01*
G01X-582905Y686142D01*
G01X-582900Y686096D01*
G01X-582886Y686052D01*
G01X-582863Y686012D01*
G01X-582832Y685978D01*
G01X-582795Y685951D01*
G01X-582753Y685932D01*
G01X-582708Y685923D01*
G01X-582662Y685923D01*
G01X-582617Y685932D01*
G01X-582575Y685951D01*
G01X-582538Y685978D01*
G01X-582507Y686012D01*
G01X-582484Y686052D01*
G01X-582470Y686096D01*
G01X-582465Y686142D01*
G01X-582470Y686187D01*
G01X-582484Y686231D01*
G01X-582507Y686271D01*
G01X-582538Y686305D01*
G01X-582555Y686318D01*
G01X-582555Y687270D01*
G01X-582507Y687234D01*
G01X-582453Y687205D01*
G01X-582396Y687184D01*
G01X-582336Y687172D01*
G01X-582274Y687170D01*
G01X-582213Y687177D01*
G01X-582155Y687193D01*
G01X-582098Y687218D01*
G01X-582047Y687251D01*
G01X-582025Y687272D01*
G01X-582025Y680406D01*
G01X-582042Y680393D01*
G01X-582072Y680359D01*
G01X-582096Y680319D01*
G01X-582110Y680275D01*
G01X-582115Y680230D01*
G01X-582110Y680184D01*
G01X-582096Y680140D01*
G01X-582072Y680100D01*
G01X-582042Y680066D01*
G01X-582005Y680039D01*
G01X-581962Y680020D01*
G01X-581917Y680011D01*
G01X-581872Y680011D01*
G01X-581827Y680020D01*
G01X-581785Y680039D01*
G01X-581747Y680066D01*
G01X-581717Y680100D01*
G01X-581693Y680140D01*
G01X-581680Y680184D01*
G01X-581675Y680230D01*
G01X-581680Y680275D01*
G01X-581693Y680319D01*
G01X-581717Y680359D01*
G01X-581747Y680393D01*
G01X-581765Y680406D01*
G01X-581765Y687270D01*
G01X-581717Y687234D01*
G01X-581663Y687205D01*
G01X-581606Y687184D01*
G01X-581546Y687172D01*
G01X-581484Y687170D01*
G01X-581423Y687177D01*
G01X-581365Y687193D01*
G01X-581308Y687218D01*
G01X-581257Y687251D01*
G01X-581211Y687292D01*
G01X-581172Y687340D01*
G01X-581141Y687392D01*
G01X-581118Y687449D01*
G01X-581104Y687508D01*
G01X-581100Y687478D01*
G01X-581081Y687420D01*
G01X-581054Y687365D01*
G01X-581018Y687315D01*
G01X-580976Y687271D01*
G01X-580927Y687234D01*
G01X-580874Y687205D01*
G01X-580816Y687184D01*
G01X-580756Y687172D01*
G01X-580695Y687170D01*
G01X-580634Y687177D01*
G01X-580575Y687193D01*
G01X-580519Y687218D01*
G01X-580468Y687251D01*
G01X-580422Y687292D01*
G01X-580383Y687340D01*
G01X-580352Y687392D01*
G01X-580329Y687449D01*
G01X-580320Y687486D01*
G01X-580319Y687478D01*
G01X-580301Y687420D01*
G01X-580273Y687365D01*
G01X-580238Y687315D01*
G01X-580196Y687271D01*
G01X-580147Y687234D01*
G01X-580093Y687205D01*
G01X-580036Y687184D01*
G01X-579976Y687172D01*
G01X-579914Y687170D01*
G01X-579853Y687177D01*
G01X-579795Y687193D01*
G01X-579738Y687218D01*
G01X-579687Y687251D01*
G01X-579641Y687292D01*
G01X-579602Y687340D01*
G01X-579571Y687392D01*
G01X-579548Y687449D01*
G01X-579534Y687508D01*
G01X-579530Y687570D01*
G01X-579534Y687631D01*
G01X-579548Y687690D01*
G01X-579571Y687747D01*
G01X-579602Y687800D01*
G01X-579641Y687847D01*
G01X-579687Y687888D01*
G01X-579738Y687921D01*
G01X-579795Y687946D01*
G01X-579853Y687962D01*
G01X-579914Y687969D01*
G01X-579976Y687967D01*
G01X-580036Y687955D01*
G01X-580093Y687935D01*
G01X-580147Y687905D01*
G01X-580196Y687868D01*
G01X-580238Y687824D01*
G01X-580273Y687774D01*
G01X-580301Y687719D01*
G01X-580319Y687661D01*
G01X-580320Y687653D01*
G01X-580329Y687690D01*
G01X-580352Y687747D01*
G01X-580383Y687800D01*
G01X-580422Y687847D01*
G01X-580468Y687888D01*
G01X-580519Y687921D01*
G01X-580575Y687946D01*
G01X-580634Y687962D01*
G01X-580695Y687969D01*
G01X-580756Y687967D01*
G01X-580816Y687955D01*
G01X-580874Y687935D01*
G01X-580927Y687905D01*
G01X-580976Y687868D01*
G01X-581018Y687824D01*
G01X-581054Y687774D01*
G01X-581081Y687719D01*
G01X-581100Y687661D01*
G01X-581104Y687631D01*
G01X-581118Y687690D01*
G01X-581141Y687747D01*
G01X-581172Y687800D01*
G01X-581211Y687847D01*
G01X-581257Y687888D01*
G01X-581308Y687921D01*
G01X-581365Y687946D01*
G01X-581423Y687962D01*
G01X-581484Y687969D01*
G01X-581546Y687967D01*
G01X-581606Y687955D01*
G01X-581663Y687935D01*
G01X-581717Y687905D01*
G01X-581765Y687869D01*
G01X-581765Y694991D01*
G01X-580885Y695871D01*
G01X-580874Y695865D01*
G01X-580816Y695844D01*
G01X-580756Y695832D01*
G01X-580695Y695830D01*
G01X-580634Y695837D01*
G01X-580575Y695853D01*
G01X-580519Y695878D01*
G01X-580468Y695911D01*
G01X-580422Y695952D01*
G01X-580383Y696000D01*
G01X-580352Y696052D01*
G01X-580329Y696109D01*
G01X-580320Y696146D01*
G01X-580319Y696138D01*
G01X-580301Y696080D01*
G01X-580273Y696025D01*
G01X-580238Y695975D01*
G01X-580196Y695931D01*
G01X-580147Y695894D01*
G01X-580093Y695865D01*
G01X-580036Y695844D01*
G01X-579976Y695832D01*
G01X-579914Y695830D01*
G01X-579853Y695837D01*
G01X-579795Y695853D01*
G01X-579738Y695878D01*
G01X-579687Y695911D01*
G01X-579641Y695952D01*
G01X-579602Y696000D01*
G01X-579571Y696052D01*
G01X-579548Y696109D01*
G01X-579534Y696168D01*
G01X-579530Y696230D01*
G01X-579534Y696291D01*
G01X-579548Y696350D01*
G01X-579571Y696407D01*
G01X-579602Y696460D01*
G01X-579641Y696507D01*
G01X-579687Y696548D01*
G01X-579738Y696581D01*
G01X-579795Y696606D01*
G01X-579853Y696622D01*
G01X-579914Y696629D01*
G01X-579976Y696627D01*
G01X-580036Y696615D01*
G01X-580093Y696595D01*
G01X-580105Y696588D01*
G01X-582327Y698811D01*
G01X-582327Y698819D01*
G01X-582332Y698882D01*
G01X-582346Y698944D01*
G01X-582369Y699003D01*
G01X-582401Y699058D01*
G01X-582440Y699108D01*
G01X-582487Y699151D01*
G01X-582540Y699187D01*
G01X-582597Y699215D01*
G01X-582657Y699233D01*
G01X-582720Y699243D01*
G01X-582783Y699243D01*
G01X-582846Y699233D01*
G01X-582907Y699215D01*
G01X-582964Y699187D01*
G01X-583017Y699151D01*
G01X-583063Y699108D01*
G01X-583103Y699058D01*
G01X-583135Y699003D01*
G01X-583158Y698944D01*
G01X-583172Y698882D01*
G01X-583177Y698819D01*
G01X-583172Y698756D01*
G01X-583158Y698694D01*
G01X-583135Y698635D01*
G01X-583103Y698580D01*
G01X-583063Y698530D01*
G01X-583017Y698487D01*
G01X-582964Y698451D01*
G01X-582907Y698423D01*
G01X-582846Y698405D01*
G01X-582783Y698395D01*
G01X-582720Y698395D01*
G01X-582657Y698405D01*
G01X-582597Y698423D01*
G01X-582540Y698451D01*
G01X-582487Y698487D01*
G01X-582440Y698530D01*
G01X-582428Y698545D01*
G01X-580288Y696405D01*
G01X-580301Y696379D01*
G01X-580319Y696321D01*
G01X-580320Y696313D01*
G01X-580329Y696350D01*
G01X-580352Y696407D01*
G01X-580383Y696460D01*
G01X-580422Y696507D01*
G01X-580468Y696548D01*
G01X-580519Y696581D01*
G01X-580575Y696606D01*
G01X-580634Y696622D01*
G01X-580695Y696629D01*
G01X-580756Y696627D01*
G01X-580816Y696615D01*
G01X-580874Y696595D01*
G01X-580927Y696565D01*
G01X-580976Y696528D01*
G01X-581018Y696484D01*
G01X-581054Y696434D01*
G01X-581081Y696379D01*
G01X-581100Y696321D01*
G01X-581104Y696292D01*
G01X-581118Y696350D01*
G01X-581141Y696407D01*
G01X-581172Y696460D01*
G01X-581211Y696507D01*
G01X-581257Y696548D01*
G01X-581308Y696581D01*
G01X-581365Y696606D01*
G01X-581423Y696622D01*
G01X-581484Y696629D01*
G01X-581546Y696627D01*
G01X-581606Y696615D01*
G01X-581663Y696595D01*
G01X-581717Y696565D01*
G01X-581766Y696528D01*
G01X-581808Y696484D01*
G01X-581843Y696434D01*
G01X-581871Y696379D01*
G01X-581889Y696321D01*
G01X-581894Y696289D01*
G01X-581894Y696291D01*
G01X-581908Y696350D01*
G01X-581931Y696407D01*
G01X-581962Y696460D01*
G01X-582001Y696507D01*
G01X-582047Y696548D01*
G01X-582098Y696581D01*
G01X-582155Y696606D01*
G01X-582213Y696622D01*
G01X-582274Y696629D01*
G01X-582336Y696627D01*
G01X-582396Y696615D01*
G01X-582453Y696595D01*
G01X-582507Y696565D01*
G01X-582556Y696528D01*
G01X-582598Y696484D01*
G01X-582633Y696434D01*
G01X-582661Y696379D01*
G01X-582679Y696321D01*
G01X-582684Y696289D01*
G01X-582684Y696291D01*
G01X-582698Y696350D01*
G01X-582721Y696407D01*
G01X-582752Y696460D01*
G01X-582791Y696507D01*
G01X-582837Y696548D01*
G01X-582888Y696581D01*
G01X-582945Y696606D01*
G01X-583003Y696622D01*
G01X-583064Y696629D01*
G01X-583126Y696627D01*
G01X-583186Y696615D01*
G01X-583243Y696595D01*
G01X-583297Y696565D01*
G01X-583346Y696528D01*
G01X-583388Y696484D01*
G01X-583423Y696434D01*
G01X-583451Y696379D01*
G01X-583469Y696321D01*
G01X-583470Y696313D01*
G01X-583479Y696350D01*
G01X-583502Y696407D01*
G01X-583533Y696460D01*
G01X-583572Y696507D01*
G01X-583618Y696548D01*
G01X-583669Y696581D01*
G01X-583725Y696606D01*
G01X-583784Y696622D01*
G01X-583845Y696629D01*
G01X-583906Y696627D01*
G01X-583966Y696615D01*
G01X-584024Y696595D01*
G01X-584077Y696565D01*
G01X-584126Y696528D01*
G01X-584168Y696484D01*
G01X-584204Y696434D01*
G01X-584231Y696379D01*
G01X-584250Y696321D01*
G01X-584254Y696292D01*
G01X-584268Y696350D01*
G01X-584291Y696407D01*
G01X-584322Y696460D01*
G01X-584361Y696507D01*
G01X-584407Y696548D01*
G01X-584458Y696581D01*
G01X-584515Y696606D01*
G01X-584573Y696622D01*
G01X-584634Y696629D01*
G01X-584696Y696627D01*
G01X-584756Y696615D01*
G01X-584813Y696595D01*
G01X-584867Y696565D01*
G01X-584916Y696528D01*
G01X-584920Y696525D01*
G01X-584920Y697467D01*
G01X-583946Y698442D01*
G01X-583907Y698423D01*
G01X-583846Y698405D01*
G01X-583783Y698395D01*
G01X-583720Y698395D01*
G01X-583657Y698405D01*
G01X-583597Y698423D01*
G01X-583540Y698451D01*
G01X-583487Y698487D01*
G01X-583440Y698530D01*
G01X-583401Y698580D01*
G01X-583369Y698635D01*
G01X-583346Y698694D01*
G01X-583332Y698756D01*
G01X-583327Y698819D01*
G01X-583332Y698882D01*
G01X-583346Y698944D01*
G01X-583369Y699003D01*
G01X-583401Y699058D01*
G01X-583440Y699108D01*
G01X-583487Y699151D01*
G01X-583540Y699187D01*
G01X-583597Y699215D01*
G01X-583657Y699233D01*
G01X-583720Y699243D01*
G01X-583783Y699243D01*
G01X-583846Y699233D01*
G01X-583907Y699215D01*
G01X-583964Y699187D01*
G01X-584017Y699151D01*
G01X-584063Y699108D01*
G01X-584103Y699058D01*
G01X-584135Y699003D01*
G01X-584158Y698944D01*
G01X-584172Y698882D01*
G01X-584177Y698819D01*
G01X-584172Y698756D01*
G01X-584158Y698694D01*
G01X-584135Y698635D01*
G01X-584129Y698625D01*
G01X-585141Y697612D01*
G01X-585155Y697597D01*
G01X-585166Y697580D01*
G01X-585173Y697561D01*
G01X-585178Y697541D01*
G01X-585180Y697521D01*
G01X-585180Y696532D01*
G01X-585197Y696548D01*
G01X-585248Y696581D01*
G01X-585305Y696606D01*
G01X-585363Y696622D01*
G01X-585424Y696629D01*
G01X-585486Y696627D01*
G01X-585546Y696615D01*
G01X-585603Y696595D01*
G01X-585657Y696565D01*
G01X-585706Y696528D01*
G01X-585710Y696525D01*
G01X-585710Y697677D01*
G01X-584945Y698442D01*
G01X-584907Y698423D01*
G01X-584846Y698405D01*
G01X-584783Y698395D01*
G01X-584720Y698395D01*
G01X-584657Y698405D01*
G01X-584597Y698423D01*
G01X-584540Y698451D01*
G01X-584487Y698487D01*
G01X-584440Y698530D01*
G01X-584401Y698580D01*
G01X-584369Y698635D01*
G01X-584346Y698694D01*
G01X-584332Y698756D01*
G01X-584327Y698819D01*
G01X-584332Y698882D01*
G01X-584346Y698944D01*
G01X-584369Y699003D01*
G01X-584401Y699058D01*
G01X-584440Y699108D01*
G01X-584487Y699151D01*
G01X-584540Y699187D01*
G01X-584597Y699215D01*
G01X-584657Y699233D01*
G01X-584720Y699243D01*
G01X-584783Y699243D01*
G01X-584846Y699233D01*
G01X-584907Y699215D01*
G01X-584964Y699187D01*
G01X-585017Y699151D01*
G01X-585063Y699108D01*
G01X-585103Y699058D01*
G01X-585135Y699003D01*
G01X-585158Y698944D01*
G01X-585172Y698882D01*
G01X-585177Y698819D01*
G01X-585172Y698756D01*
G01X-585158Y698694D01*
G01X-585135Y698635D01*
G01X-585129Y698625D01*
G01X-585932Y697822D01*
G01X-585945Y697807D01*
G01X-585956Y697790D01*
G01X-585963Y697771D01*
G01X-585968Y697751D01*
G01X-585970Y697731D01*
G01X-585970Y696532D01*
G01X-585987Y696548D01*
G01X-586038Y696581D01*
G01X-586095Y696606D01*
G01X-586153Y696622D01*
G01X-586214Y696629D01*
G01X-586276Y696627D01*
G01X-586336Y696615D01*
G01X-586393Y696595D01*
G01X-586447Y696565D01*
G01X-586496Y696528D01*
G01X-586538Y696484D01*
G01X-586573Y696434D01*
G01X-586601Y696379D01*
G01X-586619Y696321D01*
G01X-586628Y696260D01*
G01X-586628Y696199D01*
G01X-586619Y696138D01*
G01X-586601Y696080D01*
G01X-586573Y696025D01*
G01X-586538Y695975D01*
G01X-586496Y695931D01*
G01X-586447Y695894D01*
G01X-586393Y695865D01*
G01X-586336Y695844D01*
G01X-586276Y695832D01*
G01X-586259Y695832D01*
G01X-587511Y694581D01*
G01X-587524Y694566D01*
G01X-587535Y694548D01*
G01X-587543Y694529D01*
G01X-587547Y694510D01*
G01X-587549Y694489D01*
G01X-587549Y683804D01*
G01X-587547Y683783D01*
G01X-587543Y683764D01*
G01X-587535Y683745D01*
G01X-587524Y683728D01*
G01X-587511Y683712D01*
G01X-586925Y683125D01*
G01X-586925Y675815D01*
G01X-586923Y675794D01*
G01X-586918Y675775D01*
G01X-586910Y675756D01*
G01X-586900Y675738D01*
G01X-586886Y675723D01*
G01X-586532Y675368D01*
G01X-586562Y675355D01*
G01X-586599Y675328D01*
G01X-586630Y675294D01*
G01X-586653Y675254D01*
G01X-586667Y675210D01*
G01X-586672Y675165D01*
G01X-586667Y675119D01*
G01X-586653Y675075D01*
G01X-586630Y675035D01*
G01X-586599Y675001D01*
G01X-586562Y674974D01*
G01X-586520Y674955D01*
G01X-586475Y674946D01*
G01X-586429Y674946D01*
G01X-586418Y674948D01*
G01X-585602Y674131D01*
G01X-585587Y674118D01*
G01X-585569Y674107D01*
G01X-585550Y674099D01*
G01X-585531Y674095D01*
G01X-585510Y674093D01*
G37*
G36*
G01X-595197Y693304D02*
G01X-595082Y693419D01*
G01X-595063Y693444D01*
G01X-595053Y693474D01*
G01X-595053Y693505D01*
G01X-595063Y693535D01*
G01X-595082Y693560D01*
G01X-595197Y693675D01*
G01X-595382Y693490D01*
G01X-595197Y693305D01*
G01X-595197Y693304D01*
G37*
G36*
G01X-595627Y692931D02*
G01X-595596Y692931D01*
G01X-595566Y692941D01*
G01X-595541Y692960D01*
G01X-595426Y693075D01*
G01X-595612Y693261D01*
G01X-595798Y693075D01*
G01X-595682Y692960D01*
G01X-595657Y692941D01*
G01X-595627Y692931D01*
G37*
G36*
G01X-595925Y686761D02*
G01X-595662Y686761D01*
G01X-595662Y687024D01*
G01X-595825Y687024D01*
G01X-595856Y687019D01*
G01X-595883Y687005D01*
G01X-595906Y686983D01*
G01X-595920Y686955D01*
G01X-595925Y686924D01*
G01X-595925Y686761D01*
G37*
G36*
G01X-595337Y686761D02*
G01X-595075Y686761D01*
G01X-595075Y686924D01*
G01X-595080Y686955D01*
G01X-595093Y686983D01*
G01X-595116Y687005D01*
G01X-595143Y687019D01*
G01X-595175Y687024D01*
G01X-595337Y687024D01*
G01X-595337Y686761D01*
G37*
G36*
G01X-594531Y686175D02*
G01X-594468Y686175D01*
G01X-594405Y686185D01*
G01X-594345Y686203D01*
G01X-594287Y686231D01*
G01X-594235Y686267D01*
G01X-594188Y686310D01*
G01X-594148Y686360D01*
G01X-594117Y686415D01*
G01X-594093Y686474D01*
G01X-594080Y686536D01*
G01X-594075Y686599D01*
G01X-594080Y686662D01*
G01X-594093Y686724D01*
G01X-594117Y686783D01*
G01X-594148Y686838D01*
G01X-594188Y686888D01*
G01X-594235Y686931D01*
G01X-594287Y686967D01*
G01X-594345Y686995D01*
G01X-594405Y687013D01*
G01X-594468Y687023D01*
G01X-594531Y687023D01*
G01X-594594Y687013D01*
G01X-594655Y686995D01*
G01X-594712Y686967D01*
G01X-594765Y686931D01*
G01X-594811Y686888D01*
G01X-594851Y686838D01*
G01X-594882Y686783D01*
G01X-594906Y686724D01*
G01X-594920Y686662D01*
G01X-594925Y686599D01*
G01X-594920Y686536D01*
G01X-594906Y686474D01*
G01X-594882Y686415D01*
G01X-594851Y686360D01*
G01X-594811Y686310D01*
G01X-594765Y686267D01*
G01X-594712Y686231D01*
G01X-594655Y686203D01*
G01X-594594Y686185D01*
G01X-594531Y686175D01*
G37*
G36*
G01X-595825Y686174D02*
G01X-595662Y686174D01*
G01X-595662Y686437D01*
G01X-595925Y686437D01*
G01X-595925Y686274D01*
G01X-595920Y686243D01*
G01X-595906Y686215D01*
G01X-595883Y686193D01*
G01X-595856Y686179D01*
G01X-595825Y686174D01*
G37*
G36*
G01X-595337Y686174D02*
G01X-595175Y686174D01*
G01X-595143Y686179D01*
G01X-595116Y686193D01*
G01X-595093Y686215D01*
G01X-595080Y686243D01*
G01X-595075Y686274D01*
G01X-595075Y686437D01*
G01X-595337Y686437D01*
G01X-595337Y686174D01*
G37*
G36*
G01X-570110Y685914D02*
G01X-569847Y685914D01*
G01X-569847Y686177D01*
G01X-570010Y686177D01*
G01X-570041Y686172D01*
G01X-570069Y686158D01*
G01X-570091Y686136D01*
G01X-570105Y686108D01*
G01X-570110Y686077D01*
G01X-570110Y685914D01*
G37*
G36*
G01X-569523Y685914D02*
G01X-569260Y685914D01*
G01X-569260Y686077D01*
G01X-569265Y686108D01*
G01X-569279Y686136D01*
G01X-569301Y686158D01*
G01X-569329Y686172D01*
G01X-569360Y686177D01*
G01X-569523Y686177D01*
G01X-569523Y685914D01*
G37*
G36*
G01X-595891Y685761D02*
G01X-595662Y685761D01*
G01X-595662Y685991D01*
G01X-595712Y685967D01*
G01X-595765Y685931D01*
G01X-595811Y685888D01*
G01X-595851Y685838D01*
G01X-595882Y685783D01*
G01X-595891Y685761D01*
G37*
G36*
G01X-595337Y685761D02*
G01X-595108Y685761D01*
G01X-595117Y685783D01*
G01X-595148Y685838D01*
G01X-595188Y685888D01*
G01X-595235Y685931D01*
G01X-595287Y685967D01*
G01X-595337Y685991D01*
G01X-595337Y685761D01*
G37*
G36*
G01X-570010Y685327D02*
G01X-569847Y685327D01*
G01X-569847Y685590D01*
G01X-570110Y685590D01*
G01X-570110Y685427D01*
G01X-570105Y685396D01*
G01X-570091Y685368D01*
G01X-570069Y685346D01*
G01X-570041Y685332D01*
G01X-570010Y685327D01*
G37*
G36*
G01X-569523Y685327D02*
G01X-569360Y685327D01*
G01X-569329Y685332D01*
G01X-569301Y685346D01*
G01X-569279Y685368D01*
G01X-569265Y685396D01*
G01X-569260Y685427D01*
G01X-569260Y685590D01*
G01X-569523Y685590D01*
G01X-569523Y685327D01*
G37*
G36*
G01X-572892Y675243D02*
G01X-572706Y675428D01*
G01X-572821Y675543D01*
G01X-572846Y675562D01*
G01X-572876Y675572D01*
G01X-572907Y675572D01*
G01X-572937Y675562D01*
G01X-572962Y675543D01*
G01X-573077Y675428D01*
G01X-572892Y675243D01*
G37*
G36*
G01X-595662Y685207D02*
G01X-595662Y685437D01*
G01X-595891Y685437D01*
G01X-595882Y685415D01*
G01X-595851Y685360D01*
G01X-595811Y685310D01*
G01X-595765Y685267D01*
G01X-595712Y685231D01*
G01X-595662Y685207D01*
G37*
G36*
G01X-595337Y685207D02*
G01X-595287Y685231D01*
G01X-595235Y685267D01*
G01X-595188Y685310D01*
G01X-595148Y685360D01*
G01X-595117Y685415D01*
G01X-595108Y685437D01*
G01X-595337Y685437D01*
G01X-595337Y685207D01*
G37*
G36*
G01X-594531Y685175D02*
G01X-594468Y685175D01*
G01X-594405Y685185D01*
G01X-594345Y685203D01*
G01X-594287Y685231D01*
G01X-594235Y685267D01*
G01X-594188Y685310D01*
G01X-594148Y685360D01*
G01X-594117Y685415D01*
G01X-594093Y685474D01*
G01X-594080Y685536D01*
G01X-594075Y685599D01*
G01X-594080Y685662D01*
G01X-594093Y685724D01*
G01X-594117Y685783D01*
G01X-594148Y685838D01*
G01X-594188Y685888D01*
G01X-594235Y685931D01*
G01X-594287Y685967D01*
G01X-594345Y685995D01*
G01X-594405Y686013D01*
G01X-594468Y686023D01*
G01X-594531Y686023D01*
G01X-594594Y686013D01*
G01X-594655Y685995D01*
G01X-594712Y685967D01*
G01X-594765Y685931D01*
G01X-594811Y685888D01*
G01X-594851Y685838D01*
G01X-594882Y685783D01*
G01X-594906Y685724D01*
G01X-594920Y685662D01*
G01X-594925Y685599D01*
G01X-594920Y685536D01*
G01X-594906Y685474D01*
G01X-594882Y685415D01*
G01X-594851Y685360D01*
G01X-594811Y685310D01*
G01X-594765Y685267D01*
G01X-594712Y685231D01*
G01X-594655Y685203D01*
G01X-594594Y685185D01*
G01X-594531Y685175D01*
G37*
G36*
G01X-595891Y684761D02*
G01X-595662Y684761D01*
G01X-595662Y684991D01*
G01X-595712Y684967D01*
G01X-595765Y684931D01*
G01X-595811Y684888D01*
G01X-595851Y684838D01*
G01X-595882Y684783D01*
G01X-595891Y684761D01*
G37*
G36*
G01X-579537Y678275D02*
G01X-579375Y678275D01*
G01X-579343Y678280D01*
G01X-579316Y678293D01*
G01X-579293Y678316D01*
G01X-579280Y678343D01*
G01X-579275Y678375D01*
G01X-579275Y678537D01*
G01X-579537Y678537D01*
G01X-579537Y678275D01*
G37*
G36*
G01X-580025Y678275D02*
G01X-579862Y678275D01*
G01X-579862Y678537D01*
G01X-580125Y678537D01*
G01X-580125Y678375D01*
G01X-580120Y678343D01*
G01X-580106Y678316D01*
G01X-580083Y678293D01*
G01X-580056Y678280D01*
G01X-580025Y678275D01*
G37*
G36*
G01X-577731Y678276D02*
G01X-577668Y678276D01*
G01X-577605Y678285D01*
G01X-577545Y678304D01*
G01X-577487Y678331D01*
G01X-577435Y678367D01*
G01X-577388Y678411D01*
G01X-577348Y678460D01*
G01X-577317Y678515D01*
G01X-577293Y678575D01*
G01X-577280Y678636D01*
G01X-577275Y678700D01*
G01X-577279Y678752D01*
G01X-576786Y679246D01*
G01X-576759Y679277D01*
G01X-576738Y679312D01*
G01X-576722Y679349D01*
G01X-576713Y679389D01*
G01X-576710Y679430D01*
G01X-576710Y682636D01*
G01X-576707Y682633D01*
G01X-576657Y682600D01*
G01X-576607Y682576D01*
G01X-576607Y682787D01*
G01X-576710Y682787D01*
G01X-576710Y683062D01*
G01X-576607Y683062D01*
G01X-576607Y683273D01*
G01X-576657Y683250D01*
G01X-576707Y683216D01*
G01X-576710Y683213D01*
G01X-576710Y683597D01*
G01X-576476Y683830D01*
G01X-576425Y683832D01*
G01X-576365Y683844D01*
G01X-576308Y683865D01*
G01X-576256Y683896D01*
G01X-576210Y683933D01*
G01X-576170Y683979D01*
G01X-576137Y684030D01*
G01X-576113Y684086D01*
G01X-576099Y684145D01*
G01X-576094Y684205D01*
G01X-576099Y684265D01*
G01X-576113Y684323D01*
G01X-576137Y684379D01*
G01X-576170Y684430D01*
G01X-576210Y684476D01*
G01X-576256Y684513D01*
G01X-576308Y684544D01*
G01X-576365Y684565D01*
G01X-576425Y684577D01*
G01X-576485Y684580D01*
G01X-576545Y684572D01*
G01X-576603Y684556D01*
G01X-576657Y684530D01*
G01X-576707Y684496D01*
G01X-576751Y684453D01*
G01X-576787Y684405D01*
G01X-576815Y684352D01*
G01X-576834Y684295D01*
G01X-576844Y684235D01*
G01X-576844Y684198D01*
G01X-577153Y683888D01*
G01X-577180Y683857D01*
G01X-577201Y683822D01*
G01X-577217Y683785D01*
G01X-577226Y683745D01*
G01X-577230Y683705D01*
G01X-577230Y683212D01*
G01X-577256Y683233D01*
G01X-577308Y683264D01*
G01X-577365Y683285D01*
G01X-577425Y683297D01*
G01X-577485Y683300D01*
G01X-577545Y683292D01*
G01X-577603Y683276D01*
G01X-577657Y683250D01*
G01X-577707Y683216D01*
G01X-577751Y683173D01*
G01X-577787Y683125D01*
G01X-577815Y683072D01*
G01X-577834Y683015D01*
G01X-577844Y682955D01*
G01X-577844Y682895D01*
G01X-577834Y682835D01*
G01X-577815Y682777D01*
G01X-577787Y682724D01*
G01X-577751Y682676D01*
G01X-577707Y682633D01*
G01X-577657Y682600D01*
G01X-577603Y682573D01*
G01X-577545Y682557D01*
G01X-577485Y682550D01*
G01X-577425Y682552D01*
G01X-577365Y682564D01*
G01X-577308Y682585D01*
G01X-577256Y682616D01*
G01X-577230Y682637D01*
G01X-577230Y679537D01*
G01X-577647Y679120D01*
G01X-577668Y679123D01*
G01X-577731Y679123D01*
G01X-577794Y679114D01*
G01X-577855Y679095D01*
G01X-577912Y679068D01*
G01X-577965Y679032D01*
G01X-578011Y678988D01*
G01X-578051Y678939D01*
G01X-578082Y678884D01*
G01X-578106Y678825D01*
G01X-578120Y678763D01*
G01X-578125Y678700D01*
G01X-578120Y678636D01*
G01X-578106Y678575D01*
G01X-578082Y678515D01*
G01X-578051Y678460D01*
G01X-578011Y678411D01*
G01X-577965Y678367D01*
G01X-577912Y678331D01*
G01X-577855Y678304D01*
G01X-577794Y678285D01*
G01X-577731Y678276D01*
G37*
G36*
G01X-578731Y678276D02*
G01X-578668Y678276D01*
G01X-578605Y678285D01*
G01X-578545Y678304D01*
G01X-578487Y678331D01*
G01X-578435Y678367D01*
G01X-578388Y678411D01*
G01X-578348Y678460D01*
G01X-578317Y678515D01*
G01X-578293Y678575D01*
G01X-578280Y678636D01*
G01X-578275Y678700D01*
G01X-578280Y678763D01*
G01X-578293Y678825D01*
G01X-578317Y678884D01*
G01X-578348Y678939D01*
G01X-578388Y678988D01*
G01X-578435Y679032D01*
G01X-578487Y679068D01*
G01X-578545Y679095D01*
G01X-578605Y679114D01*
G01X-578668Y679123D01*
G01X-578731Y679123D01*
G01X-578794Y679114D01*
G01X-578855Y679095D01*
G01X-578912Y679068D01*
G01X-578965Y679032D01*
G01X-579011Y678988D01*
G01X-579051Y678939D01*
G01X-579082Y678884D01*
G01X-579106Y678825D01*
G01X-579120Y678763D01*
G01X-579125Y678700D01*
G01X-579120Y678636D01*
G01X-579106Y678575D01*
G01X-579082Y678515D01*
G01X-579051Y678460D01*
G01X-579011Y678411D01*
G01X-578965Y678367D01*
G01X-578912Y678331D01*
G01X-578855Y678304D01*
G01X-578794Y678285D01*
G01X-578731Y678276D01*
G37*
G36*
G01X-579537Y678862D02*
G01X-579275Y678862D01*
G01X-579275Y679025D01*
G01X-579280Y679056D01*
G01X-579293Y679083D01*
G01X-579316Y679106D01*
G01X-579343Y679120D01*
G01X-579375Y679125D01*
G01X-579537Y679125D01*
G01X-579537Y678862D01*
G37*
G36*
G01X-580125Y678862D02*
G01X-579862Y678862D01*
G01X-579862Y679125D01*
G01X-580025Y679125D01*
G01X-580056Y679120D01*
G01X-580083Y679106D01*
G01X-580106Y679083D01*
G01X-580120Y679056D01*
G01X-580125Y679025D01*
G01X-580125Y678862D01*
G37*
G36*
G01X-595337Y684761D02*
G01X-595108Y684761D01*
G01X-595117Y684783D01*
G01X-595148Y684838D01*
G01X-595188Y684888D01*
G01X-595235Y684931D01*
G01X-595287Y684967D01*
G01X-595337Y684991D01*
G01X-595337Y684761D01*
G37*
G36*
G01X-594531Y679175D02*
G01X-594468Y679175D01*
G01X-594405Y679185D01*
G01X-594345Y679203D01*
G01X-594287Y679231D01*
G01X-594235Y679267D01*
G01X-594188Y679310D01*
G01X-594148Y679360D01*
G01X-594117Y679415D01*
G01X-594093Y679474D01*
G01X-594080Y679536D01*
G01X-594075Y679599D01*
G01X-594080Y679662D01*
G01X-594093Y679724D01*
G01X-594117Y679783D01*
G01X-594148Y679838D01*
G01X-594188Y679888D01*
G01X-594235Y679931D01*
G01X-594287Y679967D01*
G01X-594345Y679995D01*
G01X-594405Y680013D01*
G01X-594468Y680023D01*
G01X-594531Y680023D01*
G01X-594594Y680013D01*
G01X-594655Y679995D01*
G01X-594712Y679967D01*
G01X-594765Y679931D01*
G01X-594811Y679888D01*
G01X-594851Y679838D01*
G01X-594882Y679783D01*
G01X-594906Y679724D01*
G01X-594920Y679662D01*
G01X-594925Y679599D01*
G01X-594920Y679536D01*
G01X-594906Y679474D01*
G01X-594882Y679415D01*
G01X-594851Y679360D01*
G01X-594811Y679310D01*
G01X-594765Y679267D01*
G01X-594712Y679231D01*
G01X-594655Y679203D01*
G01X-594594Y679185D01*
G01X-594531Y679175D01*
G37*
G36*
G01X-595337Y679207D02*
G01X-595287Y679231D01*
G01X-595235Y679267D01*
G01X-595188Y679310D01*
G01X-595148Y679360D01*
G01X-595117Y679415D01*
G01X-595108Y679437D01*
G01X-595337Y679437D01*
G01X-595337Y679207D01*
G37*
G36*
G01X-595662Y679207D02*
G01X-595662Y679437D01*
G01X-595891Y679437D01*
G01X-595882Y679415D01*
G01X-595851Y679360D01*
G01X-595811Y679310D01*
G01X-595765Y679267D01*
G01X-595712Y679231D01*
G01X-595662Y679207D01*
G37*
G36*
G01X-595337Y679761D02*
G01X-595108Y679761D01*
G01X-595117Y679783D01*
G01X-595148Y679838D01*
G01X-595188Y679888D01*
G01X-595235Y679931D01*
G01X-595287Y679967D01*
G01X-595337Y679991D01*
G01X-595337Y679761D01*
G37*
G36*
G01X-595891Y679761D02*
G01X-595662Y679761D01*
G01X-595662Y679991D01*
G01X-595712Y679967D01*
G01X-595765Y679931D01*
G01X-595811Y679888D01*
G01X-595851Y679838D01*
G01X-595882Y679783D01*
G01X-595891Y679761D01*
G37*
G36*
G01X-595662Y684207D02*
G01X-595662Y684437D01*
G01X-595891Y684437D01*
G01X-595882Y684415D01*
G01X-595851Y684360D01*
G01X-595811Y684310D01*
G01X-595765Y684267D01*
G01X-595712Y684231D01*
G01X-595662Y684207D01*
G37*
G36*
G01X-594531Y680175D02*
G01X-594468Y680175D01*
G01X-594405Y680185D01*
G01X-594345Y680203D01*
G01X-594287Y680231D01*
G01X-594235Y680267D01*
G01X-594188Y680310D01*
G01X-594148Y680360D01*
G01X-594117Y680415D01*
G01X-594093Y680474D01*
G01X-594080Y680536D01*
G01X-594075Y680599D01*
G01X-594080Y680662D01*
G01X-594093Y680724D01*
G01X-594117Y680783D01*
G01X-594148Y680838D01*
G01X-594188Y680888D01*
G01X-594235Y680931D01*
G01X-594287Y680967D01*
G01X-594345Y680995D01*
G01X-594405Y681013D01*
G01X-594468Y681023D01*
G01X-594531Y681023D01*
G01X-594594Y681013D01*
G01X-594655Y680995D01*
G01X-594712Y680967D01*
G01X-594765Y680931D01*
G01X-594811Y680888D01*
G01X-594851Y680838D01*
G01X-594882Y680783D01*
G01X-594906Y680724D01*
G01X-594920Y680662D01*
G01X-594925Y680599D01*
G01X-594920Y680536D01*
G01X-594906Y680474D01*
G01X-594882Y680415D01*
G01X-594851Y680360D01*
G01X-594811Y680310D01*
G01X-594765Y680267D01*
G01X-594712Y680231D01*
G01X-594655Y680203D01*
G01X-594594Y680185D01*
G01X-594531Y680175D01*
G37*
G36*
G01X-595337Y680207D02*
G01X-595287Y680231D01*
G01X-595235Y680267D01*
G01X-595188Y680310D01*
G01X-595148Y680360D01*
G01X-595117Y680415D01*
G01X-595108Y680437D01*
G01X-595337Y680437D01*
G01X-595337Y680207D01*
G37*
G36*
G01X-595662Y680207D02*
G01X-595662Y680437D01*
G01X-595891Y680437D01*
G01X-595882Y680415D01*
G01X-595851Y680360D01*
G01X-595811Y680310D01*
G01X-595765Y680267D01*
G01X-595712Y680231D01*
G01X-595662Y680207D01*
G37*
G36*
G01X-595337Y680761D02*
G01X-595108Y680761D01*
G01X-595117Y680783D01*
G01X-595148Y680838D01*
G01X-595188Y680888D01*
G01X-595235Y680931D01*
G01X-595287Y680967D01*
G01X-595337Y680991D01*
G01X-595337Y680761D01*
G37*
G36*
G01X-595891Y680761D02*
G01X-595662Y680761D01*
G01X-595662Y680991D01*
G01X-595712Y680967D01*
G01X-595765Y680931D01*
G01X-595811Y680888D01*
G01X-595851Y680838D01*
G01X-595882Y680783D01*
G01X-595891Y680761D01*
G37*
G36*
G01X-594531Y681175D02*
G01X-594468Y681175D01*
G01X-594405Y681185D01*
G01X-594345Y681203D01*
G01X-594287Y681231D01*
G01X-594235Y681267D01*
G01X-594188Y681310D01*
G01X-594148Y681360D01*
G01X-594117Y681415D01*
G01X-594093Y681474D01*
G01X-594080Y681536D01*
G01X-594075Y681599D01*
G01X-594080Y681662D01*
G01X-594093Y681724D01*
G01X-594117Y681783D01*
G01X-594148Y681838D01*
G01X-594188Y681888D01*
G01X-594235Y681931D01*
G01X-594287Y681967D01*
G01X-594345Y681995D01*
G01X-594405Y682013D01*
G01X-594468Y682023D01*
G01X-594531Y682023D01*
G01X-594594Y682013D01*
G01X-594655Y681995D01*
G01X-594712Y681967D01*
G01X-594765Y681931D01*
G01X-594811Y681888D01*
G01X-594851Y681838D01*
G01X-594882Y681783D01*
G01X-594906Y681724D01*
G01X-594920Y681662D01*
G01X-594925Y681599D01*
G01X-594920Y681536D01*
G01X-594906Y681474D01*
G01X-594882Y681415D01*
G01X-594851Y681360D01*
G01X-594811Y681310D01*
G01X-594765Y681267D01*
G01X-594712Y681231D01*
G01X-594655Y681203D01*
G01X-594594Y681185D01*
G01X-594531Y681175D01*
G37*
G36*
G01X-595337Y681207D02*
G01X-595287Y681231D01*
G01X-595235Y681267D01*
G01X-595188Y681310D01*
G01X-595148Y681360D01*
G01X-595117Y681415D01*
G01X-595108Y681437D01*
G01X-595337Y681437D01*
G01X-595337Y681207D01*
G37*
G36*
G01X-595662Y681207D02*
G01X-595662Y681437D01*
G01X-595891Y681437D01*
G01X-595882Y681415D01*
G01X-595851Y681360D01*
G01X-595811Y681310D01*
G01X-595765Y681267D01*
G01X-595712Y681231D01*
G01X-595662Y681207D01*
G37*
G36*
G01X-595337Y681761D02*
G01X-595108Y681761D01*
G01X-595117Y681783D01*
G01X-595148Y681838D01*
G01X-595188Y681888D01*
G01X-595235Y681931D01*
G01X-595287Y681967D01*
G01X-595337Y681991D01*
G01X-595337Y681761D01*
G37*
G36*
G01X-595891Y681761D02*
G01X-595662Y681761D01*
G01X-595662Y681991D01*
G01X-595712Y681967D01*
G01X-595765Y681931D01*
G01X-595811Y681888D01*
G01X-595851Y681838D01*
G01X-595882Y681783D01*
G01X-595891Y681761D01*
G37*
G36*
G01X-594531Y682175D02*
G01X-594468Y682175D01*
G01X-594405Y682185D01*
G01X-594345Y682203D01*
G01X-594287Y682231D01*
G01X-594235Y682267D01*
G01X-594188Y682310D01*
G01X-594148Y682360D01*
G01X-594117Y682415D01*
G01X-594093Y682474D01*
G01X-594080Y682536D01*
G01X-594075Y682599D01*
G01X-594080Y682662D01*
G01X-594093Y682724D01*
G01X-594117Y682783D01*
G01X-594148Y682838D01*
G01X-594188Y682888D01*
G01X-594235Y682931D01*
G01X-594287Y682967D01*
G01X-594345Y682995D01*
G01X-594405Y683013D01*
G01X-594468Y683023D01*
G01X-594531Y683023D01*
G01X-594594Y683013D01*
G01X-594655Y682995D01*
G01X-594712Y682967D01*
G01X-594765Y682931D01*
G01X-594811Y682888D01*
G01X-594851Y682838D01*
G01X-594882Y682783D01*
G01X-594906Y682724D01*
G01X-594920Y682662D01*
G01X-594925Y682599D01*
G01X-594920Y682536D01*
G01X-594906Y682474D01*
G01X-594882Y682415D01*
G01X-594851Y682360D01*
G01X-594811Y682310D01*
G01X-594765Y682267D01*
G01X-594712Y682231D01*
G01X-594655Y682203D01*
G01X-594594Y682185D01*
G01X-594531Y682175D01*
G37*
G36*
G01X-595337Y684207D02*
G01X-595287Y684231D01*
G01X-595235Y684267D01*
G01X-595188Y684310D01*
G01X-595148Y684360D01*
G01X-595117Y684415D01*
G01X-595108Y684437D01*
G01X-595337Y684437D01*
G01X-595337Y684207D01*
G37*
G36*
G01X-595337Y682207D02*
G01X-595287Y682231D01*
G01X-595235Y682267D01*
G01X-595188Y682310D01*
G01X-595148Y682360D01*
G01X-595117Y682415D01*
G01X-595108Y682437D01*
G01X-595337Y682437D01*
G01X-595337Y682207D01*
G37*
G36*
G01X-595662Y682207D02*
G01X-595662Y682437D01*
G01X-595891Y682437D01*
G01X-595882Y682415D01*
G01X-595851Y682360D01*
G01X-595811Y682310D01*
G01X-595765Y682267D01*
G01X-595712Y682231D01*
G01X-595662Y682207D01*
G37*
G36*
G01X-594531Y684175D02*
G01X-594468Y684175D01*
G01X-594405Y684185D01*
G01X-594345Y684203D01*
G01X-594287Y684231D01*
G01X-594235Y684267D01*
G01X-594188Y684310D01*
G01X-594148Y684360D01*
G01X-594117Y684415D01*
G01X-594093Y684474D01*
G01X-594080Y684536D01*
G01X-594075Y684599D01*
G01X-594080Y684662D01*
G01X-594093Y684724D01*
G01X-594117Y684783D01*
G01X-594148Y684838D01*
G01X-594188Y684888D01*
G01X-594235Y684931D01*
G01X-594287Y684967D01*
G01X-594345Y684995D01*
G01X-594405Y685013D01*
G01X-594468Y685023D01*
G01X-594531Y685023D01*
G01X-594594Y685013D01*
G01X-594655Y684995D01*
G01X-594712Y684967D01*
G01X-594765Y684931D01*
G01X-594811Y684888D01*
G01X-594851Y684838D01*
G01X-594882Y684783D01*
G01X-594906Y684724D01*
G01X-594920Y684662D01*
G01X-594925Y684599D01*
G01X-594920Y684536D01*
G01X-594906Y684474D01*
G01X-594882Y684415D01*
G01X-594851Y684360D01*
G01X-594811Y684310D01*
G01X-594765Y684267D01*
G01X-594712Y684231D01*
G01X-594655Y684203D01*
G01X-594594Y684185D01*
G01X-594531Y684175D01*
G37*
G36*
G01X-599144Y682327D02*
G01X-598981Y682327D01*
G01X-598981Y682590D01*
G01X-599244Y682590D01*
G01X-599244Y682427D01*
G01X-599239Y682396D01*
G01X-599225Y682368D01*
G01X-599203Y682346D01*
G01X-599175Y682332D01*
G01X-599144Y682327D01*
G37*
G36*
G01X-577485Y683830D02*
G01X-577425Y683832D01*
G01X-577365Y683844D01*
G01X-577308Y683865D01*
G01X-577256Y683896D01*
G01X-577210Y683933D01*
G01X-577170Y683979D01*
G01X-577137Y684030D01*
G01X-577113Y684086D01*
G01X-577099Y684145D01*
G01X-577094Y684205D01*
G01X-577099Y684265D01*
G01X-577113Y684323D01*
G01X-577137Y684379D01*
G01X-577170Y684430D01*
G01X-577210Y684476D01*
G01X-577256Y684513D01*
G01X-577308Y684544D01*
G01X-577365Y684565D01*
G01X-577425Y684577D01*
G01X-577485Y684580D01*
G01X-577545Y684572D01*
G01X-577603Y684556D01*
G01X-577657Y684530D01*
G01X-577707Y684496D01*
G01X-577751Y684453D01*
G01X-577787Y684405D01*
G01X-577815Y684352D01*
G01X-577834Y684295D01*
G01X-577844Y684235D01*
G01X-577844Y684175D01*
G01X-577834Y684115D01*
G01X-577815Y684057D01*
G01X-577787Y684004D01*
G01X-577751Y683956D01*
G01X-577707Y683913D01*
G01X-577657Y683880D01*
G01X-577603Y683853D01*
G01X-577545Y683837D01*
G01X-577485Y683830D01*
G37*
G36*
G01X-595891Y683761D02*
G01X-595662Y683761D01*
G01X-595662Y683991D01*
G01X-595712Y683967D01*
G01X-595765Y683931D01*
G01X-595811Y683888D01*
G01X-595851Y683838D01*
G01X-595882Y683783D01*
G01X-595891Y683761D01*
G37*
G36*
G01X-579360Y682571D02*
G01X-579277Y682573D01*
G01X-579195Y682585D01*
G01X-579114Y682606D01*
G01X-579037Y682636D01*
G01X-578963Y682675D01*
G01X-578894Y682722D01*
G01X-578831Y682776D01*
G01X-578775Y682838D01*
G01X-578726Y682905D01*
G01X-578685Y682978D01*
G01X-578652Y683055D01*
G01X-578629Y683135D01*
G01X-578615Y683216D01*
G01X-578610Y683300D01*
G01X-578615Y683383D01*
G01X-578629Y683465D01*
G01X-578652Y683545D01*
G01X-578685Y683621D01*
G01X-578726Y683694D01*
G01X-578775Y683761D01*
G01X-578831Y683823D01*
G01X-578894Y683877D01*
G01X-578963Y683924D01*
G01X-579037Y683963D01*
G01X-579114Y683993D01*
G01X-579195Y684015D01*
G01X-579277Y684026D01*
G01X-579360Y684028D01*
G01X-579443Y684022D01*
G01X-579525Y684005D01*
G01X-579604Y683980D01*
G01X-579680Y683945D01*
G01X-579751Y683902D01*
G01X-579817Y683851D01*
G01X-579877Y683793D01*
G01X-579930Y683728D01*
G01X-579975Y683658D01*
G01X-580011Y683583D01*
G01X-580040Y683505D01*
G01X-580058Y683424D01*
G01X-580068Y683341D01*
G01X-580068Y683258D01*
G01X-580058Y683175D01*
G01X-580040Y683094D01*
G01X-580011Y683016D01*
G01X-579975Y682941D01*
G01X-579930Y682871D01*
G01X-579877Y682806D01*
G01X-579817Y682748D01*
G01X-579751Y682697D01*
G01X-579680Y682655D01*
G01X-579604Y682620D01*
G01X-579525Y682594D01*
G01X-579443Y682577D01*
G01X-579360Y682571D01*
G37*
G36*
G01X-574620Y682571D02*
G01X-574537Y682573D01*
G01X-574455Y682585D01*
G01X-574374Y682606D01*
G01X-574297Y682636D01*
G01X-574223Y682675D01*
G01X-574154Y682722D01*
G01X-574091Y682776D01*
G01X-574035Y682838D01*
G01X-573986Y682905D01*
G01X-573945Y682978D01*
G01X-573912Y683055D01*
G01X-573889Y683135D01*
G01X-573875Y683216D01*
G01X-573870Y683300D01*
G01X-573875Y683383D01*
G01X-573889Y683465D01*
G01X-573912Y683545D01*
G01X-573945Y683621D01*
G01X-573986Y683694D01*
G01X-574035Y683761D01*
G01X-574091Y683823D01*
G01X-574154Y683877D01*
G01X-574223Y683924D01*
G01X-574297Y683963D01*
G01X-574374Y683993D01*
G01X-574455Y684015D01*
G01X-574537Y684026D01*
G01X-574620Y684028D01*
G01X-574703Y684022D01*
G01X-574785Y684005D01*
G01X-574864Y683980D01*
G01X-574940Y683945D01*
G01X-575011Y683902D01*
G01X-575077Y683851D01*
G01X-575137Y683793D01*
G01X-575190Y683728D01*
G01X-575235Y683658D01*
G01X-575271Y683583D01*
G01X-575300Y683505D01*
G01X-575318Y683424D01*
G01X-575328Y683341D01*
G01X-575328Y683258D01*
G01X-575318Y683175D01*
G01X-575300Y683094D01*
G01X-575271Y683016D01*
G01X-575235Y682941D01*
G01X-575190Y682871D01*
G01X-575137Y682806D01*
G01X-575077Y682748D01*
G01X-575011Y682697D01*
G01X-574940Y682655D01*
G01X-574864Y682620D01*
G01X-574785Y682594D01*
G01X-574703Y682577D01*
G01X-574620Y682571D01*
G37*
G36*
G01X-595337Y683761D02*
G01X-595108Y683761D01*
G01X-595117Y683783D01*
G01X-595148Y683838D01*
G01X-595188Y683888D01*
G01X-595235Y683931D01*
G01X-595287Y683967D01*
G01X-595337Y683991D01*
G01X-595337Y683761D01*
G37*
G36*
G01X-576332Y682576D02*
G01X-576308Y682585D01*
G01X-576256Y682616D01*
G01X-576210Y682653D01*
G01X-576170Y682699D01*
G01X-576137Y682750D01*
G01X-576121Y682787D01*
G01X-576332Y682787D01*
G01X-576332Y682576D01*
G37*
G36*
G01X-595337Y682761D02*
G01X-595108Y682761D01*
G01X-595117Y682783D01*
G01X-595148Y682838D01*
G01X-595188Y682888D01*
G01X-595235Y682931D01*
G01X-595287Y682967D01*
G01X-595337Y682991D01*
G01X-595337Y682761D01*
G37*
G36*
G01X-595891Y682761D02*
G01X-595662Y682761D01*
G01X-595662Y682991D01*
G01X-595712Y682967D01*
G01X-595765Y682931D01*
G01X-595811Y682888D01*
G01X-595851Y682838D01*
G01X-595882Y682783D01*
G01X-595891Y682761D01*
G37*
G36*
G01X-582590Y669260D02*
G01X-582427Y669260D01*
G01X-582396Y669265D01*
G01X-582368Y669278D01*
G01X-582346Y669301D01*
G01X-582332Y669328D01*
G01X-582327Y669360D01*
G01X-582327Y669522D01*
G01X-582590Y669522D01*
G01X-582590Y669260D01*
G37*
G36*
G01X-595662Y683207D02*
G01X-595662Y683437D01*
G01X-595891Y683437D01*
G01X-595882Y683415D01*
G01X-595851Y683360D01*
G01X-595811Y683310D01*
G01X-595765Y683267D01*
G01X-595712Y683231D01*
G01X-595662Y683207D01*
G37*
G36*
G01X-599244Y682914D02*
G01X-598981Y682914D01*
G01X-598981Y683177D01*
G01X-599144Y683177D01*
G01X-599175Y683172D01*
G01X-599203Y683158D01*
G01X-599225Y683136D01*
G01X-599239Y683108D01*
G01X-599244Y683077D01*
G01X-599244Y682914D01*
G37*
G36*
G01X-595337Y683207D02*
G01X-595287Y683231D01*
G01X-595235Y683267D01*
G01X-595188Y683310D01*
G01X-595148Y683360D01*
G01X-595117Y683415D01*
G01X-595108Y683437D01*
G01X-595337Y683437D01*
G01X-595337Y683207D01*
G37*
G36*
G01X-576332Y683062D02*
G01X-576121Y683062D01*
G01X-576137Y683099D01*
G01X-576170Y683150D01*
G01X-576210Y683196D01*
G01X-576256Y683233D01*
G01X-576308Y683264D01*
G01X-576332Y683273D01*
G01X-576332Y683062D01*
G37*
G36*
G01X-594531Y683175D02*
G01X-594468Y683175D01*
G01X-594405Y683185D01*
G01X-594345Y683203D01*
G01X-594287Y683231D01*
G01X-594235Y683267D01*
G01X-594188Y683310D01*
G01X-594148Y683360D01*
G01X-594117Y683415D01*
G01X-594093Y683474D01*
G01X-594080Y683536D01*
G01X-594075Y683599D01*
G01X-594080Y683662D01*
G01X-594093Y683724D01*
G01X-594117Y683783D01*
G01X-594148Y683838D01*
G01X-594188Y683888D01*
G01X-594235Y683931D01*
G01X-594287Y683967D01*
G01X-594345Y683995D01*
G01X-594405Y684013D01*
G01X-594468Y684023D01*
G01X-594531Y684023D01*
G01X-594594Y684013D01*
G01X-594655Y683995D01*
G01X-594712Y683967D01*
G01X-594765Y683931D01*
G01X-594811Y683888D01*
G01X-594851Y683838D01*
G01X-594882Y683783D01*
G01X-594906Y683724D01*
G01X-594920Y683662D01*
G01X-594925Y683599D01*
G01X-594920Y683536D01*
G01X-594906Y683474D01*
G01X-594882Y683415D01*
G01X-594851Y683360D01*
G01X-594811Y683310D01*
G01X-594765Y683267D01*
G01X-594712Y683231D01*
G01X-594655Y683203D01*
G01X-594594Y683185D01*
G01X-594531Y683175D01*
G37*

%LPD*%
G54D11*
G01X-593491Y695611D02*
G01X-594132Y695611D01*
G01X-596925Y692818D01*
G01X-596925Y687646D01*
G01X-598819Y685752D01*
G01X-587312Y676818D02*
G01X-587312Y674594D01*
G01X-584814Y672096D01*
G01X-584814Y672029D01*
G01X-587393Y681734D02*
G01X-587393Y676899D01*
G01X-587312Y676818D01*
G01X-587393Y681734D02*
G01X-587379Y681746D01*
G01X-587379Y682970D01*
G01X-585752Y669685D02*
G01X-584814Y670623D01*
G01X-584814Y672029D01*
G01X-569685Y682752D02*
G01X-572624Y679813D01*
G01X-572624Y677790D01*
G01X-569685Y682752D02*
G01X-572893Y685960D01*
G01X-572893Y693491D01*
G01X-582752Y698819D02*
G01X-582519Y698819D01*
G01X-579930Y696230D01*
G01X-579700Y678285D02*
G01X-579700Y673353D01*
G01X-580092Y672961D01*
G01X-580092Y671807D01*
G01X-579992Y671707D01*
G01X-582337Y669685D02*
G01X-582337Y670100D01*
G01X-580730Y671707D01*
G01X-579992Y671707D01*
G01X-576470Y678285D02*
G01X-576470Y682925D01*
G01X-572892Y675014D02*
G01X-576163Y678285D01*
G01X-576470Y678285D01*
G01X-576470Y678285D02*
G01X-579700Y678285D01*
G01X-595612Y693490D02*
G01X-595612Y692940D01*
G01X-595612Y692940D02*
G01X-595500Y692828D01*
G01X-595500Y686599D01*
G01X-582752Y669685D02*
G01X-582337Y669685D01*
G01X-579700Y678700D02*
G01X-579700Y678285D01*
G01X-595500Y685599D02*
G01X-595500Y686599D01*
G01X-595500Y684599D02*
G01X-595500Y685599D01*
G01X-595500Y683599D02*
G01X-595500Y684599D01*
G01X-595500Y682599D02*
G01X-595500Y683599D01*
G01X-595500Y681599D02*
G01X-595500Y682599D01*
G01X-595500Y680599D02*
G01X-595500Y681599D01*
G01X-595500Y679599D02*
G01X-595500Y680599D01*
G01X-593490Y672892D02*
G01X-593490Y677589D01*
G01X-595500Y679599D01*
G01X-585752Y698819D02*
G01X-585752Y698404D01*
G01X-585752Y698404D02*
G01X-587010Y697146D01*
G01X-587010Y696230D01*
G54D12*
G01X-576470Y684205D02*
G01X-576970Y683705D01*
G01X-576970Y679430D01*
G01X-577700Y678700D01*
G54D11*
G01X-581500Y696230D02*
G01X-582685Y695045D01*
G01X-582685Y686142D01*
G01X-580710Y696230D02*
G01X-581895Y695045D01*
G01X-581895Y680230D01*
G01X-586452Y675165D02*
G01X-585510Y674223D01*
G01X-584820Y674223D01*
G01X-582040Y677003D01*
G01X-582040Y679134D01*
G01X-590535Y674755D02*
G01X-590535Y689827D01*
G01X-594905Y694196D01*
G01X-594198Y694904D02*
G01X-587913Y688619D01*
G01X-587913Y674898D01*
G01X-586554Y673538D01*
G01X-584752Y698819D02*
G01X-585840Y697731D01*
G01X-585840Y696068D01*
G01X-587419Y694489D01*
G01X-587419Y683804D01*
G01X-586795Y683179D01*
G01X-586795Y675815D01*
G01X-585419Y674439D01*
G01X-583752Y698819D02*
G01X-585050Y697521D01*
G01X-585050Y696068D01*
G01X-585835Y695284D01*
G01X-585835Y687180D01*
G01X-586323Y686691D01*
G01X-586323Y676085D01*
G01X-584791Y674552D01*
G01X-574307Y694905D02*
G01X-574307Y692299D01*
G01X-581095Y685511D01*
G01X-581095Y674634D01*
G01X-582716Y673013D01*
G01X-573600Y694198D02*
G01X-573600Y692444D01*
G01X-580975Y685069D01*
G01X-580975Y673289D01*
G01X-569685Y684752D02*
G01X-569252Y684319D01*
G01X-569252Y680365D01*
G01X-572288Y677328D01*
G01X-572288Y675007D01*
G01X-572868Y674427D01*
G01X-573046Y674427D01*
G01X-573391Y674771D01*
G01X-574999Y674771D01*
G01X-577137Y672634D01*
G01X-578797Y672634D01*
G01X-579038Y672875D01*
G01X-579602Y672875D01*
G01X-579882Y672595D01*
G01X-579936Y677271D02*
G01X-580729Y676478D01*
G01X-580729Y672385D01*
G01X-595611Y675013D02*
G01X-598304Y677706D01*
G01X-598304Y685237D01*
G01X-598819Y685752D01*
G54D14*
G01X-580700Y671000D03*
G01X-579992Y671707D03*
G01X-579285Y672415D03*
G01X-578578Y673121D03*
G01X-577871Y673829D03*
G54D16*
G01X-579700Y678700D03*
G54D17*
G01X-578700Y678700D03*
G01X-577700Y678700D03*
G54D19*
G01X-587010Y696230D03*
G01X-586230Y696230D03*
G01X-585440Y696230D03*
G01X-584650Y696230D03*
G01X-583860Y696230D03*
G01X-583080Y696230D03*
G01X-582290Y696230D03*
G01X-581500Y696230D03*
G01X-580710Y696230D03*
G01X-579930Y696230D03*
G01X-587010Y687570D03*
G01X-586230Y687570D03*
G01X-585440Y687570D03*
G01X-584650Y687570D03*
G01X-583860Y687570D03*
G01X-583080Y687570D03*
G01X-582290Y687570D03*
G01X-581500Y687570D03*
G01X-580710Y687570D03*
G01X-579930Y687570D03*
G54D16*
G01X-595500Y686599D03*
G54D17*
G01X-595500Y685599D03*
G01X-595500Y684599D03*
G01X-595500Y683599D03*
G01X-595500Y682599D03*
G01X-595500Y681599D03*
G01X-595500Y680599D03*
G01X-595500Y679599D03*
G01X-594500Y679599D03*
G01X-594500Y680599D03*
G01X-594500Y681599D03*
G01X-594500Y682599D03*
G01X-594500Y683599D03*
G01X-594500Y684599D03*
G01X-594500Y685599D03*
G01X-594500Y686599D03*
G54D21*
G01X-574600Y683300D03*
G01X-579340Y683300D03*
G54D23*
G01X-576470Y684205D03*
G01X-576470Y682925D03*
G01X-577470Y682925D03*
G01X-577470Y684205D03*
G54D16*
G01X-585752Y698819D03*
G54D17*
G01X-584752Y698819D03*
G01X-583752Y698819D03*
G01X-582752Y698819D03*
G36*
G01X-595612Y693030D02*
G01X-596071Y693490D01*
G01X-595612Y693949D01*
G01X-595152Y693490D01*
G01X-595612Y693030D01*
G37*
G01X-594905Y694196D03*
G01X-594198Y694904D03*
G01X-593491Y695611D03*
G54D16*
G01X-598819Y682752D03*
G54D17*
G01X-598819Y683752D03*
G01X-598819Y684752D03*
G01X-598819Y685752D03*
G36*
G01X-593030Y672892D02*
G01X-593490Y672432D01*
G01X-593949Y672892D01*
G01X-593490Y673351D01*
G01X-593030Y672892D01*
G37*
G01X-594196Y673599D03*
G01X-594904Y674306D03*
G01X-595611Y675013D03*
G54D16*
G01X-582752Y669685D03*
G54D17*
G01X-583752Y669685D03*
G01X-584752Y669685D03*
G01X-585752Y669685D03*
G36*
G01X-572891Y675473D02*
G01X-572432Y675013D01*
G01X-572891Y674554D01*
G01X-573351Y675013D01*
G01X-572891Y675473D01*
G37*
G01X-573599Y674307D03*
G01X-574306Y673599D03*
G01X-575013Y672892D03*
G54D16*
G01X-569685Y685752D03*
G54D17*
G01X-569685Y684752D03*
G01X-569685Y683752D03*
G01X-569685Y682752D03*
G36*
G01X-575473Y695612D02*
G01X-575014Y696071D01*
G01X-574554Y695612D01*
G01X-575014Y695152D01*
G01X-575473Y695612D01*
G37*
G01X-574307Y694905D03*
G01X-573600Y694198D03*
G01X-572893Y693491D03*
G54D13*
G01X-587379Y682970D03*
G01X-587393Y681734D03*
G01X-587312Y676818D03*
G01X-584814Y672029D03*
G01X-572624Y677790D03*
G01X-582685Y686142D03*
G01X-581895Y680230D03*
G01X-586452Y675165D03*
G01X-582040Y679134D03*
G01X-590535Y674755D03*
G01X-586554Y673538D03*
G01X-585419Y674439D03*
G01X-584791Y674552D03*
G01X-582716Y673013D03*
G01X-580975Y673289D03*
G01X-579882Y672595D03*
G01X-580729Y672385D03*
G01X-579936Y677271D03*
G54D14*
G01X-580700Y671000D03*
G01X-579992Y671707D03*
G01X-579285Y672415D03*
G01X-578578Y673121D03*
G01X-577871Y673829D03*
G54D16*
G01X-579700Y678700D03*
G54D17*
G01X-578700Y678700D03*
G01X-577700Y678700D03*
G54D19*
G01X-587010Y696230D03*
G01X-586230Y696230D03*
G01X-585440Y696230D03*
G01X-584650Y696230D03*
G01X-583860Y696230D03*
G01X-583080Y696230D03*
G01X-582290Y696230D03*
G01X-581500Y696230D03*
G01X-580710Y696230D03*
G01X-579930Y696230D03*
G01X-587010Y687570D03*
G01X-586230Y687570D03*
G01X-585440Y687570D03*
G01X-584650Y687570D03*
G01X-583860Y687570D03*
G01X-583080Y687570D03*
G01X-582290Y687570D03*
G01X-581500Y687570D03*
G01X-580710Y687570D03*
G01X-579930Y687570D03*
G54D16*
G01X-595500Y686599D03*
G54D17*
G01X-595500Y685599D03*
G01X-595500Y684599D03*
G01X-595500Y683599D03*
G01X-595500Y682599D03*
G01X-595500Y681599D03*
G01X-595500Y680599D03*
G01X-595500Y679599D03*
G01X-594500Y679599D03*
G01X-594500Y680599D03*
G01X-594500Y681599D03*
G01X-594500Y682599D03*
G01X-594500Y683599D03*
G01X-594500Y684599D03*
G01X-594500Y685599D03*
G01X-594500Y686599D03*
G54D21*
G01X-574600Y683300D03*
G01X-579340Y683300D03*
G54D23*
G01X-576470Y684205D03*
G01X-576470Y682925D03*
G01X-577470Y682925D03*
G01X-577470Y684205D03*
G54D16*
G01X-585752Y698819D03*
G54D17*
G01X-584752Y698819D03*
G01X-583752Y698819D03*
G01X-582752Y698819D03*
G36*
G01X-595612Y693030D02*
G01X-596071Y693490D01*
G01X-595612Y693949D01*
G01X-595152Y693490D01*
G01X-595612Y693030D01*
G37*
G01X-594905Y694196D03*
G01X-594198Y694904D03*
G01X-593491Y695611D03*
G54D16*
G01X-598819Y682752D03*
G54D17*
G01X-598819Y683752D03*
G01X-598819Y684752D03*
G01X-598819Y685752D03*
G36*
G01X-593030Y672892D02*
G01X-593490Y672432D01*
G01X-593949Y672892D01*
G01X-593490Y673351D01*
G01X-593030Y672892D01*
G37*
G01X-594196Y673599D03*
G01X-594904Y674306D03*
G01X-595611Y675013D03*
G54D16*
G01X-582752Y669685D03*
G54D17*
G01X-583752Y669685D03*
G01X-584752Y669685D03*
G01X-585752Y669685D03*
G36*
G01X-572891Y675473D02*
G01X-572432Y675013D01*
G01X-572891Y674554D01*
G01X-573351Y675013D01*
G01X-572891Y675473D01*
G37*
G01X-573599Y674307D03*
G01X-574306Y673599D03*
G01X-575013Y672892D03*
G54D16*
G01X-569685Y685752D03*
G54D17*
G01X-569685Y684752D03*
G01X-569685Y683752D03*
G01X-569685Y682752D03*
G36*
G01X-575473Y695612D02*
G01X-575014Y696071D01*
G01X-574554Y695612D01*
G01X-575014Y695152D01*
G01X-575473Y695612D01*
G37*
G01X-574307Y694905D03*
G01X-573600Y694198D03*
G01X-572893Y693491D03*

M00*
M02*