;PTH Drill file created by EasyEDA 
M48
;Holesize 1 = 0.040 INCH
T01C0.040
;Holesize 2 = 0.035 INCH
T02C0.035
;Holesize 3 = 0.032 INCH
T03C0.032
;Holesize 4 = 0.091 INCH
T04C0.091
;Holesize 5 = 0.036 INCH
T05C0.036
;Holesize 6 = 0.012 INCH
T06C0.012
INCH,00.0000
%
G05
G90
T01
X-580700Y671000
X-579992Y671707
X-579285Y672415
X-578578Y673121
X-577871Y673829
T02
X-579700Y678700
X-578700Y678700
X-577700Y678700
X-595500Y686599
X-595500Y685599
X-595500Y684599
X-595500Y683599
X-595500Y682599
X-595500Y681599
X-595500Y680599
X-595500Y679599
X-594500Y679599
X-594500Y680599
X-594500Y681599
X-594500Y682599
X-594500Y683599
X-594500Y684599
X-594500Y685599
X-594500Y686599
X-585752Y698819
X-584752Y698819
X-583752Y698819
X-582752Y698819
X-595612Y693490
X-594905Y694196
X-594198Y694904
X-593491Y695611
X-598819Y682752
X-598819Y683752
X-598819Y684752
X-598819Y685752
X-593490Y672892
X-594196Y673599
X-594904Y674306
X-595611Y675013
X-582752Y669685
X-583752Y669685
X-584752Y669685
X-585752Y669685
X-572892Y675014
X-573599Y674307
X-574306Y673599
X-575013Y672892
X-569685Y685752
X-569685Y684752
X-569685Y683752
X-569685Y682752
X-575014Y695612
X-574307Y694905
X-573600Y694198
X-572893Y693491
T03
X-587010Y696230
X-586230Y696230
X-585440Y696230
X-584650Y696230
X-583860Y696230
X-583080Y696230
X-582290Y696230
X-581500Y696230
X-580710Y696230
X-579930Y696230
X-587010Y687570
X-586230Y687570
X-585440Y687570
X-584650Y687570
X-583860Y687570
X-583080Y687570
X-582290Y687570
X-581500Y687570
X-580710Y687570
X-579930Y687570
T04
X-574600Y683300
X-579340Y683300
T05
X-576470Y684205
X-576470Y682925
X-577470Y682925
X-577470Y684205
T06
X-587379Y682970
X-587393Y681734
X-587312Y676818
X-584814Y672029
X-572624Y677790
X-582685Y686142
X-581895Y680230
X-586452Y675165
X-582040Y679134
X-590535Y674755
X-586554Y673538
X-585419Y674439
X-584791Y674552
X-582716Y673013
X-580975Y673289
X-579882Y672595
X-580729Y672385
X-579936Y677271
M30
