G04 ---------------------------- Layer name :BOTTOM SOLDER LAYER*
G04 easyEDA 0.1*
G04 Scale: 100 percent, Rotated: No, Reflected: No *
G04 Dimensions in inches *
G04 leading zeros omitted , absolute positions ,2 integer and 4 * 
%FSLAX24Y24*%
%MOIN*%
G90*
G70D02*

%ADD12C,0.082000*%
%ADD14R,0.073000X0.073000*%
%ADD15C,0.073000*%
%ADD17C,0.068000*%
%ADD19C,0.133984*%
%ADD21C,0.063118*%

%LPD*%
G54D12*
G01X-580700Y671000D03*
G01X-579992Y671707D03*
G01X-579285Y672415D03*
G01X-578578Y673121D03*
G01X-577871Y673829D03*
G54D14*
G01X-579700Y678700D03*
G54D15*
G01X-578700Y678700D03*
G01X-577700Y678700D03*
G54D17*
G01X-587010Y696230D03*
G01X-586230Y696230D03*
G01X-585440Y696230D03*
G01X-584650Y696230D03*
G01X-583860Y696230D03*
G01X-583080Y696230D03*
G01X-582290Y696230D03*
G01X-581500Y696230D03*
G01X-580710Y696230D03*
G01X-579930Y696230D03*
G01X-587010Y687570D03*
G01X-586230Y687570D03*
G01X-585440Y687570D03*
G01X-584650Y687570D03*
G01X-583860Y687570D03*
G01X-583080Y687570D03*
G01X-582290Y687570D03*
G01X-581500Y687570D03*
G01X-580710Y687570D03*
G01X-579930Y687570D03*
G54D14*
G01X-595500Y686599D03*
G54D15*
G01X-595500Y685599D03*
G01X-595500Y684599D03*
G01X-595500Y683599D03*
G01X-595500Y682599D03*
G01X-595500Y681599D03*
G01X-595500Y680599D03*
G01X-595500Y679599D03*
G01X-594500Y679599D03*
G01X-594500Y680599D03*
G01X-594500Y681599D03*
G01X-594500Y682599D03*
G01X-594500Y683599D03*
G01X-594500Y684599D03*
G01X-594500Y685599D03*
G01X-594500Y686599D03*
G54D19*
G01X-574600Y683300D03*
G01X-579340Y683300D03*
G54D21*
G01X-576470Y684205D03*
G01X-576470Y682925D03*
G01X-577470Y682925D03*
G01X-577470Y684205D03*
G54D14*
G01X-585752Y698819D03*
G54D15*
G01X-584752Y698819D03*
G01X-583752Y698819D03*
G01X-582752Y698819D03*
G36*
G01X-595612Y693030D02*
G01X-596071Y693490D01*
G01X-595612Y693949D01*
G01X-595152Y693490D01*
G01X-595612Y693030D01*
G37*
G01X-594905Y694196D03*
G01X-594198Y694904D03*
G01X-593491Y695611D03*
G54D14*
G01X-598819Y682752D03*
G54D15*
G01X-598819Y683752D03*
G01X-598819Y684752D03*
G01X-598819Y685752D03*
G36*
G01X-593030Y672892D02*
G01X-593490Y672432D01*
G01X-593949Y672892D01*
G01X-593490Y673351D01*
G01X-593030Y672892D01*
G37*
G01X-594196Y673599D03*
G01X-594904Y674306D03*
G01X-595611Y675013D03*
G54D14*
G01X-582752Y669685D03*
G54D15*
G01X-583752Y669685D03*
G01X-584752Y669685D03*
G01X-585752Y669685D03*
G36*
G01X-572891Y675473D02*
G01X-572432Y675013D01*
G01X-572891Y674554D01*
G01X-573351Y675013D01*
G01X-572891Y675473D01*
G37*
G01X-573599Y674307D03*
G01X-574306Y673599D03*
G01X-575013Y672892D03*
G54D14*
G01X-569685Y685752D03*
G54D15*
G01X-569685Y684752D03*
G01X-569685Y683752D03*
G01X-569685Y682752D03*
G36*
G01X-575473Y695612D02*
G01X-575014Y696071D01*
G01X-574554Y695612D01*
G01X-575014Y695152D01*
G01X-575473Y695612D01*
G37*
G01X-574307Y694905D03*
G01X-573600Y694198D03*
G01X-572893Y693491D03*

M00*
M02*