G75*
%MOIN*%
%OFA0B0*%
%FSLAX25Y25*%
%IPPOS*%
%LPD*%
%AMOC8*
5,1,8,0,0,1.08239X$1,22.5*
%
%ADD10C,0.00300*%
%ADD11C,0.00500*%
%ADD12C,0.00787*%
%ADD13R,0.15166X0.02466*%
%ADD14C,0.00200*%
D10*
X0001200Y0008938D02*
X0001200Y0048308D01*
X0040570Y0048308D01*
X0040570Y0008938D01*
X0001200Y0008938D01*
D11*
X0009369Y0019961D02*
X0009369Y0037284D01*
X0024527Y0037284D02*
X0024527Y0019961D01*
D12*
X0011436Y0042796D02*
X0011438Y0042835D01*
X0011444Y0042874D01*
X0011454Y0042912D01*
X0011467Y0042949D01*
X0011484Y0042984D01*
X0011504Y0043018D01*
X0011528Y0043049D01*
X0011555Y0043078D01*
X0011584Y0043104D01*
X0011616Y0043127D01*
X0011650Y0043147D01*
X0011686Y0043163D01*
X0011723Y0043175D01*
X0011762Y0043184D01*
X0011801Y0043189D01*
X0011840Y0043190D01*
X0011879Y0043187D01*
X0011918Y0043180D01*
X0011955Y0043169D01*
X0011992Y0043155D01*
X0012027Y0043137D01*
X0012060Y0043116D01*
X0012091Y0043091D01*
X0012119Y0043064D01*
X0012144Y0043034D01*
X0012166Y0043001D01*
X0012185Y0042967D01*
X0012200Y0042931D01*
X0012212Y0042893D01*
X0012220Y0042855D01*
X0012224Y0042816D01*
X0012224Y0042776D01*
X0012220Y0042737D01*
X0012212Y0042699D01*
X0012200Y0042661D01*
X0012185Y0042625D01*
X0012166Y0042591D01*
X0012144Y0042558D01*
X0012119Y0042528D01*
X0012091Y0042501D01*
X0012060Y0042476D01*
X0012027Y0042455D01*
X0011992Y0042437D01*
X0011955Y0042423D01*
X0011918Y0042412D01*
X0011879Y0042405D01*
X0011840Y0042402D01*
X0011801Y0042403D01*
X0011762Y0042408D01*
X0011723Y0042417D01*
X0011686Y0042429D01*
X0011650Y0042445D01*
X0011616Y0042465D01*
X0011584Y0042488D01*
X0011555Y0042514D01*
X0011528Y0042543D01*
X0011504Y0042574D01*
X0011484Y0042608D01*
X0011467Y0042643D01*
X0011454Y0042680D01*
X0011444Y0042718D01*
X0011438Y0042757D01*
X0011436Y0042796D01*
D13*
X0016952Y0032808D03*
D14*
X0017331Y0030472D02*
X0016130Y0030472D01*
X0015830Y0030172D01*
X0015830Y0029271D01*
X0017631Y0029271D01*
X0017631Y0030172D01*
X0017331Y0030472D01*
X0017631Y0028631D02*
X0017631Y0027430D01*
X0015830Y0027430D01*
X0015830Y0028631D01*
X0016731Y0028030D02*
X0016731Y0027430D01*
X0015830Y0026789D02*
X0015830Y0025588D01*
X0017631Y0025588D01*
M02*
