G75*
%MOIN*%
%OFA0B0*%
%FSLAX25Y25*%
%IPPOS*%
%LPD*%
%AMOC8*
5,1,8,0,0,1.08239X$1,22.5*
%
%ADD10C,0.00300*%
%ADD11C,0.00500*%
%ADD12C,0.00100*%
%ADD13C,0.00600*%
D10*
X0001200Y0008938D02*
X0001200Y0048308D01*
X0040570Y0048308D01*
X0040570Y0008938D01*
X0001200Y0008938D01*
D11*
X0009818Y0025544D02*
X0016354Y0025544D01*
X0016354Y0032079D01*
X0009818Y0032079D01*
X0009818Y0025544D01*
X0030993Y0005169D02*
X0033245Y0002917D01*
X0033245Y0005919D01*
X0035497Y0005169D02*
X0030993Y0005169D01*
X0032495Y0048417D02*
X0030993Y0049918D01*
X0035497Y0049918D01*
X0035497Y0048417D02*
X0035497Y0051419D01*
D12*
X0020861Y0034993D02*
X0020861Y0034393D01*
X0020261Y0034993D01*
X0020110Y0034993D01*
X0019960Y0034843D01*
X0019960Y0034543D01*
X0020110Y0034393D01*
X0020110Y0034072D02*
X0019960Y0033922D01*
X0019960Y0033622D01*
X0020110Y0033472D01*
X0020711Y0033472D01*
X0020861Y0033622D01*
X0020861Y0033922D01*
X0020711Y0034072D01*
X0023360Y0026729D02*
X0023811Y0026729D01*
X0023961Y0026579D01*
X0023961Y0026279D01*
X0023811Y0026129D01*
X0023360Y0026129D01*
X0023360Y0025828D02*
X0023360Y0026729D01*
X0023661Y0026129D02*
X0023961Y0025828D01*
X0024281Y0025828D02*
X0024882Y0025828D01*
X0024581Y0025828D02*
X0024581Y0026729D01*
X0024281Y0026429D01*
X0016743Y0023826D02*
X0016143Y0023826D01*
X0016443Y0023826D02*
X0016443Y0024727D01*
X0016143Y0024427D01*
X0015822Y0024427D02*
X0015822Y0024577D01*
X0015672Y0024727D01*
X0015372Y0024727D01*
X0015222Y0024577D01*
X0014902Y0024577D02*
X0014752Y0024727D01*
X0014451Y0024727D01*
X0014301Y0024577D01*
X0013981Y0024276D02*
X0013380Y0024276D01*
X0013831Y0024727D01*
X0013831Y0023826D01*
X0014301Y0023826D02*
X0014902Y0024427D01*
X0014902Y0024577D01*
X0015522Y0024276D02*
X0015672Y0024276D01*
X0015822Y0024126D01*
X0015822Y0023976D01*
X0015672Y0023826D01*
X0015372Y0023826D01*
X0015222Y0023976D01*
X0014902Y0023826D02*
X0014301Y0023826D01*
X0013060Y0023976D02*
X0012910Y0023826D01*
X0012610Y0023826D01*
X0012460Y0023976D01*
X0012610Y0024276D02*
X0012910Y0024276D01*
X0013060Y0024126D01*
X0013060Y0023976D01*
X0012610Y0024276D02*
X0012460Y0024427D01*
X0012460Y0024577D01*
X0012610Y0024727D01*
X0012910Y0024727D01*
X0013060Y0024577D01*
X0012139Y0024727D02*
X0011539Y0024727D01*
X0011839Y0024727D02*
X0011839Y0023826D01*
X0015672Y0024276D02*
X0015822Y0024427D01*
X0004919Y0025180D02*
X0004318Y0025180D01*
X0004618Y0025180D02*
X0004618Y0026081D01*
X0004318Y0025781D01*
X0003998Y0025931D02*
X0003848Y0026081D01*
X0003548Y0026081D01*
X0003397Y0025931D01*
X0003397Y0025331D01*
X0003548Y0025180D01*
X0003848Y0025180D01*
X0003998Y0025331D01*
D13*
X0028247Y0025771D02*
X0028247Y0020771D01*
X0030747Y0018271D01*
X0028247Y0015771D01*
X0028247Y0010771D01*
X0030747Y0008271D01*
X0035747Y0008271D01*
X0038247Y0010771D01*
X0038247Y0015771D01*
X0035747Y0018271D01*
X0038247Y0020771D01*
X0038247Y0025771D01*
X0035747Y0028271D01*
X0038247Y0030771D01*
X0038247Y0035771D01*
X0035747Y0038271D01*
X0038247Y0040771D01*
X0038247Y0045771D01*
X0035747Y0048271D01*
X0030747Y0048271D01*
X0028247Y0045771D01*
X0028247Y0040771D01*
X0030747Y0038271D01*
X0028247Y0035771D01*
X0028247Y0030771D01*
X0030747Y0028271D01*
X0028247Y0025771D01*
M02*
