G75*
%MOIN*%
%OFA0B0*%
%FSLAX25Y25*%
%IPPOS*%
%LPD*%
%AMOC8*
5,1,8,0,0,1.08239X$1,22.5*
%
%ADD10C,0.00300*%
%ADD11R,0.05937X0.05937*%
%ADD12C,0.05937*%
%ADD13C,0.06000*%
%ADD14C,0.01600*%
%ADD15C,0.02578*%
D10*
X0001200Y0008938D02*
X0001200Y0048308D01*
X0040570Y0048308D01*
X0040570Y0008938D01*
X0001200Y0008938D01*
X0002500Y0010238D02*
X0002500Y0047008D01*
X0029470Y0047008D01*
X0028123Y0046450D01*
X0027068Y0045395D01*
X0026497Y0044016D01*
X0026497Y0042525D01*
X0027068Y0041146D01*
X0028123Y0040091D01*
X0029501Y0039521D01*
X0036993Y0039521D01*
X0038371Y0040091D01*
X0039270Y0040990D01*
X0039270Y0035551D01*
X0038371Y0036450D01*
X0036993Y0037021D01*
X0029501Y0037021D01*
X0028123Y0036450D01*
X0027068Y0035395D01*
X0026497Y0034016D01*
X0026497Y0032525D01*
X0027068Y0031146D01*
X0028123Y0030091D01*
X0029501Y0029521D01*
X0036993Y0029521D01*
X0038371Y0030091D01*
X0039270Y0030990D01*
X0039270Y0025551D01*
X0038371Y0026450D01*
X0036993Y0027021D01*
X0029501Y0027021D01*
X0028123Y0026450D01*
X0027068Y0025395D01*
X0026497Y0024016D01*
X0026497Y0022525D01*
X0027068Y0021146D01*
X0028123Y0020091D01*
X0029501Y0019521D01*
X0036993Y0019521D01*
X0038371Y0020091D01*
X0039270Y0020990D01*
X0039270Y0016117D01*
X0038951Y0016436D01*
X0038422Y0016820D01*
X0037840Y0017117D01*
X0037219Y0017318D01*
X0036574Y0017421D01*
X0033397Y0017421D01*
X0033397Y0013421D01*
X0033097Y0013421D01*
X0033097Y0017421D01*
X0029921Y0017421D01*
X0029275Y0017318D01*
X0028654Y0017117D01*
X0028072Y0016820D01*
X0027544Y0016436D01*
X0027082Y0015974D01*
X0026698Y0015446D01*
X0026401Y0014864D01*
X0026199Y0014242D01*
X0026097Y0013597D01*
X0026097Y0013421D01*
X0033097Y0013421D01*
X0033097Y0013121D01*
X0026097Y0013121D01*
X0026097Y0012944D01*
X0026199Y0012299D01*
X0026401Y0011678D01*
X0026698Y0011096D01*
X0027082Y0010567D01*
X0027411Y0010238D01*
X0002500Y0010238D01*
X0002500Y0010317D02*
X0027331Y0010317D01*
X0027046Y0010616D02*
X0002500Y0010616D01*
X0002500Y0010914D02*
X0026829Y0010914D01*
X0026638Y0011213D02*
X0002500Y0011213D01*
X0002500Y0011511D02*
X0026486Y0011511D01*
X0026358Y0011810D02*
X0002500Y0011810D01*
X0002500Y0012108D02*
X0026261Y0012108D01*
X0026182Y0012407D02*
X0002500Y0012407D01*
X0002500Y0012705D02*
X0026135Y0012705D01*
X0026097Y0013004D02*
X0002500Y0013004D01*
X0002500Y0013302D02*
X0033097Y0013302D01*
X0033097Y0013601D02*
X0033397Y0013601D01*
X0033397Y0013899D02*
X0033097Y0013899D01*
X0033097Y0014198D02*
X0033397Y0014198D01*
X0033397Y0014497D02*
X0033097Y0014497D01*
X0033097Y0014795D02*
X0033397Y0014795D01*
X0033397Y0015094D02*
X0033097Y0015094D01*
X0033097Y0015392D02*
X0033397Y0015392D01*
X0033397Y0015691D02*
X0033097Y0015691D01*
X0033097Y0015989D02*
X0033397Y0015989D01*
X0033397Y0016288D02*
X0033097Y0016288D01*
X0033097Y0016586D02*
X0033397Y0016586D01*
X0033397Y0016885D02*
X0033097Y0016885D01*
X0033097Y0017183D02*
X0033397Y0017183D01*
X0037115Y0019571D02*
X0039270Y0019571D01*
X0039270Y0019273D02*
X0020443Y0019273D01*
X0020319Y0019571D02*
X0029379Y0019571D01*
X0028658Y0019870D02*
X0020195Y0019870D01*
X0020100Y0020099D02*
X0019054Y0021145D01*
X0017688Y0021711D01*
X0016208Y0021711D01*
X0014842Y0021145D01*
X0013796Y0020099D01*
X0013230Y0018732D01*
X0013230Y0017253D01*
X0013796Y0015886D01*
X0014842Y0014840D01*
X0016208Y0014274D01*
X0017688Y0014274D01*
X0019054Y0014840D01*
X0020100Y0015886D01*
X0020667Y0017253D01*
X0020667Y0018732D01*
X0020100Y0020099D01*
X0020031Y0020168D02*
X0028046Y0020168D01*
X0027748Y0020467D02*
X0019733Y0020467D01*
X0019434Y0020765D02*
X0027449Y0020765D01*
X0027151Y0021064D02*
X0019136Y0021064D01*
X0018530Y0021362D02*
X0026979Y0021362D01*
X0026855Y0021661D02*
X0017809Y0021661D01*
X0016087Y0021661D02*
X0002500Y0021661D01*
X0002500Y0021959D02*
X0026731Y0021959D01*
X0026608Y0022258D02*
X0002500Y0022258D01*
X0002500Y0022556D02*
X0026497Y0022556D01*
X0026497Y0022855D02*
X0002500Y0022855D01*
X0002500Y0023153D02*
X0026497Y0023153D01*
X0026497Y0023452D02*
X0002500Y0023452D01*
X0002500Y0023750D02*
X0026497Y0023750D01*
X0026511Y0024049D02*
X0002500Y0024049D01*
X0002500Y0024347D02*
X0026634Y0024347D01*
X0026758Y0024646D02*
X0002500Y0024646D01*
X0002500Y0024944D02*
X0026882Y0024944D01*
X0027005Y0025243D02*
X0002500Y0025243D01*
X0002500Y0025541D02*
X0027215Y0025541D01*
X0027513Y0025840D02*
X0002500Y0025840D01*
X0002500Y0026138D02*
X0027812Y0026138D01*
X0028110Y0026437D02*
X0002500Y0026437D01*
X0002500Y0026735D02*
X0028813Y0026735D01*
X0029018Y0029721D02*
X0002500Y0029721D01*
X0002500Y0030019D02*
X0028298Y0030019D01*
X0027897Y0030318D02*
X0002500Y0030318D01*
X0002500Y0030616D02*
X0027598Y0030616D01*
X0027300Y0030915D02*
X0002500Y0030915D01*
X0002500Y0031213D02*
X0027040Y0031213D01*
X0026917Y0031512D02*
X0002500Y0031512D01*
X0002500Y0031810D02*
X0026793Y0031810D01*
X0026670Y0032109D02*
X0002500Y0032109D01*
X0002500Y0032407D02*
X0026546Y0032407D01*
X0026497Y0032706D02*
X0002500Y0032706D01*
X0002500Y0033004D02*
X0026497Y0033004D01*
X0026497Y0033303D02*
X0002500Y0033303D01*
X0002500Y0033601D02*
X0026497Y0033601D01*
X0026497Y0033900D02*
X0002500Y0033900D01*
X0002500Y0034198D02*
X0026573Y0034198D01*
X0026696Y0034497D02*
X0002500Y0034497D01*
X0002500Y0034795D02*
X0026820Y0034795D01*
X0026943Y0035094D02*
X0002500Y0035094D01*
X0002500Y0035392D02*
X0027067Y0035392D01*
X0027364Y0035691D02*
X0020384Y0035691D01*
X0020227Y0035534D02*
X0020667Y0035973D01*
X0020667Y0042532D01*
X0020227Y0042971D01*
X0013669Y0042971D01*
X0013230Y0042532D01*
X0013230Y0035973D01*
X0013669Y0035534D01*
X0020227Y0035534D01*
X0020667Y0035989D02*
X0027663Y0035989D01*
X0027961Y0036288D02*
X0020667Y0036288D01*
X0020667Y0036586D02*
X0028453Y0036586D01*
X0029174Y0036885D02*
X0020667Y0036885D01*
X0020667Y0037183D02*
X0039270Y0037183D01*
X0039270Y0036885D02*
X0037321Y0036885D01*
X0038041Y0036586D02*
X0039270Y0036586D01*
X0039270Y0036288D02*
X0038533Y0036288D01*
X0038832Y0035989D02*
X0039270Y0035989D01*
X0039270Y0035691D02*
X0039130Y0035691D01*
X0039270Y0037482D02*
X0020667Y0037482D01*
X0020667Y0037780D02*
X0039270Y0037780D01*
X0039270Y0038079D02*
X0020667Y0038079D01*
X0020667Y0038377D02*
X0039270Y0038377D01*
X0039270Y0038676D02*
X0020667Y0038676D01*
X0020667Y0038974D02*
X0039270Y0038974D01*
X0039270Y0039273D02*
X0020667Y0039273D01*
X0020667Y0039571D02*
X0029378Y0039571D01*
X0028658Y0039870D02*
X0020667Y0039870D01*
X0020667Y0040168D02*
X0028046Y0040168D01*
X0027748Y0040467D02*
X0020667Y0040467D01*
X0020667Y0040766D02*
X0027449Y0040766D01*
X0027151Y0041064D02*
X0020667Y0041064D01*
X0020667Y0041363D02*
X0026979Y0041363D01*
X0026855Y0041661D02*
X0020667Y0041661D01*
X0020667Y0041960D02*
X0026731Y0041960D01*
X0026608Y0042258D02*
X0020667Y0042258D01*
X0020642Y0042557D02*
X0026497Y0042557D01*
X0026497Y0042855D02*
X0020343Y0042855D01*
X0026497Y0043154D02*
X0002500Y0043154D01*
X0002500Y0043452D02*
X0026497Y0043452D01*
X0026497Y0043751D02*
X0002500Y0043751D01*
X0002500Y0044049D02*
X0026511Y0044049D01*
X0026634Y0044348D02*
X0002500Y0044348D01*
X0002500Y0044646D02*
X0026758Y0044646D01*
X0026882Y0044945D02*
X0002500Y0044945D01*
X0002500Y0045243D02*
X0027005Y0045243D01*
X0027215Y0045542D02*
X0002500Y0045542D01*
X0002500Y0045840D02*
X0027514Y0045840D01*
X0027812Y0046139D02*
X0002500Y0046139D01*
X0002500Y0046437D02*
X0028111Y0046437D01*
X0028814Y0046736D02*
X0002500Y0046736D01*
X0002500Y0042855D02*
X0013553Y0042855D01*
X0013254Y0042557D02*
X0002500Y0042557D01*
X0002500Y0042258D02*
X0013230Y0042258D01*
X0013230Y0041960D02*
X0002500Y0041960D01*
X0002500Y0041661D02*
X0013230Y0041661D01*
X0013230Y0041363D02*
X0002500Y0041363D01*
X0002500Y0041064D02*
X0013230Y0041064D01*
X0013230Y0040766D02*
X0002500Y0040766D01*
X0002500Y0040467D02*
X0013230Y0040467D01*
X0013230Y0040168D02*
X0002500Y0040168D01*
X0002500Y0039870D02*
X0013230Y0039870D01*
X0013230Y0039571D02*
X0002500Y0039571D01*
X0002500Y0039273D02*
X0013230Y0039273D01*
X0013230Y0038974D02*
X0002500Y0038974D01*
X0002500Y0038676D02*
X0013230Y0038676D01*
X0013230Y0038377D02*
X0002500Y0038377D01*
X0002500Y0038079D02*
X0013230Y0038079D01*
X0013230Y0037780D02*
X0002500Y0037780D01*
X0002500Y0037482D02*
X0013230Y0037482D01*
X0013230Y0037183D02*
X0002500Y0037183D01*
X0002500Y0036885D02*
X0013230Y0036885D01*
X0013230Y0036586D02*
X0002500Y0036586D01*
X0002500Y0036288D02*
X0013230Y0036288D01*
X0013230Y0035989D02*
X0002500Y0035989D01*
X0002500Y0035691D02*
X0013512Y0035691D01*
X0015366Y0021362D02*
X0002500Y0021362D01*
X0002500Y0021064D02*
X0014760Y0021064D01*
X0014462Y0020765D02*
X0002500Y0020765D01*
X0002500Y0020467D02*
X0014163Y0020467D01*
X0013865Y0020168D02*
X0002500Y0020168D01*
X0002500Y0019870D02*
X0013701Y0019870D01*
X0013577Y0019571D02*
X0002500Y0019571D01*
X0002500Y0019273D02*
X0013453Y0019273D01*
X0013330Y0018974D02*
X0002500Y0018974D01*
X0002500Y0018676D02*
X0013230Y0018676D01*
X0013230Y0018377D02*
X0002500Y0018377D01*
X0002500Y0018079D02*
X0013230Y0018079D01*
X0013230Y0017780D02*
X0002500Y0017780D01*
X0002500Y0017482D02*
X0013230Y0017482D01*
X0013258Y0017183D02*
X0002500Y0017183D01*
X0002500Y0016885D02*
X0013382Y0016885D01*
X0013506Y0016586D02*
X0002500Y0016586D01*
X0002500Y0016288D02*
X0013629Y0016288D01*
X0013753Y0015989D02*
X0002500Y0015989D01*
X0002500Y0015691D02*
X0013991Y0015691D01*
X0014290Y0015392D02*
X0002500Y0015392D01*
X0002500Y0015094D02*
X0014588Y0015094D01*
X0014951Y0014795D02*
X0002500Y0014795D01*
X0002500Y0014497D02*
X0015671Y0014497D01*
X0018225Y0014497D02*
X0026282Y0014497D01*
X0026192Y0014198D02*
X0002500Y0014198D01*
X0002500Y0013899D02*
X0026145Y0013899D01*
X0026098Y0013601D02*
X0002500Y0013601D01*
X0002500Y0027034D02*
X0039270Y0027034D01*
X0039270Y0027332D02*
X0002500Y0027332D01*
X0002500Y0027631D02*
X0039270Y0027631D01*
X0039270Y0027930D02*
X0002500Y0027930D01*
X0002500Y0028228D02*
X0039270Y0028228D01*
X0039270Y0028527D02*
X0002500Y0028527D01*
X0002500Y0028825D02*
X0039270Y0028825D01*
X0039270Y0029124D02*
X0002500Y0029124D01*
X0002500Y0029422D02*
X0039270Y0029422D01*
X0039270Y0029721D02*
X0037476Y0029721D01*
X0038197Y0030019D02*
X0039270Y0030019D01*
X0039270Y0030318D02*
X0038598Y0030318D01*
X0038896Y0030616D02*
X0039270Y0030616D01*
X0039270Y0030915D02*
X0039195Y0030915D01*
X0039270Y0026735D02*
X0037681Y0026735D01*
X0038384Y0026437D02*
X0039270Y0026437D01*
X0039270Y0026138D02*
X0038683Y0026138D01*
X0038981Y0025840D02*
X0039270Y0025840D01*
X0039270Y0020765D02*
X0039045Y0020765D01*
X0039270Y0020467D02*
X0038747Y0020467D01*
X0038448Y0020168D02*
X0039270Y0020168D01*
X0039270Y0019870D02*
X0037836Y0019870D01*
X0039270Y0018974D02*
X0020566Y0018974D01*
X0020667Y0018676D02*
X0039270Y0018676D01*
X0039270Y0018377D02*
X0020667Y0018377D01*
X0020667Y0018079D02*
X0039270Y0018079D01*
X0039270Y0017780D02*
X0020667Y0017780D01*
X0020667Y0017482D02*
X0039270Y0017482D01*
X0039270Y0017183D02*
X0037635Y0017183D01*
X0038295Y0016885D02*
X0039270Y0016885D01*
X0039270Y0016586D02*
X0038744Y0016586D01*
X0039099Y0016288D02*
X0039270Y0016288D01*
X0028859Y0017183D02*
X0020638Y0017183D01*
X0020514Y0016885D02*
X0028199Y0016885D01*
X0027750Y0016586D02*
X0020390Y0016586D01*
X0020267Y0016288D02*
X0027395Y0016288D01*
X0027097Y0015989D02*
X0020143Y0015989D01*
X0019905Y0015691D02*
X0026876Y0015691D01*
X0026671Y0015392D02*
X0019606Y0015392D01*
X0019308Y0015094D02*
X0026518Y0015094D01*
X0026379Y0014795D02*
X0018945Y0014795D01*
X0037116Y0039571D02*
X0039270Y0039571D01*
X0039270Y0039870D02*
X0037837Y0039870D01*
X0038448Y0040168D02*
X0039270Y0040168D01*
X0039270Y0040467D02*
X0038747Y0040467D01*
X0039045Y0040766D02*
X0039270Y0040766D01*
D11*
X0016948Y0039252D03*
D12*
X0016948Y0017993D03*
D13*
X0030247Y0013271D02*
X0036247Y0013271D01*
X0036247Y0023271D02*
X0030247Y0023271D01*
X0030247Y0033271D02*
X0036247Y0033271D01*
X0036247Y0043271D02*
X0030247Y0043271D01*
D14*
X0023100Y0042763D02*
X0023147Y0039416D01*
X0023147Y0021772D01*
X0031647Y0013272D01*
X0033247Y0013271D01*
D15*
X0023100Y0042763D03*
M02*
