G75*
%MOIN*%
%OFA0B0*%
%FSLAX25Y25*%
%IPPOS*%
%LPD*%
%AMOC8*
5,1,8,0,0,1.08239X$1,22.5*
%
%ADD10C,0.00300*%
%ADD11R,0.05937X0.05937*%
%ADD12C,0.05937*%
%ADD13C,0.01102*%
%ADD14R,0.02756X0.03543*%
%ADD15R,0.03543X0.02756*%
%ADD16C,0.06000*%
%ADD17C,0.00800*%
%ADD18C,0.01000*%
%ADD19C,0.00600*%
%ADD20C,0.00400*%
%ADD21C,0.01600*%
%ADD22C,0.02578*%
D10*
X0001200Y0008938D02*
X0001200Y0048308D01*
X0040570Y0048308D01*
X0040570Y0008938D01*
X0001200Y0008938D01*
D11*
X0016948Y0039252D03*
D12*
X0016948Y0017993D03*
D13*
X0015054Y0026843D03*
X0015054Y0028812D03*
X0015054Y0030780D03*
X0013086Y0030780D03*
X0013086Y0028812D03*
X0013086Y0026843D03*
X0011117Y0026843D03*
X0011117Y0028812D03*
X0011117Y0030780D03*
D14*
X0010248Y0022630D03*
X0005130Y0022630D03*
X0019093Y0023278D03*
X0024211Y0023278D03*
D15*
X0023189Y0032804D03*
X0023189Y0037923D03*
D16*
X0030247Y0033271D02*
X0036247Y0033271D01*
X0036247Y0043271D02*
X0030247Y0043271D01*
X0030247Y0023271D02*
X0036247Y0023271D01*
X0036247Y0013271D02*
X0030247Y0013271D01*
D17*
X0016948Y0017993D02*
X0015800Y0018263D01*
X0009200Y0018263D01*
X0007600Y0019863D01*
X0007600Y0027063D01*
X0007800Y0027263D01*
X0009340Y0028813D01*
X0011117Y0028812D01*
X0011117Y0030780D02*
X0011095Y0031808D01*
X0011085Y0037066D01*
X0013267Y0039303D01*
X0016948Y0039252D01*
D18*
X0016527Y0034669D02*
X0014905Y0034669D01*
X0013100Y0033163D01*
X0013100Y0031959D01*
X0013086Y0031945D01*
X0013086Y0030780D01*
X0013086Y0028812D01*
X0013080Y0026693D02*
X0013080Y0026093D01*
X0015550Y0023663D01*
X0016000Y0023263D01*
X0019093Y0023278D01*
X0018640Y0026863D02*
X0015054Y0026843D01*
X0015054Y0028812D02*
X0017830Y0028813D01*
X0028840Y0028813D01*
X0028840Y0028863D01*
X0033247Y0033271D01*
X0029704Y0026814D02*
X0033247Y0023271D01*
X0029704Y0026814D02*
X0029690Y0026814D01*
X0018640Y0026863D01*
X0019946Y0034679D02*
X0016527Y0034669D01*
X0016527Y0034669D01*
X0019946Y0034679D02*
X0023189Y0037923D01*
X0023100Y0038012D01*
D19*
X0023189Y0032804D02*
X0023200Y0032763D01*
X0013090Y0028823D02*
X0013086Y0028812D01*
X0013086Y0026843D02*
X0013080Y0026693D01*
X0009800Y0023063D02*
X0010248Y0022630D01*
D20*
X0007168Y0018598D02*
X0002550Y0018598D01*
X0002550Y0018199D02*
X0007567Y0018199D01*
X0007965Y0017801D02*
X0002550Y0017801D01*
X0002550Y0017402D02*
X0008364Y0017402D01*
X0008703Y0017063D02*
X0013254Y0017063D01*
X0013753Y0015858D01*
X0014813Y0014798D01*
X0016198Y0014224D01*
X0017698Y0014224D01*
X0019083Y0014798D01*
X0020143Y0015858D01*
X0020717Y0017243D01*
X0020717Y0018742D01*
X0020143Y0020127D01*
X0019563Y0020707D01*
X0020802Y0020707D01*
X0021271Y0021175D01*
X0021271Y0025381D01*
X0021100Y0025552D01*
X0021736Y0025549D01*
X0021715Y0025513D01*
X0021633Y0025208D01*
X0021633Y0023478D01*
X0024011Y0023478D01*
X0024011Y0023078D01*
X0024411Y0023078D01*
X0024411Y0020307D01*
X0025747Y0020307D01*
X0026052Y0020389D01*
X0026326Y0020547D01*
X0026549Y0020770D01*
X0026707Y0021044D01*
X0026789Y0021349D01*
X0026789Y0021690D01*
X0027026Y0021118D01*
X0028095Y0020049D01*
X0029491Y0019471D01*
X0037003Y0019471D01*
X0038400Y0020049D01*
X0039220Y0020869D01*
X0039220Y0016237D01*
X0038983Y0016474D01*
X0038449Y0016863D01*
X0037859Y0017163D01*
X0037231Y0017367D01*
X0036578Y0017471D01*
X0033447Y0017471D01*
X0033447Y0013471D01*
X0033047Y0013471D01*
X0033047Y0017471D01*
X0029917Y0017471D01*
X0029264Y0017367D01*
X0028635Y0017163D01*
X0028046Y0016863D01*
X0027511Y0016474D01*
X0027044Y0016007D01*
X0026655Y0015472D01*
X0026355Y0014883D01*
X0026151Y0014254D01*
X0026047Y0013601D01*
X0026047Y0013471D01*
X0033047Y0013471D01*
X0033047Y0013071D01*
X0026047Y0013071D01*
X0026047Y0012940D01*
X0026151Y0012287D01*
X0026355Y0011658D01*
X0026655Y0011069D01*
X0027044Y0010534D01*
X0027291Y0010288D01*
X0002550Y0010288D01*
X0002550Y0046958D01*
X0029219Y0046958D01*
X0028095Y0046492D01*
X0027026Y0045423D01*
X0026447Y0044026D01*
X0026447Y0042515D01*
X0026816Y0041624D01*
X0025542Y0040350D01*
X0025424Y0040419D01*
X0025119Y0040500D01*
X0023389Y0040500D01*
X0023389Y0038123D01*
X0022989Y0038123D01*
X0022989Y0040500D01*
X0021259Y0040500D01*
X0020954Y0040419D01*
X0020717Y0040282D01*
X0020717Y0042552D01*
X0020248Y0043021D01*
X0013648Y0043021D01*
X0013180Y0042552D01*
X0013180Y0040505D01*
X0012786Y0040510D01*
X0012773Y0040497D01*
X0012754Y0040497D01*
X0012419Y0040153D01*
X0012074Y0039817D01*
X0012073Y0039799D01*
X0010231Y0037909D01*
X0009884Y0037561D01*
X0009884Y0037553D01*
X0009879Y0037548D01*
X0009885Y0037058D01*
X0009894Y0032289D01*
X0009885Y0032279D01*
X0009895Y0031794D01*
X0009896Y0031469D01*
X0009766Y0031340D01*
X0009766Y0030220D01*
X0009974Y0030013D01*
X0009835Y0030013D01*
X0009833Y0030015D01*
X0009339Y0030013D01*
X0008844Y0030014D01*
X0008842Y0030012D01*
X0008839Y0030012D01*
X0008490Y0029660D01*
X0008141Y0029312D01*
X0008141Y0029309D01*
X0006950Y0028111D01*
X0006400Y0027561D01*
X0006400Y0025602D01*
X0005330Y0025602D01*
X0005330Y0022830D01*
X0004930Y0022830D01*
X0004930Y0022430D01*
X0005330Y0022430D01*
X0005330Y0019659D01*
X0006400Y0019659D01*
X0006400Y0019366D01*
X0008000Y0017766D01*
X0008703Y0017063D01*
X0006770Y0018997D02*
X0002550Y0018997D01*
X0002550Y0019395D02*
X0006400Y0019395D01*
X0005330Y0019794D02*
X0004930Y0019794D01*
X0004930Y0019659D02*
X0004930Y0022430D01*
X0002552Y0022430D01*
X0002552Y0020701D01*
X0002634Y0020396D01*
X0002792Y0020122D01*
X0003015Y0019899D01*
X0003289Y0019741D01*
X0003594Y0019659D01*
X0004930Y0019659D01*
X0004930Y0020192D02*
X0005330Y0020192D01*
X0005330Y0020591D02*
X0004930Y0020591D01*
X0004930Y0020989D02*
X0005330Y0020989D01*
X0005330Y0021388D02*
X0004930Y0021388D01*
X0004930Y0021786D02*
X0005330Y0021786D01*
X0005330Y0022185D02*
X0004930Y0022185D01*
X0004930Y0022583D02*
X0002550Y0022583D01*
X0002552Y0022830D02*
X0004930Y0022830D01*
X0004930Y0025602D01*
X0003594Y0025602D01*
X0003289Y0025520D01*
X0003015Y0025362D01*
X0002792Y0025139D01*
X0002634Y0024865D01*
X0002552Y0024560D01*
X0002552Y0022830D01*
X0002550Y0022982D02*
X0002552Y0022982D01*
X0002550Y0023380D02*
X0002552Y0023380D01*
X0002550Y0023779D02*
X0002552Y0023779D01*
X0002550Y0024177D02*
X0002552Y0024177D01*
X0002550Y0024576D02*
X0002556Y0024576D01*
X0002550Y0024974D02*
X0002697Y0024974D01*
X0002550Y0025373D02*
X0003033Y0025373D01*
X0002550Y0025771D02*
X0006400Y0025771D01*
X0006400Y0026170D02*
X0002550Y0026170D01*
X0002550Y0026568D02*
X0006400Y0026568D01*
X0006400Y0026967D02*
X0002550Y0026967D01*
X0002550Y0027365D02*
X0006400Y0027365D01*
X0006603Y0027764D02*
X0002550Y0027764D01*
X0002550Y0028162D02*
X0007001Y0028162D01*
X0007397Y0028561D02*
X0002550Y0028561D01*
X0002550Y0028959D02*
X0007793Y0028959D01*
X0008187Y0029358D02*
X0002550Y0029358D01*
X0002550Y0029756D02*
X0008585Y0029756D01*
X0009832Y0030155D02*
X0002550Y0030155D01*
X0002550Y0030553D02*
X0009766Y0030553D01*
X0009766Y0030952D02*
X0002550Y0030952D01*
X0002550Y0031350D02*
X0009777Y0031350D01*
X0009895Y0031749D02*
X0002550Y0031749D01*
X0002550Y0032147D02*
X0009888Y0032147D01*
X0009894Y0032546D02*
X0002550Y0032546D01*
X0002550Y0032944D02*
X0009893Y0032944D01*
X0009892Y0033343D02*
X0002550Y0033343D01*
X0002550Y0033741D02*
X0009892Y0033741D01*
X0009891Y0034140D02*
X0002550Y0034140D01*
X0002550Y0034538D02*
X0009890Y0034538D01*
X0009889Y0034937D02*
X0002550Y0034937D01*
X0002550Y0035335D02*
X0009888Y0035335D01*
X0009888Y0035734D02*
X0002550Y0035734D01*
X0002550Y0036132D02*
X0009887Y0036132D01*
X0009886Y0036531D02*
X0002550Y0036531D01*
X0002550Y0036930D02*
X0009885Y0036930D01*
X0009882Y0037328D02*
X0002550Y0037328D01*
X0002550Y0037727D02*
X0010049Y0037727D01*
X0010442Y0038125D02*
X0002550Y0038125D01*
X0002550Y0038524D02*
X0010830Y0038524D01*
X0011219Y0038922D02*
X0002550Y0038922D01*
X0002550Y0039321D02*
X0011607Y0039321D01*
X0011996Y0039719D02*
X0002550Y0039719D01*
X0002550Y0040118D02*
X0012383Y0040118D01*
X0013180Y0040516D02*
X0002550Y0040516D01*
X0002550Y0040915D02*
X0013180Y0040915D01*
X0013180Y0041313D02*
X0002550Y0041313D01*
X0002550Y0041712D02*
X0013180Y0041712D01*
X0013180Y0042110D02*
X0002550Y0042110D01*
X0002550Y0042509D02*
X0013180Y0042509D01*
X0013534Y0042907D02*
X0002550Y0042907D01*
X0002550Y0043306D02*
X0026447Y0043306D01*
X0026447Y0043704D02*
X0002550Y0043704D01*
X0002550Y0044103D02*
X0026479Y0044103D01*
X0026644Y0044501D02*
X0002550Y0044501D01*
X0002550Y0044900D02*
X0026809Y0044900D01*
X0026974Y0045298D02*
X0002550Y0045298D01*
X0002550Y0045697D02*
X0027299Y0045697D01*
X0027698Y0046095D02*
X0002550Y0046095D01*
X0002550Y0046494D02*
X0028099Y0046494D01*
X0029061Y0046892D02*
X0002550Y0046892D01*
X0012628Y0036930D02*
X0013180Y0036930D01*
X0013180Y0037328D02*
X0013017Y0037328D01*
X0013180Y0037495D02*
X0012286Y0036579D01*
X0012294Y0032345D01*
X0012410Y0032412D01*
X0012855Y0032531D01*
X0013010Y0032531D01*
X0013010Y0030856D01*
X0013161Y0030856D01*
X0013161Y0032531D01*
X0013316Y0032531D01*
X0013762Y0032412D01*
X0014161Y0032181D01*
X0014176Y0032166D01*
X0014388Y0032379D01*
X0016817Y0032383D01*
X0020187Y0032435D01*
X0020617Y0032772D01*
X0020617Y0034514D01*
X0021086Y0034982D01*
X0023190Y0034982D01*
X0023564Y0035345D01*
X0023389Y0035345D01*
X0023389Y0037723D01*
X0022989Y0037723D01*
X0022989Y0035345D01*
X0021259Y0035345D01*
X0020954Y0035426D01*
X0020680Y0035584D01*
X0020514Y0035750D01*
X0020248Y0035484D01*
X0013648Y0035484D01*
X0013180Y0035953D01*
X0013180Y0037495D01*
X0013180Y0036531D02*
X0012286Y0036531D01*
X0012287Y0036132D02*
X0013180Y0036132D01*
X0013398Y0035734D02*
X0012288Y0035734D01*
X0012288Y0035335D02*
X0023554Y0035335D01*
X0023389Y0035734D02*
X0022989Y0035734D01*
X0022989Y0036132D02*
X0023389Y0036132D01*
X0023389Y0036531D02*
X0022989Y0036531D01*
X0022989Y0036930D02*
X0023389Y0036930D01*
X0023389Y0037328D02*
X0022989Y0037328D01*
X0022989Y0038125D02*
X0023389Y0038125D01*
X0023389Y0038524D02*
X0022989Y0038524D01*
X0022989Y0038922D02*
X0023389Y0038922D01*
X0023389Y0039321D02*
X0022989Y0039321D01*
X0022989Y0039719D02*
X0023389Y0039719D01*
X0023389Y0040118D02*
X0022989Y0040118D01*
X0020717Y0040516D02*
X0025708Y0040516D01*
X0026107Y0040915D02*
X0020717Y0040915D01*
X0020717Y0041313D02*
X0026505Y0041313D01*
X0026780Y0041712D02*
X0020717Y0041712D01*
X0020717Y0042110D02*
X0026615Y0042110D01*
X0026450Y0042509D02*
X0020717Y0042509D01*
X0020362Y0042907D02*
X0026447Y0042907D01*
X0020531Y0035734D02*
X0020498Y0035734D01*
X0021041Y0034937D02*
X0012289Y0034937D01*
X0012290Y0034538D02*
X0020642Y0034538D01*
X0020617Y0034140D02*
X0012291Y0034140D01*
X0012292Y0033741D02*
X0020617Y0033741D01*
X0020617Y0033343D02*
X0012292Y0033343D01*
X0012293Y0032944D02*
X0020617Y0032944D01*
X0020328Y0032546D02*
X0012294Y0032546D01*
X0013010Y0032147D02*
X0013161Y0032147D01*
X0013161Y0031749D02*
X0013010Y0031749D01*
X0013010Y0031350D02*
X0013161Y0031350D01*
X0013161Y0030952D02*
X0013010Y0030952D01*
X0013010Y0030704D02*
X0013161Y0030704D01*
X0013161Y0029029D01*
X0013161Y0028887D01*
X0013010Y0028887D01*
X0013010Y0030704D01*
X0013010Y0030553D02*
X0013161Y0030553D01*
X0013161Y0030155D02*
X0013010Y0030155D01*
X0013010Y0029756D02*
X0013161Y0029756D01*
X0013161Y0029358D02*
X0013010Y0029358D01*
X0013010Y0028959D02*
X0013161Y0028959D01*
X0019680Y0020591D02*
X0022052Y0020591D01*
X0022096Y0020547D02*
X0022370Y0020389D01*
X0022675Y0020307D01*
X0024011Y0020307D01*
X0024011Y0023078D01*
X0021633Y0023078D01*
X0021633Y0021349D01*
X0021715Y0021044D01*
X0021873Y0020770D01*
X0022096Y0020547D01*
X0021746Y0020989D02*
X0021084Y0020989D01*
X0021271Y0021388D02*
X0021633Y0021388D01*
X0021633Y0021786D02*
X0021271Y0021786D01*
X0021271Y0022185D02*
X0021633Y0022185D01*
X0021633Y0022583D02*
X0021271Y0022583D01*
X0021271Y0022982D02*
X0021633Y0022982D01*
X0021271Y0023380D02*
X0024011Y0023380D01*
X0024011Y0022982D02*
X0024411Y0022982D01*
X0024411Y0022583D02*
X0024011Y0022583D01*
X0024011Y0022185D02*
X0024411Y0022185D01*
X0024411Y0021786D02*
X0024011Y0021786D01*
X0024011Y0021388D02*
X0024411Y0021388D01*
X0024411Y0020989D02*
X0024011Y0020989D01*
X0024011Y0020591D02*
X0024411Y0020591D01*
X0026370Y0020591D02*
X0027553Y0020591D01*
X0027155Y0020989D02*
X0026676Y0020989D01*
X0026789Y0021388D02*
X0026914Y0021388D01*
X0027952Y0020192D02*
X0020078Y0020192D01*
X0020281Y0019794D02*
X0028712Y0019794D01*
X0029487Y0017402D02*
X0020717Y0017402D01*
X0020717Y0017801D02*
X0039220Y0017801D01*
X0039220Y0018199D02*
X0020717Y0018199D01*
X0020717Y0018598D02*
X0039220Y0018598D01*
X0039220Y0018997D02*
X0020611Y0018997D01*
X0020446Y0019395D02*
X0039220Y0019395D01*
X0039220Y0019794D02*
X0037783Y0019794D01*
X0038543Y0020192D02*
X0039220Y0020192D01*
X0039220Y0020591D02*
X0038941Y0020591D01*
X0039220Y0017402D02*
X0037008Y0017402D01*
X0038171Y0017004D02*
X0039220Y0017004D01*
X0039220Y0016605D02*
X0038803Y0016605D01*
X0033447Y0016605D02*
X0033047Y0016605D01*
X0033047Y0016207D02*
X0033447Y0016207D01*
X0033447Y0015808D02*
X0033047Y0015808D01*
X0033047Y0015410D02*
X0033447Y0015410D01*
X0033447Y0015011D02*
X0033047Y0015011D01*
X0033047Y0014613D02*
X0033447Y0014613D01*
X0033447Y0014214D02*
X0033047Y0014214D01*
X0033047Y0013816D02*
X0033447Y0013816D01*
X0033047Y0013417D02*
X0002550Y0013417D01*
X0002550Y0013019D02*
X0026047Y0013019D01*
X0026098Y0012620D02*
X0002550Y0012620D01*
X0002550Y0012222D02*
X0026172Y0012222D01*
X0026301Y0011823D02*
X0002550Y0011823D01*
X0002550Y0011425D02*
X0026474Y0011425D01*
X0026686Y0011026D02*
X0002550Y0011026D01*
X0002550Y0010628D02*
X0026976Y0010628D01*
X0026081Y0013816D02*
X0002550Y0013816D01*
X0002550Y0014214D02*
X0026144Y0014214D01*
X0026267Y0014613D02*
X0018636Y0014613D01*
X0019296Y0015011D02*
X0026420Y0015011D01*
X0026624Y0015410D02*
X0019695Y0015410D01*
X0020093Y0015808D02*
X0026900Y0015808D01*
X0027244Y0016207D02*
X0020287Y0016207D01*
X0020452Y0016605D02*
X0027692Y0016605D01*
X0028323Y0017004D02*
X0020617Y0017004D01*
X0015260Y0014613D02*
X0002550Y0014613D01*
X0002550Y0015011D02*
X0014600Y0015011D01*
X0014201Y0015410D02*
X0002550Y0015410D01*
X0002550Y0015808D02*
X0013803Y0015808D01*
X0013609Y0016207D02*
X0002550Y0016207D01*
X0002550Y0016605D02*
X0013444Y0016605D01*
X0013279Y0017004D02*
X0002550Y0017004D01*
X0002550Y0019794D02*
X0003197Y0019794D01*
X0002751Y0020192D02*
X0002550Y0020192D01*
X0002550Y0020591D02*
X0002581Y0020591D01*
X0002550Y0020989D02*
X0002552Y0020989D01*
X0002550Y0021388D02*
X0002552Y0021388D01*
X0002550Y0021786D02*
X0002552Y0021786D01*
X0002550Y0022185D02*
X0002552Y0022185D01*
X0004930Y0022982D02*
X0005330Y0022982D01*
X0005330Y0023380D02*
X0004930Y0023380D01*
X0004930Y0023779D02*
X0005330Y0023779D01*
X0005330Y0024177D02*
X0004930Y0024177D01*
X0004930Y0024576D02*
X0005330Y0024576D01*
X0005330Y0024974D02*
X0004930Y0024974D01*
X0004930Y0025373D02*
X0005330Y0025373D01*
X0021271Y0025373D02*
X0021677Y0025373D01*
X0021633Y0024974D02*
X0021271Y0024974D01*
X0021271Y0024576D02*
X0021633Y0024576D01*
X0021633Y0024177D02*
X0021271Y0024177D01*
X0021271Y0023779D02*
X0021633Y0023779D01*
X0033047Y0017402D02*
X0033447Y0017402D01*
X0033447Y0017004D02*
X0033047Y0017004D01*
D21*
X0033247Y0013271D02*
X0032440Y0013063D01*
X0009200Y0013063D01*
X0005130Y0018834D01*
X0005130Y0022630D01*
X0009800Y0023063D02*
X0010090Y0024373D01*
X0010100Y0025793D01*
X0011117Y0026843D01*
X0015054Y0030780D02*
X0016830Y0030783D01*
X0020750Y0030844D01*
X0023200Y0032763D01*
X0026481Y0035945D01*
X0026481Y0039026D01*
X0030726Y0043271D01*
X0033247Y0043271D01*
X0023100Y0042763D02*
X0023100Y0038012D01*
X0024211Y0023278D02*
X0024200Y0023267D01*
X0024200Y0018863D01*
X0029819Y0013271D01*
X0033247Y0013271D01*
D22*
X0023100Y0042763D03*
M02*
